<svg width="53" height="53" viewBox="0 0 53 53" fill="none" xmlns="http://www.w3.org/2000/svg">
<rect width="53" height="53" rx="12" fill="#E4FFF4"/>
<path fill-rule="evenodd" clip-rule="evenodd" d="M25.5726 15.1884C25.5178 15.2128 25.3677 15.2344 25.2391 15.2364C25.1104 15.2382 24.9913 15.2623 24.9743 15.2897C24.9573 15.3171 24.8716 15.3396 24.7837 15.3396C24.6958 15.3396 24.5011 15.3845 24.3511 15.4393C24.201 15.4941 24.0497 15.539 24.0146 15.539C23.8966 15.539 22.8417 16.0296 22.4315 16.2754C21.6649 16.7345 20.8333 17.4716 20.3341 18.1343C20.1987 18.314 20.0359 18.5304 19.9724 18.6152C19.5934 19.1207 18.9164 20.6252 18.9164 20.9616C18.9164 21.0198 18.8883 21.0855 18.854 21.1075C18.7412 21.1798 18.4449 21.2714 18.3215 21.2721C18.1958 21.2729 17.9078 21.3528 17.7577 21.4286C17.7101 21.4526 17.637 21.4723 17.5951 21.4723C17.5532 21.4723 17.48 21.4934 17.4324 21.5192C17.3848 21.545 17.2001 21.6371 17.0219 21.724C13.079 23.6482 13.1709 29.4454 17.1713 31.1416C17.5781 31.3141 17.6288 31.3333 17.8194 31.3877C17.9154 31.4151 18.0843 31.4634 18.1949 31.4951C18.5572 31.5989 18.6838 31.5528 18.7448 31.2947C18.8239 30.9601 19.0303 30.4852 19.1529 30.3562C19.1873 30.32 19.2155 30.2715 19.2155 30.2486C19.2155 30.1794 19.8235 29.5994 19.896 29.5994C19.9331 29.5994 19.9634 29.5826 19.9634 29.5619C19.9634 29.3956 21.0629 29.0777 21.7196 29.0541C21.7984 29.0512 21.8067 28.9295 21.8228 27.5677C21.8389 26.1874 21.8553 25.9488 21.9521 25.6855C22.2761 24.8032 22.9534 24.0558 23.7777 23.6704C24.3734 23.3918 24.3204 23.3972 26.495 23.3972C28.5931 23.3972 28.6704 23.4038 29.0996 23.6221C29.1472 23.6463 29.2201 23.6661 29.2616 23.6661C29.3031 23.6661 29.3373 23.683 29.3376 23.7035C29.3379 23.7241 29.4285 23.7842 29.5389 23.8372C30.0714 24.0923 30.7938 24.9661 31.0048 25.6107C31.0543 25.7615 31.1143 25.9364 31.1382 25.9995C31.1623 26.0624 31.1818 26.7623 31.1818 27.5546C31.1818 28.3978 31.2013 29.0072 31.2286 29.0242C31.2544 29.04 31.4507 29.073 31.6648 29.0974C32.1895 29.1571 32.3807 29.2117 32.8134 29.4256C33.1781 29.6058 33.8244 30.1816 33.8244 30.3261C33.8244 30.3607 33.8412 30.3963 33.8618 30.4055C33.8823 30.4146 33.9525 30.5343 34.0177 30.6714C34.1907 31.0354 34.2175 31.1067 34.2337 31.2448C34.2532 31.4117 34.4156 31.3985 34.9432 31.1871C35.9574 30.7807 36.9745 30.0316 37.5393 29.275C37.6211 29.1655 37.7007 29.0647 37.7164 29.051C37.7821 28.9935 38.0625 28.5554 38.0625 28.5101C38.0625 28.4831 38.0793 28.4535 38.0998 28.4443C38.1355 28.4285 38.3179 28.0691 38.4244 27.8045C38.4521 27.7359 38.4934 27.635 38.5162 27.5801C38.5812 27.4236 38.7429 26.8616 38.8173 26.5331C38.9811 25.8104 38.8363 23.757 38.6031 23.4941C38.58 23.4681 38.561 23.4061 38.561 23.3564C38.561 23.3067 38.541 23.227 38.5164 23.1794C38.4919 23.1318 38.3974 22.9357 38.3063 22.7437C37.7204 21.5082 36.5783 20.3659 35.3451 19.7822C35.1531 19.6913 34.9571 19.597 34.9095 19.5724C34.8618 19.5479 34.7791 19.5278 34.7255 19.5278C34.6719 19.5278 34.6142 19.5054 34.5972 19.4779C34.5803 19.4505 34.5017 19.4281 34.4227 19.4281C34.3437 19.4281 34.2666 19.408 34.2514 19.3834C34.2364 19.3589 34.1396 19.3261 34.0367 19.3107C33.5371 19.2351 33.4442 19.2117 33.3632 19.1404C33.3152 19.0981 33.2759 19.0428 33.2759 19.0175C33.2759 18.8769 32.581 17.983 32.0802 17.4796C31.2557 16.6505 30.6258 16.2246 29.4741 15.7169C29.0293 15.5208 28.4231 15.3537 27.7166 15.2324C27.3228 15.1648 25.7003 15.1315 25.5726 15.1884Z" fill="#24C4DC"/>
<path fill-rule="evenodd" clip-rule="evenodd" d="M25.5851 15.1256C25.6468 15.1375 25.7478 15.1375 25.8095 15.1256C25.8712 15.1137 25.8207 15.104 25.6973 15.104C25.5739 15.104 25.5234 15.1137 25.5851 15.1256ZM27.1806 15.1256C27.2423 15.1375 27.3433 15.1375 27.405 15.1256C27.4667 15.1137 27.4162 15.104 27.2928 15.104C27.1694 15.104 27.1189 15.1137 27.1806 15.1256ZM21.7335 16.6654L21.5839 16.7939L21.7459 16.6867C21.8351 16.6277 21.908 16.5698 21.908 16.5579C21.908 16.5205 21.8869 16.5336 21.7335 16.6654ZM31.8799 17.2095C31.9729 17.3054 32.0603 17.384 32.074 17.384C32.0877 17.384 32.0228 17.3054 31.9298 17.2095C31.8368 17.1135 31.7494 17.0349 31.7357 17.0349C31.722 17.0349 31.7869 17.1135 31.8799 17.2095ZM20.8344 17.4463L20.5368 17.7579L20.8485 17.4604C21.1379 17.1839 21.1829 17.1347 21.146 17.1347C21.1384 17.1347 20.9982 17.2749 20.8344 17.4463ZM32.2289 17.5491C32.2289 17.5577 32.3019 17.6306 32.391 17.7112L32.553 17.8576L32.4066 17.6956C32.2701 17.5445 32.2289 17.5106 32.2289 17.5491ZM37.0404 20.924C37.2309 21.116 37.398 21.273 37.4117 21.273C37.4254 21.273 37.2807 21.116 37.0903 20.924C36.8998 20.732 36.7326 20.575 36.7189 20.575C36.7052 20.575 36.8499 20.732 37.0404 20.924ZM25.7596 23.4044C26.1641 23.4127 26.826 23.4127 27.2305 23.4044C27.635 23.396 27.304 23.3892 26.4951 23.3892C25.6861 23.3892 25.3552 23.396 25.7596 23.4044ZM22.8055 24.3892C22.6843 24.5126 22.5964 24.6136 22.6101 24.6136C22.6238 24.6136 22.7342 24.5126 22.8553 24.3892C22.9765 24.2658 23.0644 24.1649 23.0506 24.1649C23.0369 24.1649 22.9266 24.2658 22.8055 24.3892ZM30.1327 24.3768C30.255 24.507 30.3616 24.6136 30.3695 24.6136C30.4071 24.6136 30.3674 24.5689 30.1473 24.3622L29.9105 24.1399L30.1327 24.3768ZM14.1584 25.1408C14.14 25.2138 14.1346 25.2832 14.1463 25.2949C14.1582 25.3067 14.1827 25.2565 14.2011 25.1834C14.2195 25.1103 14.2249 25.0409 14.2132 25.0292C14.2013 25.0175 14.1768 25.0676 14.1584 25.1408ZM24.8634 25.558C24.554 25.6345 24.2479 25.8805 24.0845 26.1842C23.98 26.3784 23.9765 26.4464 23.9522 28.7769L23.9273 31.1702L22.6559 31.1951C21.0598 31.2264 20.8396 31.3195 20.8396 31.9629C20.8396 32.2998 20.8415 32.3023 22.126 33.6409C22.4037 33.9304 22.8198 34.3679 23.0506 34.6132C23.9864 35.6078 25.2513 36.9322 25.7027 37.3901L26.182 37.8763H26.4947H26.8074L27.3891 37.2904C27.7089 36.9682 28.1803 36.4802 28.4369 36.206C28.6933 35.9317 29.1298 35.4715 29.4068 35.1834C31.7513 32.7437 32.108 32.346 32.1495 32.1247C32.2141 31.7802 32.0336 31.4148 31.7303 31.2767C31.6528 31.2415 31.1253 31.2105 30.3343 31.1951L29.0628 31.1702L29.0379 28.7769C29.0086 25.968 29.013 25.9875 28.3399 25.629C28.1507 25.5282 25.2253 25.4685 24.8634 25.558ZM31.1456 26.5083C31.1456 26.6317 31.1553 26.6822 31.1672 26.6205C31.1791 26.5588 31.1791 26.4578 31.1672 26.3961C31.1553 26.3344 31.1456 26.3849 31.1456 26.5083ZM21.8301 27.68C21.8301 28.4204 21.8371 28.7303 21.8455 28.3685C21.854 28.0068 21.854 27.401 21.8455 27.0223C21.8371 26.6436 21.8301 26.9396 21.8301 27.68ZM38.0816 28.565C37.9099 28.8562 37.8987 28.881 37.9861 28.7769C38.0874 28.6562 38.1747 28.5027 38.142 28.5027C38.129 28.5027 38.1018 28.5307 38.0816 28.565ZM37.7634 29.0511C37.7048 29.1334 37.6681 29.2007 37.6818 29.2007C37.6955 29.2007 37.7546 29.1334 37.8132 29.0511C37.8718 28.9688 37.9084 28.9015 37.8947 28.9015C37.881 28.9015 37.8219 28.9688 37.7634 29.0511ZM21.4966 29.1361C21.5583 29.1481 21.6593 29.1481 21.721 29.1361C21.7827 29.1243 21.7322 29.1146 21.6088 29.1146C21.4854 29.1146 21.4349 29.1243 21.4966 29.1361ZM31.2691 29.1361C31.3308 29.1481 31.4318 29.1481 31.4935 29.1361C31.5552 29.1243 31.5047 29.1146 31.3813 29.1146C31.2579 29.1146 31.2074 29.1243 31.2691 29.1361ZM37.0879 29.8613L36.8908 30.0732L37.1027 29.8762C37.2998 29.6928 37.3376 29.6494 37.2998 29.6494C37.2917 29.6494 37.1963 29.7448 37.0879 29.8613ZM15.5758 30.1231C15.7524 30.3013 15.9083 30.4472 15.922 30.4472C15.9357 30.4472 15.8023 30.3013 15.6257 30.1231C15.449 29.9449 15.2932 29.799 15.2795 29.799C15.2658 29.799 15.3992 29.9449 15.5758 30.1231ZM34.1902 31.3442C34.1958 31.4284 34.2304 31.4716 34.2981 31.4784C34.3699 31.4856 34.3743 31.4815 34.3137 31.4633C34.2673 31.4496 34.2188 31.3892 34.2057 31.3291C34.1859 31.2377 34.1834 31.2401 34.1902 31.3442ZM18.7461 31.4289C18.7217 31.5372 18.6757 31.5946 18.6015 31.609C18.4937 31.63 18.4939 31.6304 18.606 31.6371C18.7205 31.6439 18.8435 31.4468 18.8009 31.3246C18.7904 31.2946 18.7657 31.3414 18.7461 31.4289Z" fill="#8DE4EC"/>
<path fill-rule="evenodd" clip-rule="evenodd" d="M26.1834 15.1273C26.3548 15.137 26.6353 15.137 26.8067 15.1273C26.9781 15.1176 26.8378 15.1096 26.4951 15.1096C26.1523 15.1096 26.012 15.1176 26.1834 15.1273ZM25.2735 15.1901L25.1239 15.2282L25.2984 15.2307C25.3944 15.2319 25.5178 15.2137 25.5727 15.1901C25.7053 15.1332 25.4975 15.1332 25.2735 15.1901ZM27.4175 15.1901C27.4723 15.2137 27.5957 15.2319 27.6917 15.2307L27.8662 15.2282L27.7166 15.1901C27.4926 15.1332 27.2848 15.1332 27.4175 15.1901ZM24.7998 15.2899L24.6752 15.3297L24.8093 15.3347C24.8831 15.3375 24.9574 15.3173 24.9743 15.2899C25.0094 15.2331 24.9768 15.2331 24.7998 15.2899ZM28.0407 15.2899C28.0818 15.3164 28.1716 15.3364 28.2401 15.334L28.3648 15.3297L28.2401 15.2899C28.0479 15.2283 27.9455 15.2283 28.0407 15.2899ZM24.2015 15.4394C24.0507 15.4907 23.9567 15.534 23.9927 15.5359C24.0694 15.5398 24.5505 15.3871 24.5505 15.3589C24.5505 15.3275 24.49 15.3415 24.2015 15.4394ZM28.4894 15.3873C28.5306 15.4151 28.6072 15.4383 28.6598 15.4387C28.7874 15.4397 28.7476 15.4111 28.5642 15.3701C28.455 15.3457 28.4348 15.3503 28.4894 15.3873ZM23.6531 15.6204C23.1182 15.8627 22.5685 16.1371 22.4814 16.2053C22.4265 16.2483 22.6284 16.1623 22.9301 16.0143C23.2317 15.8664 23.5795 15.7001 23.7029 15.6447C23.8263 15.5894 23.9049 15.5435 23.8774 15.5428C23.85 15.542 23.749 15.5771 23.6531 15.6204ZM29.3869 15.6624C29.3869 15.702 29.7484 15.8424 29.7768 15.814C29.7909 15.7999 29.7902 15.7885 29.7753 15.7885C29.7604 15.7885 29.6669 15.7546 29.5675 15.713C29.4682 15.6715 29.3869 15.6487 29.3869 15.6624ZM29.8357 15.8598C29.8357 15.8699 29.9759 15.9503 30.1473 16.0384C30.3187 16.1265 30.5374 16.2429 30.6334 16.297C30.7549 16.3655 30.7776 16.3701 30.7082 16.3122C30.5599 16.1886 29.8357 15.8131 29.8357 15.8598ZM22.0911 16.4412C21.9631 16.5261 21.8443 16.6181 21.8272 16.6457C21.802 16.6864 22.2804 16.3785 22.3526 16.3075C22.4173 16.2438 22.294 16.3069 22.0911 16.4412ZM30.8827 16.4465C31.0118 16.5728 31.5033 16.9119 31.4632 16.847C31.4421 16.8129 31.2862 16.6925 31.1164 16.5792C30.9468 16.4661 30.8416 16.4062 30.8827 16.4465ZM21.5571 16.8395L21.3844 16.9929L21.545 16.887C21.6873 16.793 21.7949 16.6859 21.7469 16.6859C21.7375 16.6859 21.6521 16.755 21.5571 16.8395ZM31.5309 16.9082C31.5309 16.927 31.5607 16.9688 31.5971 17.0012C31.6335 17.0335 31.8621 17.2506 32.1051 17.4837C32.3482 17.7168 32.4601 17.8075 32.3539 17.6854C32.1211 17.4175 31.5309 16.8602 31.5309 16.9082ZM20.8845 17.4352C20.6948 17.6264 20.5544 17.7828 20.5726 17.7828C20.6152 17.7828 21.267 17.1253 21.2456 17.1039C21.2367 17.0949 21.0742 17.2441 20.8845 17.4352ZM20.4052 17.9698C20.1984 18.1959 19.9016 18.6305 19.9538 18.6305C19.9806 18.6305 20.0138 18.6013 20.0275 18.5658C20.0411 18.5301 20.1676 18.3506 20.3085 18.1669C20.5782 17.8149 20.6145 17.7408 20.4052 17.9698ZM32.6917 18.1443C32.916 18.4232 33.276 18.962 33.276 19.0189C33.276 19.0877 33.4496 19.2291 33.5291 19.2253C33.5806 19.2227 33.5775 19.2124 33.5174 19.1879C33.472 19.1692 33.277 18.9184 33.0839 18.6305C32.6879 18.0396 32.6069 17.9324 32.5566 17.9324C32.5373 17.9324 32.5981 18.0278 32.6917 18.1443ZM19.6265 19.093C19.5403 19.2363 19.4554 19.3983 19.4379 19.4531C19.4205 19.508 19.4751 19.4323 19.5592 19.2849C19.6433 19.1375 19.7382 18.9856 19.7701 18.9472C19.802 18.9088 19.818 18.8673 19.8058 18.855C19.7934 18.8427 19.7128 18.9498 19.6265 19.093ZM33.8244 19.2786C33.8656 19.3052 33.9553 19.3251 34.0239 19.3228L34.1485 19.3185L34.0239 19.2786C33.8317 19.2171 33.7292 19.2171 33.8244 19.2786ZM34.247 19.3764C34.2647 19.4049 34.3376 19.4282 34.409 19.4282C34.5653 19.4282 34.5473 19.4043 34.3562 19.3584C34.2636 19.3362 34.2259 19.3423 34.247 19.3764ZM34.5972 19.4781C34.6142 19.5055 34.6773 19.5263 34.7374 19.5244C34.8427 19.5211 34.8429 19.5193 34.7468 19.4781C34.6096 19.4191 34.5609 19.4191 34.5972 19.4781ZM35.3202 19.7502C35.3202 19.7726 35.6196 19.9268 35.663 19.9268C35.7063 19.9268 35.5064 19.798 35.4075 19.7621C35.3595 19.7447 35.3202 19.7393 35.3202 19.7502ZM35.7191 19.9434C35.7191 19.957 35.8369 20.0396 35.9809 20.127C36.1248 20.2144 36.209 20.2534 36.1678 20.2138C36.0748 20.124 35.7191 19.9097 35.7191 19.9434ZM36.4421 20.4315C36.8627 20.7708 37.5575 21.5141 37.8112 21.8963C38.0661 22.2801 38.2232 22.4839 38.1379 22.3201C37.8653 21.7962 36.8444 20.6399 36.4296 20.3854L36.2426 20.2707L36.4421 20.4315ZM18.8296 21.0288C18.7732 21.1794 18.7747 21.1869 18.8468 21.1146C18.8903 21.0711 18.9183 20.9969 18.9087 20.9497C18.8968 20.8906 18.8721 20.9153 18.8296 21.0288ZM18.343 21.2232L18.1934 21.2612L18.343 21.2664C18.4253 21.2692 18.5262 21.2497 18.5674 21.2232C18.66 21.1633 18.5782 21.1633 18.343 21.2232ZM17.9192 21.3229C17.8165 21.3558 17.8121 21.3635 17.8943 21.367C17.9491 21.3694 18.0276 21.3494 18.0688 21.3229C18.1562 21.2664 18.0955 21.2664 17.9192 21.3229ZM17.2461 21.5694C17.1364 21.6214 17.0607 21.6657 17.0779 21.6679C17.1264 21.6741 17.4705 21.5241 17.4705 21.4968C17.4705 21.4634 17.4703 21.4634 17.2461 21.5694ZM16.7942 21.7889C16.1788 22.141 15.0526 23.1098 15.148 23.2053C15.1632 23.2204 15.2254 23.1677 15.2862 23.088C15.5921 22.6884 16.1504 22.2354 16.9512 21.7372C17.1229 21.6303 17.0017 21.6703 16.7942 21.7889ZM24.5017 23.4154C24.4537 23.4457 24.5323 23.4518 24.726 23.4326C24.89 23.4165 25.0335 23.395 25.045 23.3852C25.0929 23.3436 24.5691 23.3726 24.5017 23.4154ZM27.9451 23.3852C27.9566 23.395 28.1002 23.4165 28.2641 23.4326C28.4578 23.4518 28.5364 23.4457 28.4884 23.4154C28.421 23.3726 27.8972 23.3436 27.9451 23.3852ZM24.1267 23.5167C24.0903 23.5757 24.1391 23.5757 24.2763 23.5167C24.3724 23.4754 24.3722 23.4737 24.2668 23.4703C24.2067 23.4685 24.1437 23.4893 24.1267 23.5167ZM28.7138 23.5167C28.8511 23.5757 28.8998 23.5757 28.8634 23.5167C28.8464 23.4893 28.7834 23.4685 28.7233 23.4703C28.618 23.4737 28.6177 23.4754 28.7138 23.5167ZM38.6678 23.6663C38.6678 23.7074 38.6871 23.7859 38.7107 23.8408C38.7377 23.9036 38.7535 23.9128 38.7535 23.8657C38.7535 23.8246 38.7342 23.7461 38.7107 23.6912C38.6836 23.6284 38.6678 23.6192 38.6678 23.6663ZM38.769 24.0652C38.7715 24.1947 38.85 24.4074 38.8518 24.2895C38.8525 24.2347 38.8339 24.1449 38.8104 24.0901C38.7841 24.029 38.7681 24.0193 38.769 24.0652ZM22.6868 24.4663C22.5332 24.6321 22.3831 24.8172 22.3532 24.8776C22.3233 24.9381 22.3619 24.909 22.4391 24.8131C22.5163 24.7171 22.6783 24.532 22.799 24.4017C22.9197 24.2715 23.0066 24.1649 22.9922 24.1649C22.9776 24.1649 22.8402 24.3005 22.6868 24.4663ZM30.2357 24.4384C30.3799 24.6025 30.5539 24.8213 30.6222 24.9245C30.7736 25.1533 30.8224 25.1718 30.6986 24.9534C30.649 24.866 30.4655 24.6473 30.2909 24.4673L29.9733 24.1399L30.2357 24.4384ZM38.8852 25.4177C38.8852 25.8906 38.8994 26.2117 38.9167 26.1312C38.9582 25.9378 38.959 24.8199 38.9176 24.6729C38.8998 24.6096 38.8852 24.9447 38.8852 25.4177ZM14.2606 24.8897C14.2435 24.9343 14.2315 25.0083 14.2338 25.054C14.2362 25.0997 14.2579 25.071 14.2821 24.9901C14.3291 24.8327 14.3125 24.7548 14.2606 24.8897ZM22.1822 25.1621C22.1397 25.2443 22.116 25.3116 22.1297 25.3116C22.1434 25.3116 22.1896 25.2443 22.2321 25.1621C22.2746 25.0798 22.2982 25.0125 22.2845 25.0125C22.2708 25.0125 22.2247 25.0798 22.1822 25.1621ZM14.1618 25.2723C14.1449 25.3351 14.1334 25.4425 14.136 25.5111C14.1388 25.5845 14.1587 25.5449 14.1842 25.4145C14.23 25.181 14.2138 25.0782 14.1618 25.2723ZM30.783 25.1671C30.783 25.1819 30.8286 25.2822 30.8845 25.3901C30.9428 25.5026 30.9718 25.5329 30.9525 25.4612C30.9217 25.3461 30.783 25.1055 30.783 25.1671ZM30.9839 25.6607C30.9839 25.7018 31.0057 25.7691 31.0323 25.8102C31.0753 25.8767 31.0807 25.8767 31.0807 25.8102C31.0807 25.7691 31.0588 25.7018 31.0323 25.6607C30.9893 25.5942 30.9839 25.5942 30.9839 25.6607ZM14.0622 25.8476C14.0238 26.0796 14.031 26.8312 14.0734 27.0289C14.0907 27.1097 14.1049 26.8349 14.1049 26.4182C14.1049 25.5779 14.1056 25.5854 14.0622 25.8476ZM31.0879 26.0097C31.0902 26.0508 31.1101 26.1406 31.132 26.2091L31.1719 26.3338L31.1761 26.2091C31.1785 26.1406 31.1586 26.0508 31.132 26.0097C31.089 25.9432 31.0841 25.9432 31.0879 26.0097ZM21.8393 26.0863C21.8222 26.131 21.8102 26.2161 21.8127 26.2756C21.816 26.3521 21.8313 26.3348 21.8655 26.2161C21.9151 26.0436 21.8948 25.9421 21.8393 26.0863ZM38.7855 26.608C38.7665 26.6941 38.7623 26.7759 38.776 26.7896C38.7897 26.8033 38.8164 26.744 38.8353 26.6579C38.8543 26.5717 38.8585 26.49 38.8448 26.4762C38.8311 26.4625 38.8044 26.5219 38.7855 26.608ZM38.6894 27.0354C38.6709 27.1085 38.6655 27.1779 38.6773 27.1896C38.6891 27.2013 38.7137 27.1512 38.732 27.0781C38.7504 27.005 38.7558 26.9356 38.7441 26.9239C38.7322 26.9121 38.7077 26.9623 38.6894 27.0354ZM14.1334 27.3351C14.1354 27.4151 14.1568 27.5254 14.181 27.5803C14.2105 27.6468 14.2154 27.6054 14.1956 27.4556C14.1605 27.1914 14.1284 27.129 14.1334 27.3351ZM38.586 27.3559C38.5673 27.4149 38.5632 27.4743 38.5769 27.488C38.5906 27.5017 38.6172 27.4647 38.6359 27.4058C38.6546 27.3468 38.6587 27.2873 38.645 27.2736C38.6313 27.2599 38.6047 27.2969 38.586 27.3559ZM14.2303 27.7838C14.2307 27.8364 14.2539 27.9131 14.2817 27.9542C14.3187 28.0088 14.3233 27.9886 14.2989 27.8794C14.2579 27.6961 14.2293 27.6563 14.2303 27.7838ZM14.7015 28.9389C14.745 29.0281 14.7913 29.101 14.8042 29.101C14.8538 29.101 14.8219 29.0216 14.7241 28.9015L14.6225 28.7769L14.7015 28.9389ZM31.1819 29.0597C31.1819 29.0824 31.2492 29.101 31.3314 29.101C31.4137 29.101 31.481 29.0923 31.481 29.0817C31.481 29.0711 31.4137 29.0526 31.3314 29.0405C31.2492 29.0284 31.1819 29.037 31.1819 29.0597ZM21.5714 29.0855C21.6194 29.098 21.6979 29.098 21.7459 29.0855C21.7939 29.0729 21.7547 29.0627 21.6587 29.0627C21.5627 29.0627 21.5234 29.0729 21.5714 29.0855ZM37.6035 29.1892C37.5587 29.2653 37.3621 29.4924 37.1668 29.6939C36.9714 29.8956 36.8209 30.0699 36.8322 30.0811C36.8566 30.1055 37.5213 29.4006 37.6679 29.1947C37.7241 29.1157 37.751 29.0511 37.7276 29.0511C37.7043 29.0511 37.6484 29.1133 37.6035 29.1892ZM20.9108 29.1503C20.8608 29.1823 20.927 29.188 21.1102 29.1675C21.261 29.1507 21.3938 29.1288 21.4053 29.1189C21.454 29.0768 20.9786 29.107 20.9108 29.1503ZM31.5849 29.1189C31.5963 29.1288 31.7291 29.1507 31.8799 29.1675C32.0631 29.188 32.1293 29.1823 32.0793 29.1503C32.0115 29.107 31.5361 29.0768 31.5849 29.1189ZM20.3748 29.3254C20.2308 29.3908 20.113 29.4576 20.113 29.4738C20.113 29.4901 20.1628 29.4768 20.2235 29.4443C20.2842 29.4117 20.4468 29.3444 20.5849 29.2947C20.7231 29.245 20.7911 29.2048 20.7363 29.2053C20.6814 29.2059 20.5188 29.26 20.3748 29.3254ZM32.4034 29.2943C32.76 29.4231 32.9718 29.5379 33.2136 29.7338C33.4469 29.9227 33.5073 29.9075 33.2884 29.7149C33.117 29.5642 32.3794 29.2001 32.2502 29.2024C32.1974 29.2034 32.2663 29.2448 32.4034 29.2943ZM19.6959 29.7283C19.4944 29.9056 19.553 29.9197 19.7621 29.7443C19.8571 29.6646 19.9132 29.6003 19.8868 29.6012C19.8604 29.6021 19.7745 29.6593 19.6959 29.7283ZM15.6531 30.1423C15.9013 30.3845 16.1593 30.6101 16.2265 30.6436C16.3045 30.6825 16.2855 30.6547 16.1741 30.5669C16.0781 30.4911 15.8329 30.265 15.6293 30.0643C15.4256 29.8635 15.2461 29.6999 15.2304 29.7007C15.2147 29.7014 15.4049 29.9001 15.6531 30.1423ZM19.3651 30.0554C19.1603 30.3113 19.1385 30.3872 19.3312 30.173C19.4845 30.0024 19.5501 29.8975 19.5022 29.8992C19.4954 29.8995 19.4337 29.9698 19.3651 30.0554ZM33.6584 30.1706C33.7339 30.2653 33.8049 30.3338 33.816 30.3227C33.8426 30.296 33.6113 30.0048 33.5605 30.0012C33.5389 29.9997 33.5829 30.076 33.6584 30.1706ZM36.6929 30.1457C36.5085 30.444 34.7806 31.35 34.3686 31.3645C34.2889 31.3674 34.2234 31.3892 34.2234 31.4132C34.2232 31.5192 35.07 31.2248 35.6194 30.928C36.1446 30.644 36.8898 30.0982 36.7519 30.0982C36.7355 30.0982 36.7089 30.1195 36.6929 30.1457ZM19.0291 30.5312C18.9434 30.7156 18.978 30.7245 19.0839 30.5454C19.132 30.4639 19.1532 30.3975 19.1312 30.3977C19.109 30.398 19.0631 30.458 19.0291 30.5312ZM16.3736 30.7373C16.3736 30.7608 16.4296 30.8058 16.4982 30.837C16.5668 30.8683 16.6228 30.8856 16.6228 30.8756C16.6228 30.8656 16.5668 30.8208 16.4982 30.7759C16.4296 30.7309 16.3736 30.7136 16.3736 30.7373ZM16.6944 30.9407C16.7228 30.9866 17.2802 31.2597 17.4642 31.3179C17.5458 31.3437 17.5721 31.3382 17.5485 31.3002C17.5298 31.2698 17.4814 31.2449 17.4412 31.2449C17.4009 31.2449 17.2107 31.1672 17.0185 31.0722C16.8263 30.9772 16.6804 30.918 16.6944 30.9407ZM18.8033 31.0297C18.7904 31.0521 18.7669 31.1602 18.7511 31.2699L18.7223 31.4693L18.7939 31.2486C18.8582 31.05 18.8635 30.9247 18.8033 31.0297ZM34.1271 31.0301C34.1383 31.1596 34.2163 31.2694 34.2198 31.1607C34.2217 31.1006 34.2009 31.0375 34.1734 31.0206C34.146 31.0036 34.1252 31.0079 34.1271 31.0301ZM18.0189 31.4942C18.2111 31.5558 18.3136 31.5558 18.2184 31.4942C18.1772 31.4677 18.0875 31.4478 18.0189 31.4501L17.8943 31.4544L18.0189 31.4942ZM18.4926 31.5441L18.2931 31.5798L18.5051 31.5869C18.6216 31.5907 18.717 31.5715 18.717 31.5441C18.717 31.5167 18.7113 31.4975 18.7045 31.5014C18.6976 31.5052 18.6023 31.5244 18.4926 31.5441Z" fill="#68D7E5"/>
<path fill-rule="evenodd" clip-rule="evenodd" d="M26.0465 15.0405C25.9689 15.0653 26.1386 15.0802 26.4952 15.0797C26.9267 15.0792 27.0192 15.0687 26.8691 15.0377C26.6207 14.9863 26.2114 14.9877 26.0465 15.0405ZM25.1744 15.1395C25.1555 15.1702 25.2057 15.1769 25.3085 15.1573C25.529 15.1153 25.548 15.0904 25.3596 15.0904C25.2745 15.0904 25.1911 15.1124 25.1744 15.1395ZM27.5921 15.1402C27.7711 15.1976 27.8519 15.1976 27.8165 15.1402C27.7995 15.1128 27.714 15.0926 27.6265 15.0954C27.4746 15.1001 27.4731 15.1021 27.5921 15.1402ZM24.7252 15.24C24.6888 15.2989 24.7375 15.2989 24.8748 15.24C24.9709 15.1987 24.9706 15.197 24.8653 15.1936C24.8052 15.1917 24.7421 15.2125 24.7252 15.24ZM28.1655 15.24C28.3027 15.2989 28.3515 15.2989 28.3151 15.24C28.2981 15.2125 28.2351 15.1917 28.175 15.1936C28.0696 15.197 28.0694 15.1987 28.1655 15.24ZM23.1047 15.7884C23.0088 15.841 22.9527 15.8839 22.9801 15.8839C23.0075 15.8839 23.1085 15.841 23.2045 15.7884C23.3004 15.7358 23.3565 15.6929 23.3291 15.6929C23.3017 15.6929 23.2007 15.7358 23.1047 15.7884ZM29.8857 15.8124C29.8857 15.8314 30.1838 15.9879 30.2203 15.9879C30.2314 15.9879 30.2281 15.9677 30.2127 15.9429C30.1846 15.8974 29.8857 15.778 29.8857 15.8124ZM22.5064 16.1035C21.9981 16.3953 21.9081 16.4545 21.9081 16.4969C21.9081 16.517 21.9923 16.476 22.0951 16.4061C22.1979 16.336 22.4223 16.2001 22.5937 16.104C22.7651 16.0081 22.9053 15.9202 22.9053 15.9088C22.9053 15.8753 22.8967 15.8795 22.5064 16.1035ZM30.3551 16.0497C31.1558 16.5771 31.3285 16.6859 31.3642 16.6858C31.4257 16.6856 30.6931 16.1989 30.459 16.0843C30.3493 16.0306 30.3026 16.015 30.3551 16.0497ZM21.5389 16.7607C21.4593 16.8292 21.416 16.8853 21.4429 16.8853C21.4698 16.8853 21.5445 16.8292 21.609 16.7607C21.7592 16.6009 21.7248 16.6009 21.5389 16.7607ZM32.0091 17.3091C32.5349 17.8317 32.7128 18.0396 33.1405 18.6322L33.2291 18.7551L33.17 18.6304C33.1183 18.5211 32.8986 18.2014 32.8274 18.1318C32.8133 18.1181 32.7431 18.0279 32.6713 17.9314C32.4952 17.6948 31.9031 17.1005 31.6291 16.8853C31.5068 16.7894 31.6779 16.9801 32.0091 17.3091ZM20.7729 17.4642C20.4892 17.7551 20.2694 18.0054 20.2842 18.0203C20.299 18.0352 20.3596 17.9822 20.4188 17.9026C20.478 17.8229 20.7155 17.5728 20.9467 17.3465C21.1779 17.1203 21.3493 16.9352 21.3279 16.9352C21.3063 16.9352 21.0565 17.1733 20.7729 17.4642ZM20.1534 18.1692C20.0381 18.3037 19.7403 18.7649 19.8235 18.6803C19.9221 18.5801 20.277 18.082 20.2498 18.082C20.2379 18.082 20.1947 18.1212 20.1534 18.1692ZM33.3888 19.0293C33.4293 19.0979 33.5047 19.1604 33.5563 19.1683C33.6431 19.1815 33.6426 19.178 33.5503 19.122C33.4955 19.0888 33.4201 19.0262 33.3828 18.9831C33.3366 18.9296 33.3384 18.9442 33.3888 19.0293ZM33.8287 19.1968C33.8875 19.2474 34.1291 19.2777 34.1 19.2307C34.0823 19.2022 34.0094 19.1789 33.938 19.1789C33.8664 19.1789 33.8173 19.187 33.8287 19.1968ZM34.3481 19.3285C34.4853 19.3874 34.5341 19.3874 34.4977 19.3285C34.4807 19.301 34.4176 19.2802 34.3576 19.2821C34.2522 19.2855 34.252 19.2872 34.3481 19.3285ZM35.9187 19.994C35.9187 20.0054 36.0701 20.1118 36.2552 20.2304C36.4403 20.349 36.8498 20.7047 37.1652 21.0208C37.4805 21.3369 37.668 21.5061 37.5819 21.3969C37.1809 20.8887 35.9187 19.8239 35.9187 19.994ZM18.2439 21.1725C18.225 21.2032 18.2752 21.2099 18.3781 21.1903C18.5986 21.1483 18.6175 21.1234 18.4292 21.1234C18.344 21.1234 18.2606 21.1455 18.2439 21.1725ZM17.8446 21.273C17.8082 21.3319 17.8569 21.3319 17.9941 21.273C18.0902 21.2317 18.09 21.23 17.9847 21.2266C17.9246 21.2247 17.8615 21.2456 17.8446 21.273ZM37.794 21.7481C37.8395 21.8176 37.8864 21.8647 37.8983 21.8527C37.9279 21.8232 37.7989 21.622 37.7504 21.622C37.7288 21.622 37.7485 21.6788 37.794 21.7481ZM16.1851 22.0962C15.781 22.3997 15.5317 22.6192 15.5911 22.6192C15.6126 22.6192 15.6909 22.5615 15.765 22.4908C15.8393 22.4203 16.0459 22.2592 16.2241 22.1332C16.6174 21.855 16.6578 21.8212 16.5956 21.8224C16.5695 21.8229 16.3848 21.9461 16.1851 22.0962ZM37.9935 22.0473C38.039 22.1167 38.0858 22.1638 38.0978 22.1519C38.1273 22.1223 37.9983 21.9212 37.9498 21.9212C37.9283 21.9212 37.948 21.978 37.9935 22.0473ZM38.1855 22.3574C38.229 22.4466 38.2753 22.5195 38.2882 22.5195C38.3379 22.5195 38.306 22.4401 38.2081 22.32L38.1065 22.1954L38.1855 22.3574ZM15.1858 23.0208C15.122 23.1016 15.0883 23.1664 15.111 23.1649C15.1336 23.1634 15.2044 23.0961 15.2681 23.0153C15.3319 22.9346 15.3655 22.8697 15.3428 22.8712C15.3203 22.8727 15.2495 22.94 15.1858 23.0208ZM14.9755 23.3048C14.8849 23.4116 14.6785 23.7591 14.6785 23.8051C14.6785 23.832 14.9021 23.5107 15.0513 23.2692C15.1015 23.1878 15.0571 23.2088 14.9755 23.3048ZM38.6146 23.3018C38.6258 23.4313 38.7038 23.5411 38.7073 23.4324C38.7092 23.3723 38.6884 23.3093 38.661 23.2923C38.6335 23.2753 38.6127 23.2796 38.6146 23.3018ZM24.6504 23.4668C24.5289 23.5057 24.5295 23.5068 24.6753 23.5082C24.7576 23.5089 24.8698 23.4904 24.9246 23.4668C25.061 23.4082 24.8333 23.4082 24.6504 23.4668ZM28.0658 23.4668C28.1206 23.4904 28.2328 23.5089 28.3151 23.5082C28.4609 23.5068 28.4615 23.5057 28.34 23.4668C28.1571 23.4082 27.9294 23.4082 28.0658 23.4668ZM24.2266 23.5665C24.1305 23.6078 24.1307 23.6095 24.2361 23.6129C24.2961 23.6148 24.3592 23.5939 24.3762 23.5665C24.4126 23.5076 24.3638 23.5076 24.2266 23.5665ZM38.7407 23.6994C38.7866 23.8905 38.8105 23.9086 38.8105 23.7523C38.8105 23.6808 38.7872 23.6079 38.7587 23.5902C38.7246 23.5691 38.7185 23.6068 38.7407 23.6994ZM23.1714 24.1064C22.9034 24.3183 22.4789 24.7735 22.3999 24.9337C22.3718 24.9908 22.4109 24.9589 22.4869 24.8629C22.6541 24.6515 23.1298 24.1818 23.3317 24.0284C23.4126 23.967 23.4639 23.9165 23.4458 23.9162C23.4277 23.9158 23.3042 24.0014 23.1714 24.1064ZM29.6613 24.0239C29.9658 24.2555 30.3334 24.6298 30.514 24.892C30.7225 25.1947 30.7849 25.2447 30.6489 25C30.5352 24.7956 29.8025 24.0503 29.6364 23.9701C29.5329 23.9203 29.5371 23.9294 29.6613 24.0239ZM38.8417 24.115C38.8822 24.3943 38.9105 24.4341 38.9095 24.2106C38.9091 24.1169 38.8863 24.0065 38.8589 23.9654C38.8241 23.9132 38.8189 23.9582 38.8417 24.115ZM14.4577 24.1724C14.3838 24.3208 14.3514 24.4586 14.4026 24.4074C14.4416 24.3684 14.5816 24.0153 14.5582 24.0153C14.5461 24.0153 14.5008 24.0861 14.4577 24.1724ZM38.9352 25.4113C38.9352 25.963 38.9498 26.3627 38.9676 26.2993C38.9854 26.236 39 25.8364 39 25.4113C39 24.9863 38.9854 24.5867 38.9676 24.5233C38.9498 24.46 38.9352 24.8596 38.9352 25.4113ZM14.2989 24.5513C14.2838 24.5992 14.2509 24.69 14.2256 24.7531C14.2004 24.816 14.1817 24.9058 14.1841 24.9525C14.1868 25.0063 14.2037 24.9918 14.2301 24.9127C14.3337 24.6031 14.3706 24.464 14.3494 24.464C14.3367 24.464 14.314 24.5033 14.2989 24.5513ZM14.1124 25.1458C14.0978 25.1958 14.0743 25.349 14.0603 25.4861C14.0376 25.7066 14.0426 25.6979 14.1027 25.4113C14.1663 25.1088 14.1724 24.941 14.1124 25.1458ZM30.7333 25.2477C30.7333 25.2796 30.7557 25.3196 30.7831 25.3365C30.8106 25.3535 30.833 25.4096 30.833 25.4612C30.833 25.5128 30.8578 25.5704 30.8882 25.5891C30.9261 25.6126 30.9318 25.5862 30.9064 25.5048C30.8605 25.3579 30.7333 25.1689 30.7333 25.2477ZM24.8706 25.4801C24.4424 25.5976 24.0665 25.9634 23.9133 26.412C23.8691 26.5418 23.8526 27.207 23.8526 28.8652V31.1405L22.5598 31.1553C21.1208 31.1717 21.1276 31.1702 20.8735 31.5436C20.5836 31.9696 20.7102 32.2525 21.6158 33.2005C21.9898 33.5921 22.3682 33.9909 22.4569 34.0869C22.5456 34.1829 22.9913 34.6532 23.4473 35.132C23.9034 35.6107 24.4784 36.215 24.7252 36.4749C26.6465 38.4984 26.3317 38.5386 28.7643 35.9589C29.2028 35.4938 29.6513 35.021 29.761 34.9082C29.8707 34.7953 30.2889 34.3568 30.6905 33.9337C31.092 33.5107 31.5344 33.0461 31.6737 32.9014C32.2152 32.3386 32.3274 32.0929 32.2034 31.7414C32.0082 31.1881 31.8756 31.1452 30.3609 31.1452H29.1378V28.854C29.1378 27.2733 29.1204 26.5196 29.0817 26.4234C28.7151 25.5116 28.4609 25.414 26.4703 25.4201C25.6086 25.4227 24.9963 25.4457 24.8706 25.4801ZM28.34 25.629C29.0131 25.9875 29.0087 25.968 29.038 28.7769L29.063 31.1701L30.3344 31.1951C31.1254 31.2105 31.6529 31.2414 31.7305 31.2767C32.0337 31.4148 32.2142 31.7802 32.1497 32.1247C32.1082 32.3459 31.7514 32.7437 29.4069 35.1833C29.1299 35.4715 28.6934 35.9317 28.437 36.2059C28.1805 36.4802 27.709 36.9682 27.3892 37.2904L26.8076 37.8762H26.4948H26.1821L25.7028 37.3901C25.2515 36.9322 23.9865 35.6078 23.0508 34.6132C22.8199 34.3679 22.4038 33.9304 22.1261 33.6409C20.8416 32.3023 20.8397 32.2998 20.8397 31.9629C20.8397 31.3195 21.0599 31.2263 22.656 31.1951L23.9274 31.1701L23.9524 28.7769C23.9878 25.3734 23.8755 25.5116 26.5949 25.527C28.0214 25.5351 28.1815 25.5445 28.34 25.629ZM21.9865 25.7889C21.9681 25.8619 21.9643 25.9329 21.978 25.9466C21.9918 25.9603 22.0179 25.9118 22.0364 25.8388C22.0547 25.7656 22.0584 25.6947 22.0447 25.681C22.031 25.6672 22.0048 25.7157 21.9865 25.7889ZM30.9595 25.7853C30.975 25.8675 31.01 26.0575 31.0373 26.2073C31.0647 26.3572 31.0997 26.4918 31.1152 26.5065C31.1647 26.5534 31.0729 25.9967 31.0008 25.8127C30.9376 25.6515 30.9338 25.6492 30.9595 25.7853ZM14 26.4085C14 26.7787 14.0079 26.9302 14.0175 26.7451C14.027 26.56 14.027 26.2571 14.0175 26.072C14.0079 25.8869 14 26.0383 14 26.4085ZM21.9161 26.0907C21.9117 26.149 21.8963 26.2724 21.8818 26.3649C21.8578 26.519 21.8601 26.5228 21.9091 26.4103C21.9387 26.3427 21.954 26.2193 21.9434 26.136C21.9319 26.0467 21.9208 26.0281 21.9161 26.0907ZM38.8677 26.5581C38.8629 26.6267 38.8466 26.7388 38.8314 26.8074C38.8075 26.9149 38.8115 26.9198 38.86 26.8437C38.8911 26.7952 38.9074 26.683 38.8964 26.5944C38.8808 26.4692 38.8745 26.4611 38.8677 26.5581ZM31.1537 27.9292C31.1537 28.6148 31.1608 28.9021 31.1694 28.5678C31.178 28.2335 31.178 27.6726 31.1694 27.3213C31.1608 26.9701 31.1538 27.2437 31.1537 27.9292ZM38.6667 27.3393C38.6636 27.3713 38.6465 27.4386 38.6287 27.4889C38.6036 27.5598 38.6103 27.5674 38.6583 27.5231C38.6924 27.4919 38.7094 27.4245 38.6964 27.3736C38.6833 27.3227 38.6699 27.3072 38.6667 27.3393ZM14.0859 27.4657C14.0828 27.5398 14.1002 27.652 14.1248 27.715C14.1493 27.778 14.1982 27.9305 14.2332 28.0539C14.2682 28.1773 14.3151 28.2992 14.3373 28.3248C14.3594 28.3503 14.3536 28.2942 14.3245 28.2001C14.2424 27.9361 14.1763 27.6969 14.132 27.5054C14.0961 27.3501 14.091 27.3458 14.0859 27.4657ZM14.3905 28.4528C14.474 28.6837 14.607 28.9514 14.6383 28.9514C14.6581 28.9514 14.616 28.8336 14.5447 28.6896C14.4151 28.4278 14.3394 28.3118 14.3905 28.4528ZM14.6803 29.0262C14.6806 29.0536 14.7266 29.1321 14.7827 29.2007C14.8504 29.2834 14.8673 29.2918 14.833 29.2256C14.749 29.0629 14.68 28.9728 14.6803 29.0262ZM37.5513 29.3627C37.4261 29.5067 37.3327 29.6337 37.3438 29.645C37.3657 29.6672 37.5589 29.4582 37.7199 29.2381C37.8806 29.0182 37.7979 29.0794 37.5513 29.3627ZM21.0356 29.2032C20.9684 29.2337 21.0174 29.2387 21.1851 29.2182C21.3223 29.2015 21.4438 29.1796 21.4553 29.1694C21.4989 29.1304 21.1304 29.16 21.0356 29.2032ZM31.5351 29.1694C31.5466 29.1796 31.6681 29.2015 31.8053 29.2182C31.973 29.2387 32.022 29.2337 31.9548 29.2032C31.86 29.16 31.4915 29.1304 31.5351 29.1694ZM15.1682 29.7308C15.4295 30.1122 16.1883 30.7584 16.6728 31.0122L16.8474 31.1037L16.7227 31.0009C16.6542 30.9444 16.5796 30.8976 16.5569 30.897C16.4575 30.8943 15.7447 30.3056 15.4186 29.9568C15.2221 29.7466 15.1094 29.6449 15.1682 29.7308ZM19.5444 29.9781C19.362 30.1613 19.2209 30.3194 19.2309 30.3294C19.2407 30.3393 19.3986 30.1979 19.5813 30.015C19.7641 29.8323 19.9053 29.6742 19.8949 29.6637C19.8844 29.6534 19.7268 29.7949 19.5444 29.9781ZM33.078 29.6844C33.0788 29.7064 33.1517 29.778 33.2401 29.8437C33.3285 29.9094 33.4681 30.0487 33.5503 30.153C33.6326 30.2574 33.7177 30.3438 33.7397 30.3451C33.7615 30.3464 33.709 30.2598 33.6229 30.1526C33.4559 29.9448 33.0758 29.6181 33.078 29.6844ZM36.8909 30.0794C36.6111 30.3397 36.6081 30.3446 36.8462 30.1546C37.0789 29.9689 37.2545 29.7972 37.2087 29.8002C37.1984 29.8009 37.0555 29.9265 36.8909 30.0794ZM36.2446 30.5719C36.0811 30.6901 35.7829 30.8702 35.582 30.9722C35.3809 31.0743 35.2261 31.1673 35.2378 31.179C35.2788 31.22 36.3055 30.6277 36.5627 30.4145C36.7143 30.2889 36.467 30.4113 36.2446 30.5719ZM18.8417 31.1452C18.823 31.2042 18.8189 31.2636 18.8326 31.2773C18.8464 31.291 18.8729 31.254 18.8916 31.1951C18.9103 31.1361 18.9144 31.0766 18.9007 31.0629C18.887 31.0492 18.8604 31.0862 18.8417 31.1452ZM34.4229 31.4444C34.3564 31.4874 34.3564 31.4927 34.4229 31.4927C34.464 31.4927 34.5313 31.4709 34.5725 31.4444C34.6389 31.4013 34.6389 31.396 34.5725 31.396C34.5313 31.396 34.464 31.4178 34.4229 31.4444ZM18.7539 31.539C18.7263 31.644 18.7038 31.6526 18.5332 31.6231C18.3964 31.5994 18.3641 31.6045 18.4179 31.6412C18.6065 31.7696 18.8654 31.665 18.8053 31.4847C18.7939 31.4502 18.7707 31.4746 18.7539 31.539ZM17.9692 31.5441C18.0103 31.5706 18.0776 31.5924 18.1188 31.5924C18.1852 31.5924 18.1852 31.5871 18.1188 31.5441C18.0776 31.5175 18.0103 31.4957 17.9692 31.4957C17.9028 31.4957 17.9028 31.5011 17.9692 31.5441Z" fill="#B8ECF4"/>
</svg>
