<svg width="53" height="53" viewBox="0 0 53 53" fill="none" xmlns="http://www.w3.org/2000/svg">
<rect width="53" height="53" rx="12" fill="#E4FFF4"/>
<g clip-path="url(#clip0_1051_15594)">
<path d="M15.0444 34.5976L27.4705 41.7722L39.8965 34.5976V20.2485L27.4705 13.074L15.0444 20.2485V34.5976Z" fill="#469EA2"/>
<path d="M26.1982 14.7898L17.1745 19.9969C17.1893 20.1593 17.1893 20.3227 17.1745 20.4851L26.1834 25.6922C26.9438 25.1299 27.9822 25.1299 28.7426 25.6922L37.7515 20.4851C37.7367 20.3227 37.7367 20.1593 37.7515 19.9969L28.7574 14.7898C27.997 15.352 26.9586 15.352 26.1982 14.7898ZM38.6242 21.92L29.6006 27.1862C29.7009 28.1232 29.1876 29.0184 28.3284 29.4052L28.3432 39.7602C28.4891 39.8246 28.6279 39.9039 28.7574 39.9969L37.7662 34.7898C37.6659 33.8529 38.1792 32.9576 39.0384 32.5709V22.1567C38.8942 22.089 38.7557 22.0099 38.6242 21.92ZM16.3165 21.9791C16.187 22.0722 16.0482 22.1515 15.9023 22.2158V32.63C16.7734 33.0037 17.2922 33.9085 17.1745 34.849L26.1834 40.0561C26.3129 39.963 26.4517 39.8837 26.5976 39.8194V29.4052C25.7266 29.0315 25.2078 28.1267 25.3254 27.1862L16.3165 21.9791Z" fill="#6ACAD1"/>
<path d="M27.4705 14.6272L38.5799 21.0473V33.8727L27.4705 40.2929L16.361 33.8727V21.0325L27.4705 14.6272ZM27.4705 13.1035L15.0444 20.2781V34.6272L27.4705 41.8017L39.8965 34.6272V20.2781L27.4705 13.1035Z" fill="#469EA2"/>
<path d="M27.5592 29.8639H27.3817C26.7653 29.8654 26.1736 29.6213 25.7377 29.1854C25.3018 28.7495 25.0576 28.1578 25.0592 27.5414V27.3639C25.0576 26.7474 25.3018 26.1558 25.7377 25.7199C26.1736 25.284 26.7653 25.0398 27.3817 25.0414H27.5592C28.1757 25.0398 28.7673 25.284 29.2032 25.7199C29.6391 26.1558 29.8833 26.7474 29.8817 27.3639V27.5414C29.8833 28.1578 29.6391 28.7495 29.2032 29.1854C28.7673 29.6213 28.1757 29.8654 27.5592 29.8639ZM27.5592 39.4053H27.3817C26.5415 39.4028 25.7658 39.8557 25.3551 40.5887L27.4705 41.8017L29.5859 40.5887C29.1751 39.8557 28.3995 39.4028 27.5592 39.4053ZM39.9113 32.2307H39.8225C39.2061 32.2292 38.6144 32.4733 38.1786 32.9092C37.7427 33.3451 37.4985 33.9368 37.5001 34.5532V34.7307C37.4979 35.125 37.6 35.5128 37.7959 35.855L39.9113 34.6272V32.2307ZM37.7959 19.0651C37.6017 19.4079 37.4998 19.7953 37.5 20.1893V20.3668C37.4985 20.9833 37.7427 21.5749 38.1786 22.0108C38.6144 22.4467 39.2061 22.6909 39.8225 22.6893H39.9113V20.2781L37.7959 19.0651ZM27.4705 13.1035L25.3551 14.3165C25.7638 15.0534 26.539 15.5118 27.3817 15.5148H27.5592C28.3995 15.5173 29.1751 15.0644 29.5859 14.3313L27.4705 13.1035ZM17.1598 19.0503L15.0444 20.2781V22.6893H15.1332C15.7496 22.6909 16.3413 22.4467 16.7772 22.0108C17.2131 21.5749 17.4573 20.9833 17.4557 20.3668V20.1893C17.4507 19.7913 17.3491 19.4004 17.1598 19.0503ZM15.1332 32.2307H15.0444V34.6272L17.1598 35.855C17.354 35.5121 17.4559 35.1248 17.4557 34.7307V34.5532C17.4573 33.9368 17.2131 33.3451 16.7772 32.9092C16.3413 32.4733 15.7496 32.2292 15.1332 32.2307Z" fill="#469EA2"/>
<path d="M27.4705 41.8759V27.512L15.0444 20.3374V34.7013L27.4705 41.8759Z" fill="#083B54" fill-opacity="0.15"/>
<path d="M39.9114 34.5681V20.219L27.4854 27.3936V41.7575L39.9114 34.5681Z" fill="#083B54" fill-opacity="0.05"/>
</g>
<defs>
<clipPath id="clip0_1051_15594">
<rect width="25" height="28.9941" fill="white" transform="translate(15 13)"/>
</clipPath>
</defs>
</svg>
