<svg width="19" height="25" viewBox="0 0 19 25" fill="none" xmlns="http://www.w3.org/2000/svg">
<path fill-rule="evenodd" clip-rule="evenodd" d="M2.4135 3.23311C1.19743 3.47562 0.335578 4.35927 0.0957928 5.60949C-0.0345183 6.28893 -0.0306713 21.9016 0.0999604 22.5034C0.284768 23.3546 0.896092 24.3627 1.22772 24.3627C1.26298 24.3627 1.29183 24.3865 1.29183 24.4155C1.29183 24.4804 1.8158 24.7474 1.94323 24.7474C1.99404 24.7474 2.07162 24.7835 2.1157 24.8276C2.22549 24.9374 16.3861 24.9455 16.6213 24.8359C16.706 24.7965 16.9268 24.6977 17.1119 24.6166C17.297 24.5355 17.4485 24.4451 17.4485 24.416C17.4485 24.3866 17.4785 24.3627 17.5152 24.3627C17.8665 24.3627 18.4764 23.3098 18.6663 22.3752C18.759 21.9194 18.721 5.88149 18.6263 5.44921C18.3474 4.17703 17.0507 3.1424 15.7334 3.14111C15.6738 3.14111 15.6533 3.33698 15.6533 3.90727C15.6533 5.26328 15.4667 5.77683 14.6791 6.58722C14.5336 6.73709 14.3757 6.85971 14.3286 6.85971C14.2814 6.85971 14.2428 6.88535 14.2428 6.91693C14.2428 6.94834 14.1638 6.99386 14.0671 7.01807C13.9705 7.04243 13.8751 7.08859 13.8552 7.12081C13.7307 7.32245 5.95627 7.50453 5.55539 7.31523C5.48487 7.28189 5.31417 7.23894 5.17584 7.21971C5.03768 7.20047 4.90753 7.15719 4.88669 7.12353C4.86585 7.08987 4.76984 7.04243 4.67319 7.01807C4.57654 6.99386 4.49752 6.94834 4.49752 6.91693C4.49752 6.88535 4.46146 6.85955 4.41738 6.85939C4.3733 6.85923 4.25068 6.77684 4.14489 6.67618C3.32135 5.89319 3.08958 5.29052 3.08798 3.92651C3.08686 3.02715 3.14536 3.08726 2.4135 3.23311ZM10.0825 9.4935C10.4989 9.78986 10.6439 11.1194 10.3136 11.6107C9.86512 12.2775 8.92265 12.0643 8.81766 11.2722L8.77663 10.963H8.20778H7.63909V13.2711V15.5792H7.83368C8.02073 15.5792 8.2735 15.7032 8.46904 15.8908C8.68735 16.1003 8.63814 16.7076 8.38281 16.9557L8.14959 17.182H6.77131H5.39287L5.17825 16.9611C4.657 16.4243 5.00402 15.5792 5.74549 15.5792H5.97213V13.2711V10.963H5.331H4.68986V11.2428C4.68986 12.1052 3.5185 12.319 3.1662 11.5209C2.93795 11.0039 3.09263 9.85173 3.43275 9.53645L3.62301 9.36014H6.75913C9.83226 9.36014 9.8991 9.36286 10.0825 9.4935ZM15.3124 9.53645C15.7269 9.91088 15.7439 10.3662 15.3573 10.7416L15.1293 10.963H13.5C12.535 10.963 11.8706 10.9386 11.8706 10.9032C11.8706 10.8703 11.8191 10.8271 11.7563 10.807C11.4611 10.7134 11.3242 10.0902 11.5242 9.75155C11.7384 9.38883 11.8248 9.37232 13.542 9.36607L15.1173 9.36014L15.3124 9.53645ZM15.3744 12.6715C15.8073 13.1049 15.6801 13.7867 15.1213 14.0273C14.7511 14.1868 12.0567 14.1308 11.8009 13.9584C11.3136 13.63 11.2835 13.0323 11.7345 12.6464C11.9895 12.4285 15.1532 12.4501 15.3744 12.6715ZM15.1555 15.6611C15.723 15.9555 15.8046 16.6994 15.3068 17.0405C15.0223 17.2355 11.9985 17.2588 11.7725 17.0677C11.2731 16.6455 11.2992 16.0259 11.83 15.7021C12.0831 15.5478 14.8708 15.5135 15.1555 15.6611ZM15.3266 18.8857C15.7459 19.2385 15.6697 20.1954 15.2223 20.1954C15.1773 20.1954 15.1404 20.2242 15.1404 20.2595C15.1404 20.3018 13.1742 20.3236 9.37016 20.3236C5.56613 20.3236 3.59993 20.3018 3.59993 20.2595C3.59993 20.2242 3.56306 20.1954 3.51802 20.1954C3.0798 20.1954 2.98604 19.3083 3.38451 18.9325L3.60906 18.7207H9.36984H15.1306L15.3266 18.8857ZM15.0668 21.3467C15.7916 21.5546 15.842 22.4985 15.1466 22.8439C14.8116 23.0103 3.92867 23.0103 3.59368 22.8439C2.90317 22.5009 2.96055 21.5568 3.68504 21.3398C3.9136 21.2713 14.8274 21.2779 15.0668 21.3467Z" fill="#A2A7F7"/>
<path fill-rule="evenodd" clip-rule="evenodd" d="M8.72004 0.120434C8.28246 0.213879 7.7415 0.535088 7.35057 0.933715C6.9949 1.2966 6.86956 1.48622 6.69036 1.93293L6.6224 2.10219L5.64002 2.12543C4.23881 2.15845 4.17694 2.22545 4.17694 3.71208C4.17694 4.93425 4.37489 5.50743 4.93509 5.90637C5.4496 6.27294 5.57398 6.28352 9.37015 6.28352C13.1663 6.28352 13.2907 6.27294 13.8052 5.90637C14.3654 5.50743 14.5634 4.93425 14.5634 3.71208C14.5634 2.22545 14.5015 2.15845 13.1003 2.12543L12.1179 2.10219L12.0499 1.93293C11.5122 0.592311 10.1031 -0.174489 8.72004 0.120434ZM2.15736 3.20607C2.07658 3.24085 2.06472 3.2612 2.12531 3.2612C2.1782 3.2612 2.27918 3.23636 2.3497 3.20607C2.43049 3.17128 2.44235 3.15093 2.38176 3.15093C2.32886 3.15093 2.22789 3.17577 2.15736 3.20607ZM16.3906 3.20607C16.4611 3.23636 16.5621 3.2612 16.615 3.2612C16.6756 3.2612 16.6637 3.24085 16.5829 3.20607C16.5124 3.17577 16.4114 3.15093 16.3585 3.15093C16.298 3.15093 16.3098 3.17128 16.3906 3.20607ZM0.0462571 5.35852C0.0225351 5.45245 0.0156428 5.54173 0.0307095 5.55679C0.0459365 5.57186 0.0775142 5.50743 0.101076 5.41334C0.124798 5.31941 0.13169 5.23013 0.116624 5.21507C0.101397 5.2 0.0698189 5.26444 0.0462571 5.35852ZM4.88219 7.07437C4.88219 7.09087 4.97532 7.13688 5.08912 7.17663C5.20292 7.21622 5.26784 7.22231 5.23338 7.19009C5.16029 7.12165 4.88219 7.03013 4.88219 7.07437ZM13.6177 7.11892C13.4031 7.20532 13.4431 7.24908 13.6658 7.1715C13.7716 7.13463 13.8581 7.0928 13.8581 7.07869C13.8581 7.0407 13.7801 7.05369 13.6177 7.11892ZM7.49483 7.29331C8.52626 7.30325 10.214 7.30325 11.2455 7.29331C12.2769 7.28338 11.433 7.2752 9.37015 7.2752C7.30729 7.2752 6.4634 7.28338 7.49483 7.29331ZM3.68615 9.41003C3.64544 9.43599 5.03478 9.45715 6.77355 9.45715C8.51231 9.45715 9.90165 9.43599 9.86094 9.41003C9.82023 9.38406 8.43089 9.3629 6.77355 9.3629C5.11621 9.3629 3.72686 9.38406 3.68615 9.41003ZM11.9767 9.40906C11.9603 9.43551 12.6629 9.45715 13.5377 9.45715C14.4125 9.45715 15.095 9.43599 15.0542 9.41003C14.9564 9.34784 12.015 9.34687 11.9767 9.40906ZM10.3639 10.6756C10.3639 11.0744 10.3851 11.3673 10.411 11.3265C10.437 11.2857 10.4582 10.9927 10.4582 10.6753C10.4582 10.3579 10.437 10.0651 10.411 10.0246C10.3851 9.984 10.3639 10.277 10.3639 10.6756ZM6.00114 13.2719C6.00114 14.559 6.00963 15.0855 6.02005 14.442C6.03063 13.7985 6.03063 12.7454 6.02005 12.1018C6.00963 11.4583 6.00114 11.9848 6.00114 13.2719ZM3.80829 11.9698C3.87 11.9858 3.97098 11.9858 4.03269 11.9698C4.0944 11.9536 4.04391 11.9404 3.92049 11.9404C3.79707 11.9404 3.74658 11.9536 3.80829 11.9698ZM9.51441 11.9698C9.57612 11.9858 9.6771 11.9858 9.73881 11.9698C9.80052 11.9536 9.75003 11.9404 9.62661 11.9404C9.50319 11.9404 9.4527 11.9536 9.51441 11.9698ZM11.4367 13.2719C11.4367 13.3953 11.4498 13.4458 11.466 13.3841C11.4821 13.3224 11.4821 13.2214 11.466 13.1597C11.4498 13.098 11.4367 13.1485 11.4367 13.2719ZM4.96121 16.4135C4.96121 16.5369 4.97436 16.5874 4.99055 16.5257C5.00657 16.464 5.00657 16.363 4.99055 16.3013C4.97436 16.2396 4.96121 16.2901 4.96121 16.4135ZM11.4367 16.4135C11.4367 16.5369 11.4498 16.5874 11.466 16.5257C11.4821 16.464 11.4821 16.363 11.466 16.3013C11.4498 16.2396 11.4367 16.2901 11.4367 16.4135ZM6.56518 20.3084C8.10791 20.318 10.6324 20.318 12.1751 20.3084C13.7179 20.2988 12.4556 20.2909 9.37015 20.2909C6.28468 20.2909 5.02244 20.2988 6.56518 20.3084ZM18.6346 22.6325C18.6105 22.7083 18.6052 22.7848 18.6229 22.8024C18.6405 22.82 18.6747 22.7724 18.6987 22.6966C18.7227 22.6208 18.728 22.5444 18.7104 22.5267C18.6928 22.5091 18.6586 22.5567 18.6346 22.6325ZM6.53312 22.8729C8.09349 22.8826 10.6468 22.8826 12.2072 22.8729C13.7676 22.8633 12.4909 22.8555 9.37015 22.8555C6.24942 22.8555 4.97275 22.8633 6.53312 22.8729ZM17.8937 24.0911L17.6729 24.3315L17.9133 24.1107C18.0455 23.989 18.1537 23.8808 18.1537 23.8702C18.1537 23.8212 18.0996 23.8673 17.8937 24.0911ZM9.37015 24.9406L2.41382 24.9735L9.3381 24.9847C13.1464 24.9908 16.3201 24.9709 16.3906 24.9406C16.4611 24.9103 16.4756 24.8904 16.4227 24.8965C16.3698 24.9026 13.1961 24.9225 9.37015 24.9406Z" fill="#E4CCFF"/>
<path fill-rule="evenodd" clip-rule="evenodd" d="M2.34971 3.20935C2.26027 3.24974 2.29922 3.25551 2.47794 3.22842C2.61899 3.20694 2.74641 3.17873 2.76116 3.16575C2.81614 3.11718 2.47281 3.15357 2.34971 3.20935ZM3.11218 3.97567C3.11218 4.45171 3.12228 4.64646 3.13462 4.40844C3.14696 4.17041 3.14696 3.78092 3.13462 3.5429C3.12228 3.30488 3.11218 3.49962 3.11218 3.97567ZM15.6144 3.97567C15.6144 4.45171 15.6244 4.64646 15.6368 4.40844C15.6491 4.17041 15.6491 3.78092 15.6368 3.5429C15.6244 3.30488 15.6144 3.49962 15.6144 3.97567ZM15.9792 3.16575C15.9939 3.17873 16.1213 3.20694 16.2624 3.22842C16.4411 3.25551 16.48 3.24974 16.3906 3.20935C16.2675 3.15357 15.9242 3.11718 15.9792 3.16575ZM3.2901 5.5176C3.3276 5.62531 3.37024 5.70145 3.38466 5.68686C3.41656 5.65513 3.29555 5.32206 3.25227 5.32206C3.2356 5.32206 3.25259 5.41005 3.2901 5.5176ZM0.0505925 5.52786C0.0289541 5.60864 0.0138863 5.73238 0.0169317 5.80291C0.0199771 5.87343 0.0488297 5.81862 0.0810469 5.68109C0.143558 5.4147 0.11695 5.28038 0.0505925 5.52786ZM18.6099 5.5144C18.6129 5.56729 18.6384 5.68269 18.6666 5.77085L18.7179 5.93114L18.7234 5.77085C18.7264 5.68269 18.7008 5.56729 18.6666 5.5144C18.6113 5.42896 18.6051 5.42896 18.6099 5.5144ZM5.56533 7.32561C5.6038 7.3878 13.0971 7.38684 13.1949 7.32465C13.2356 7.29868 11.5289 7.27752 9.40222 7.27752C7.27556 7.27752 5.54898 7.29916 5.56533 7.32561ZM3.11122 10.7076C3.11122 11.1131 3.12164 11.279 3.13446 11.0763C3.14712 10.8735 3.14712 10.5417 3.13446 10.339C3.12164 10.1362 3.11122 10.3021 3.11122 10.7076ZM15.6041 10.1947C15.6041 10.3181 15.6172 10.3686 15.6334 10.3069C15.6495 10.2452 15.6495 10.1442 15.6334 10.0825C15.6172 10.0208 15.6041 10.0713 15.6041 10.1947ZM7.51086 13.2709V15.5778L7.65512 15.6072C7.99957 15.6774 8.14591 15.6862 8.11417 15.6351C8.09558 15.6049 7.98098 15.5802 7.85964 15.5802H7.63909V13.2722C7.63909 11.7762 7.61649 10.9641 7.57498 10.9641C7.53346 10.9641 7.51086 11.7757 7.51086 13.2709ZM8.80804 11.1564C8.80804 11.2798 8.82118 11.3303 8.83737 11.2686C8.8534 11.2069 8.8534 11.1059 8.83737 11.0442C8.82118 10.9825 8.80804 11.033 8.80804 11.1564ZM3.21733 11.6533C3.21829 11.6797 3.29763 11.7568 3.39364 11.8245L3.56787 11.9476L3.41239 11.7764C3.24906 11.5965 3.21396 11.5743 3.21733 11.6533ZM3.70603 12.0059C3.72238 12.0324 3.81887 12.054 3.92049 12.054C4.02211 12.054 4.11861 12.0324 4.13495 12.0059C4.1513 11.9795 4.05481 11.9578 3.92049 11.9578C3.78618 11.9578 3.68969 11.9795 3.70603 12.0059ZM15.6041 13.2722C15.6041 13.3956 15.6172 13.4461 15.6334 13.3844C15.6495 13.3226 15.6495 13.2217 15.6334 13.16C15.6172 13.0982 15.6041 13.1487 15.6041 13.2722ZM12.7558 14.0894C13.1899 14.1005 13.8823 14.1005 14.2946 14.0894C14.7068 14.0782 14.3518 14.0691 13.5055 14.0692C12.6592 14.0692 12.3218 14.0784 12.7558 14.0894ZM5.4355 15.6309C5.41819 15.6588 5.51019 15.6711 5.64002 15.6583C5.99489 15.6234 6.03705 15.591 5.73555 15.5854C5.58777 15.5825 5.45265 15.603 5.4355 15.6309ZM12.5117 15.625C13.8636 15.6706 15.1258 15.6722 15.0986 15.6283C15.0822 15.6019 14.3707 15.5862 13.5177 15.5934C12.6646 15.6006 12.212 15.6149 12.5117 15.625ZM15.6041 16.4137C15.6041 16.5371 15.6172 16.5876 15.6334 16.5259C15.6495 16.4642 15.6495 16.3632 15.6334 16.3015C15.6172 16.2398 15.6041 16.2903 15.6041 16.4137ZM3.10192 19.4912C3.10192 19.6146 3.11507 19.6651 3.13126 19.6034C3.14728 19.5417 3.14728 19.4407 3.13126 19.379C3.11507 19.3173 3.10192 19.3678 3.10192 19.4912ZM6.56518 21.3345C8.10792 21.3441 10.6324 21.3441 12.1751 21.3345C13.7179 21.3248 12.4556 21.317 9.37016 21.317C6.28469 21.317 5.02245 21.3248 6.56518 21.3345ZM3.10192 22.1198C3.10192 22.2433 3.11507 22.2938 3.13126 22.232C3.14728 22.1703 3.14728 22.0694 3.13126 22.0076C3.11507 21.9459 3.10192 21.9964 3.10192 22.1198ZM15.6041 22.1198C15.6041 22.2433 15.6172 22.2938 15.6334 22.232C15.6495 22.1703 15.6495 22.0694 15.6334 22.0076C15.6172 21.9459 15.6041 21.9964 15.6041 22.1198ZM0.0169317 22.3763C0.0138863 22.4645 0.0395324 22.5799 0.0736729 22.6328C0.152853 22.7552 0.152853 22.6235 0.0736729 22.3763L0.0223808 22.216L0.0169317 22.3763ZM18.6392 22.413C18.6155 22.5069 18.6107 22.5981 18.6283 22.6158C18.646 22.6334 18.6796 22.571 18.7034 22.4771C18.7269 22.383 18.7317 22.2918 18.7141 22.2742C18.6965 22.2566 18.6628 22.3189 18.6392 22.413ZM3.70603 22.9052C3.72238 22.9317 6.27122 22.9533 9.37016 22.9533C12.4691 22.9533 15.0179 22.9317 15.0343 22.9052C15.0506 22.8788 12.5018 22.8572 9.37016 22.8572C6.23853 22.8572 3.68969 22.8788 3.70603 22.9052ZM0.172728 23.0335C0.196771 23.1128 0.242772 23.2059 0.274989 23.2404C0.307207 23.2749 0.301116 23.2099 0.261526 23.0961C0.180261 22.8632 0.105248 22.8103 0.172728 23.0335ZM18.485 23.0783C18.4475 23.1859 18.4305 23.2739 18.4472 23.2739C18.4905 23.2739 18.6115 22.9408 18.5796 22.9091C18.5652 22.8945 18.5225 22.9706 18.485 23.0783Z" fill="#A2A7F7"/>
<path fill-rule="evenodd" clip-rule="evenodd" d="M8.70689 0.0480858C8.69054 0.0745327 8.98899 0.0961703 9.37015 0.0961703C9.7513 0.0961703 10.0498 0.0745327 10.0334 0.0480858C10.0171 0.0216389 9.7186 0 9.37015 0C9.02169 0 8.72324 0.0216389 8.70689 0.0480858ZM8.2161 0.213339C7.82036 0.421387 7.75801 0.460818 7.78381 0.486623C7.79888 0.50169 7.9816 0.427639 8.18997 0.322011C8.39834 0.216224 8.52545 0.12967 8.47255 0.129509C8.41966 0.129189 8.30426 0.167016 8.2161 0.213339ZM10.5503 0.322011C10.7587 0.427639 10.9419 0.501209 10.9574 0.485661C10.9943 0.448796 10.3613 0.127907 10.2538 0.129029C10.2086 0.12951 10.342 0.216224 10.5503 0.322011ZM7.35024 0.812C7.18515 0.981902 7.0207 1.17569 6.98496 1.24236C6.94921 1.3092 7.09716 1.18274 7.31354 0.961705C7.52992 0.740513 7.69437 0.54673 7.67883 0.531182C7.66328 0.515795 7.5155 0.642099 7.35024 0.812ZM11.0371 0.538075C11.0371 0.552019 11.2133 0.743397 11.4287 0.963628C11.6441 1.1837 11.7892 1.30567 11.7513 1.23483C11.6295 1.00739 11.0371 0.429402 11.0371 0.538075ZM6.61326 1.92341C6.61326 2.04587 6.57046 2.05164 5.65155 2.05164C5.12261 2.05164 4.68985 2.07328 4.68985 2.09972C4.68969 2.20567 6.57655 2.11303 6.66134 2.00291C6.75799 1.87741 6.7644 1.79518 6.67737 1.79518C6.64211 1.79518 6.61326 1.85289 6.61326 1.92341ZM11.9988 1.84712C11.9988 2.06574 12.1618 2.10694 13.1048 2.12745C13.6249 2.13867 14.0504 2.12617 14.0504 2.09972C14.0504 2.07328 13.6177 2.05164 13.0887 2.05164C12.1698 2.05164 12.127 2.04587 12.127 1.92341C12.127 1.85289 12.0982 1.79518 12.0629 1.79518C12.0277 1.79518 11.9988 1.81859 11.9988 1.84712ZM4.19441 2.53938C4.10048 2.76939 4.13478 4.98516 4.23368 5.0778C4.30853 5.14801 4.31494 5.13583 4.27439 5.00087C4.19024 4.72069 4.1585 2.99395 4.23272 2.72563C4.30548 2.46213 4.27888 2.33278 4.19441 2.53938ZM14.4787 2.5966C14.5472 2.84697 14.5468 4.57307 14.4782 4.9047C14.4342 5.1174 14.4396 5.14689 14.5103 5.0778C14.6328 4.95791 14.6332 2.60847 14.5108 2.48777C14.4407 2.41869 14.4351 2.4376 14.4787 2.5966ZM17.737 3.8574C17.9486 4.05647 18.1327 4.20874 18.1462 4.1956C18.1831 4.15986 17.7647 3.75834 17.5446 3.6181C17.4389 3.55062 17.5254 3.65833 17.737 3.8574ZM0.786925 3.94812C0.667834 4.0717 0.583204 4.18534 0.598752 4.20089C0.614299 4.21644 0.739161 4.11434 0.876204 3.97393C1.01341 3.83352 1.09804 3.71972 1.06438 3.72116C1.03088 3.7226 0.905856 3.8247 0.786925 3.94812ZM3.19263 4.80853C3.21299 5.00247 3.25466 5.20443 3.28544 5.25732C3.34394 5.35798 3.30932 5.09383 3.20978 4.6803C3.16891 4.51056 3.16474 4.54181 3.19263 4.80853ZM15.494 4.82456C15.4707 4.97442 15.4379 5.15474 15.4212 5.22527C15.3975 5.3248 15.404 5.33202 15.4499 5.25732C15.5156 5.15073 15.6147 4.55207 15.5667 4.55207C15.5501 4.55207 15.5172 4.67469 15.494 4.82456ZM18.587 5.16211C18.631 5.39212 18.7131 5.41665 18.6798 5.18984C18.6645 5.08582 18.6306 5.00087 18.6041 5.00087C18.5778 5.00087 18.57 5.07348 18.587 5.16211ZM4.30516 5.22671C4.30516 5.30509 4.5847 5.70516 4.63984 5.70564C4.66516 5.70596 4.61307 5.59873 4.52395 5.4673C4.33113 5.18311 4.30516 5.15458 4.30516 5.22671ZM14.2256 5.45015C14.1335 5.59088 14.0779 5.70596 14.1024 5.70564C14.1642 5.705 14.4603 5.26117 14.4234 5.2243C14.4068 5.20763 14.3178 5.30926 14.2256 5.45015ZM3.34747 5.48172C3.34747 5.51698 3.38994 5.60177 3.44171 5.67022C3.49348 5.73882 3.5358 5.76591 3.5358 5.73064C3.5358 5.69538 3.49348 5.61059 3.44171 5.54199C3.38994 5.47355 3.34747 5.44646 3.34747 5.48172ZM4.84404 5.93052C4.94646 6.01867 5.06187 6.09064 5.10049 6.09048C5.18641 6.09016 4.81198 5.77568 4.7219 5.77264C4.68664 5.77135 4.74162 5.84252 4.84404 5.93052ZM13.7619 5.93244C13.6561 6.01915 13.5984 6.0892 13.6337 6.08824C13.669 6.08711 13.7844 6.01531 13.8902 5.92859C13.9959 5.84188 14.0537 5.77184 14.0184 5.7728C13.9831 5.77392 13.8677 5.84573 13.7619 5.93244ZM5.24042 6.15267C5.27873 6.19178 5.42299 6.23778 5.56099 6.25509C5.83492 6.28939 5.71502 6.2123 5.36304 6.12783C5.22279 6.09417 5.18961 6.1009 5.24042 6.15267ZM13.1849 6.19066L12.9285 6.28074L13.1793 6.25221C13.3173 6.2365 13.4601 6.19386 13.4967 6.15732C13.5832 6.07076 13.5015 6.07958 13.1849 6.19066ZM3.8304 6.29677C3.99662 6.48975 4.19826 6.66318 4.25948 6.66574C4.28737 6.66686 4.19585 6.55242 4.05624 6.41137C3.78745 6.13985 3.6238 6.05682 3.8304 6.29677ZM14.7031 6.39182C14.5861 6.51523 14.4996 6.62535 14.5108 6.63641C14.5372 6.6627 14.7531 6.47885 14.9099 6.29677C15.107 6.06788 14.9359 6.14658 14.7031 6.39182ZM11.5287 9.85219C11.4699 9.91085 11.4745 10.4359 11.534 10.4727C11.5604 10.489 11.5821 10.3465 11.5821 10.1559C11.5821 9.96535 11.5797 9.80939 11.5768 9.80939C11.5737 9.80939 11.5521 9.82863 11.5287 9.85219ZM10.3549 10.6429C10.3549 10.9779 10.3658 11.1149 10.379 10.9474C10.3921 10.7799 10.3921 10.5058 10.379 10.3383C10.3658 10.1708 10.3549 10.3079 10.3549 10.6429ZM15.4811 10.3704C15.4592 10.4321 15.4291 10.5114 15.4143 10.5467C15.3994 10.582 15.4327 10.5549 15.4882 10.4864C15.589 10.3621 15.6195 10.2582 15.555 10.2582C15.5364 10.2582 15.5031 10.3087 15.4811 10.3704ZM12.1133 10.9109C12.263 10.9702 14.8331 10.9734 14.9258 10.9144C14.9665 10.8884 14.3255 10.8673 13.5015 10.8673C12.6775 10.8673 12.0527 10.8868 12.1133 10.9109ZM5.34862 10.946L6.03928 10.9678L6.02181 13.3058C6.01203 14.5916 6.02613 15.6437 6.05306 15.6437C6.07999 15.6437 6.09442 14.5835 6.08512 13.2876L6.06829 10.9314L5.36304 10.9279L4.65779 10.9242L5.34862 10.946ZM8.16401 10.9471L8.84906 10.9678L8.87567 11.1418C8.89987 11.3013 8.90292 11.2986 8.91173 11.1077L8.92135 10.8993L8.20007 10.913L7.47879 10.9266L8.16401 10.9471ZM3.15112 11.3039C3.15112 11.3499 3.19407 11.4437 3.24649 11.5123C3.33352 11.6261 3.33577 11.6188 3.27213 11.4283C3.19968 11.2108 3.15112 11.1609 3.15112 11.3039ZM4.60842 11.2587C4.58262 11.2843 4.56162 11.3496 4.56162 11.4037C4.56162 11.4759 4.58053 11.4831 4.63295 11.4307C4.67222 11.3914 4.69321 11.3262 4.67975 11.2856C4.66612 11.2451 4.63407 11.2329 4.60842 11.2587ZM3.5358 11.8698C3.5358 11.9003 3.60793 11.9251 3.69609 11.9251C3.78424 11.9251 3.85637 11.9141 3.85637 11.9006C3.85637 11.887 3.78424 11.8622 3.69609 11.8453C3.60793 11.8285 3.5358 11.8396 3.5358 11.8698ZM4.08077 11.861C3.96712 11.9099 3.97257 11.9167 4.12885 11.9207C4.22582 11.9231 4.30516 11.8963 4.30516 11.861C4.30516 11.7859 4.25596 11.7859 4.08077 11.861ZM11.9668 12.5663C11.945 12.6015 11.9704 12.6304 12.0233 12.6304C12.0762 12.6304 12.1373 12.6015 12.1591 12.5663C12.1809 12.531 12.1554 12.5022 12.1025 12.5022C12.0496 12.5022 11.9885 12.531 11.9668 12.5663ZM11.5258 12.9854C11.5039 13.0428 11.4897 13.1956 11.4944 13.3249C11.5021 13.535 11.508 13.5259 11.5492 13.2395C11.5986 12.8982 11.5909 12.816 11.5258 12.9854ZM15.4728 13.0475C15.513 13.1358 15.5546 13.1994 15.565 13.1888C15.6039 13.1499 15.5081 12.8869 15.4549 12.8869C15.4244 12.8869 15.4326 12.9591 15.4728 13.0475ZM15.4916 13.4751C15.4278 13.6849 15.221 13.8947 15.0306 13.9425C14.9416 13.9648 14.8842 13.9986 14.9032 14.0175C14.9875 14.1016 15.3939 13.8239 15.4935 13.6141C15.5521 13.4905 15.5858 13.3751 15.5685 13.3576C15.551 13.3403 15.5164 13.393 15.4916 13.4751ZM11.8988 13.9455C11.9674 13.9979 12.0612 14.0409 12.1072 14.0409C12.2501 14.0409 12.2003 13.9923 11.9828 13.9199C11.7922 13.8563 11.785 13.8585 11.8988 13.9455ZM5.41994 15.7066C5.26895 15.7676 5.00897 16.0707 5.01298 16.1813C5.01442 16.2206 5.0585 16.1738 5.11091 16.0772C5.16333 15.9805 5.31351 15.8447 5.44495 15.7755C5.68585 15.6482 5.6703 15.6054 5.41994 15.7066ZM11.9026 15.7079C11.8219 15.7426 11.81 15.763 11.8706 15.763C11.9235 15.763 12.0245 15.7381 12.095 15.7079C12.1758 15.6731 12.1876 15.6527 12.127 15.6527C12.0741 15.6527 11.9732 15.6776 11.9026 15.7079ZM8.08787 15.7279C8.08787 15.7388 8.18164 15.8156 8.29624 15.8983L8.50461 16.0488L8.34914 15.8782C8.21642 15.7327 8.08787 15.6586 8.08787 15.7279ZM15.4717 16.1599C15.5092 16.2676 15.5518 16.3437 15.5663 16.3291C15.5982 16.2974 15.4771 15.9643 15.4339 15.9643C15.4172 15.9643 15.4342 16.0523 15.4717 16.1599ZM8.49003 16.4203C8.49003 16.5877 8.50942 16.6502 8.54436 16.595C8.61537 16.4832 8.61601 16.2378 8.54548 16.1942C8.51503 16.1752 8.49003 16.2772 8.49003 16.4203ZM11.4869 16.3863C11.4873 16.5245 11.5131 16.6774 11.5441 16.7263C11.5785 16.7806 11.5872 16.6934 11.5667 16.5019C11.5247 16.1113 11.4856 16.0547 11.4869 16.3863ZM15.4847 16.5803C15.4608 16.647 15.4295 16.7233 15.4153 16.7497C15.401 16.7761 15.4164 16.7978 15.4497 16.7978C15.5137 16.7978 15.6038 16.5344 15.5562 16.4868C15.5406 16.4714 15.5086 16.5134 15.4847 16.5803ZM5.54544 17.1334C5.58616 17.1594 6.13882 17.1805 6.77354 17.1805C7.40827 17.1805 7.96093 17.1594 8.00164 17.1334C8.04235 17.1075 7.48969 17.0863 6.77354 17.0863C6.05739 17.0863 5.50473 17.1075 5.54544 17.1334ZM12.0408 17.1344C12.0572 17.1608 12.7307 17.1825 13.5375 17.1825C14.3444 17.1825 15.0179 17.1608 15.0343 17.1344C15.0506 17.1079 14.3771 17.0863 13.5375 17.0863C12.698 17.0863 12.0245 17.1079 12.0408 17.1344ZM3.81437 18.7702C3.77366 18.7962 6.27378 18.8174 9.37015 18.8174C12.4665 18.8174 14.9666 18.7962 14.9259 18.7702C14.8852 18.7443 12.3851 18.7231 9.37015 18.7231C6.3552 18.7231 3.85509 18.7443 3.81437 18.7702ZM3.21748 19.2299C3.13621 19.3817 3.13253 19.4455 3.20754 19.3992C3.26412 19.3643 3.35227 19.1059 3.30772 19.1059C3.29457 19.1059 3.25402 19.1617 3.21748 19.2299ZM15.4398 19.219C15.46 19.299 15.5018 19.38 15.5328 19.3992C15.6206 19.4534 15.5991 19.336 15.4962 19.1982C15.4065 19.0782 15.4045 19.079 15.4398 19.219ZM3.18606 19.6989C3.2101 19.7783 3.2561 19.8714 3.28832 19.9059C3.32054 19.9403 3.31445 19.8754 3.27486 19.7616C3.19359 19.5287 3.11858 19.4758 3.18606 19.6989ZM15.4717 19.7438C15.4342 19.8514 15.4172 19.9394 15.4339 19.9394C15.4771 19.9394 15.5982 19.6063 15.5663 19.5746C15.5518 19.56 15.5092 19.6361 15.4717 19.7438ZM3.68615 21.3989C3.64543 21.4249 6.20325 21.446 9.37015 21.446C12.537 21.446 15.0949 21.4249 15.0541 21.3989C15.0134 21.3729 12.4556 21.3518 9.37015 21.3518C6.28467 21.3518 3.72686 21.3729 3.68615 21.3989ZM3.37471 21.5842C3.25915 21.6998 3.1306 21.9918 3.17548 22.0368C3.19087 22.0522 3.22389 21.9977 3.24873 21.9157C3.27374 21.8338 3.35356 21.7017 3.42617 21.6223C3.57779 21.4566 3.53436 21.4246 3.37471 21.5842ZM15.3108 21.6188C15.3853 21.7001 15.4666 21.8338 15.4916 21.9157C15.5164 21.9977 15.551 22.0505 15.5685 22.0332C15.6243 21.9774 15.3909 21.5536 15.2813 21.5116C15.2013 21.4808 15.2085 21.5069 15.3108 21.6188ZM3.15112 22.2032C3.15112 22.2492 3.19407 22.343 3.24649 22.4116C3.33352 22.5254 3.33577 22.5182 3.27213 22.3276C3.19968 22.1101 3.15112 22.0602 3.15112 22.2032ZM15.4682 22.3276C15.4045 22.5182 15.4068 22.5254 15.4938 22.4116C15.5462 22.343 15.5892 22.2492 15.5892 22.2032C15.5892 22.0602 15.5406 22.1101 15.4682 22.3276ZM18.6088 22.8982C18.5238 23.1418 18.5205 23.1902 18.5942 23.1098C18.6556 23.0428 18.7495 22.6962 18.7062 22.6962C18.6913 22.6962 18.6476 22.7871 18.6088 22.8982ZM0.0746215 23.0008C0.0741406 23.0801 0.102511 23.145 0.137773 23.145C0.218075 23.145 0.218075 23.0771 0.137773 22.9527C0.0874438 22.875 0.0754229 22.8841 0.0746215 23.0008ZM0.682421 24.0463C0.8177 24.2292 1.10252 24.4615 1.09403 24.3823C1.09114 24.3541 0.969971 24.2302 0.824753 24.1067C0.615903 23.9292 0.58625 23.9165 0.682421 24.0463ZM17.8492 24.1763C17.6041 24.4107 17.5392 24.4914 17.5955 24.4914C17.6057 24.4914 17.7415 24.3616 17.8973 24.2029C18.2501 23.8436 18.2166 23.8251 17.8492 24.1763ZM2.15736 24.9402C2.17915 24.9755 2.26026 25.0023 2.33751 24.9999C2.47295 24.9955 2.47328 24.9933 2.3497 24.9402C2.17322 24.8644 2.11055 24.8644 2.15736 24.9402ZM16.3906 24.9402C16.267 24.9933 16.2673 24.9955 16.4028 24.9999C16.48 25.0023 16.5611 24.9755 16.5829 24.9402C16.6297 24.8644 16.5671 24.8644 16.3906 24.9402Z" fill="#A2A7F7"/>
</svg>
