<svg width="22" height="20" viewBox="0 0 22 20" fill="none" xmlns="http://www.w3.org/2000/svg">
<path fill-rule="evenodd" clip-rule="evenodd" d="M5.20688 2.5C4.65459 2.5 4.20688 2.94772 4.20688 3.5V16.5C4.20688 17.0523 4.65459 17.5 5.20688 17.5H5.79308C6.34537 17.5 6.79308 17.0523 6.79308 16.5V3.5C6.79308 2.94772 6.34537 2.5 5.79308 2.5H5.20688ZM9.51722 2.5C8.96494 2.5 8.51722 2.94772 8.51722 3.5V16.5C8.51722 17.0523 8.96494 17.5 9.51722 17.5H10.1034C10.6557 17.5 11.1034 17.0523 11.1034 16.5V3.5C11.1034 2.94772 10.6557 2.5 10.1034 2.5H9.51722Z" fill="#00A3FF"/>
<rect opacity="0.3" width="2.57721" height="15.0557" rx="1" transform="matrix(0.948821 -0.315815 0.335549 0.942023 12.3769 3.27002)" fill="#00A3FF"/>
</svg>
