<svg width="53" height="53" viewBox="0 0 53 53" fill="none" xmlns="http://www.w3.org/2000/svg">
<rect width="53" height="53" rx="12" fill="#E7E8FD"/>
<path fill-rule="evenodd" clip-rule="evenodd" d="M19.1919 14.1746C18.2541 14.4216 17.5239 15.103 17.214 16.0203C17.1064 16.339 17.1027 16.4204 17.0876 18.8087L17.0723 21.2688H26.3929H35.7134L35.6967 18.7837C35.678 16.0203 35.6742 15.9886 35.3011 15.4405C35.2228 15.3256 35.1589 15.2183 35.1589 15.2019C35.1589 15.024 34.2456 14.3763 33.7639 14.2125L33.4356 14.1008L26.4924 14.0907C19.8336 14.0808 19.5346 14.0843 19.1919 14.1746ZM21.3647 16.2185C22.8783 16.9993 22.3653 19.2421 20.6731 19.2421C18.8555 19.2421 18.4544 16.7802 20.1677 16.1399C20.4442 16.0365 21.0948 16.0794 21.3647 16.2185ZM26.608 16.2486C27.5842 16.7798 27.768 18.1488 26.9564 18.8435C25.8742 19.7699 24.2982 19.0754 24.2982 17.6723C24.2982 16.4609 25.5643 15.6804 26.608 16.2486ZM31.7933 16.2378C32.4489 16.5735 32.8948 17.6141 32.6172 18.16C32.5929 18.2077 32.5423 18.3137 32.5048 18.3955C32.4006 18.6225 31.8816 19.1209 31.7493 19.1209C31.7125 19.1209 31.6558 19.1474 31.6236 19.1796C31.3746 19.4286 30.3488 19.1964 29.949 18.8006C28.683 17.5472 30.2091 15.4266 31.7933 16.2378ZM17.0766 26.5136V29.6106H22.3869H27.6972L27.8117 29.2734C27.919 28.9575 28.3012 28.1173 28.3628 28.0621C28.3781 28.0484 28.4225 27.9753 28.4614 27.8998C28.5004 27.8242 28.551 27.7624 28.5738 27.7624C28.5966 27.7624 28.6153 27.7329 28.6153 27.6968C28.6153 27.6609 28.6555 27.5878 28.7048 27.5345C28.754 27.4813 28.8648 27.3366 28.9511 27.2129C29.1867 26.8755 29.6845 26.3764 30.2589 25.9017C30.3171 25.8536 30.385 25.8143 30.4099 25.8143C30.4348 25.8143 30.4626 25.7966 30.4718 25.7751C30.5299 25.638 31.4791 25.1119 32.0925 24.8765C33.1646 24.4654 34.582 24.2882 35.571 24.4418L35.7083 24.4631V23.9399V23.4167H26.3925H17.0766V26.5136ZM17.0876 34.2186C17.1027 36.6068 17.1064 36.6882 17.214 37.0069C17.4922 37.8304 18.1603 38.5131 18.9785 38.81L19.2995 38.9264L26.2301 38.9399C30.9186 38.949 33.1608 38.9369 33.1608 38.9024C33.1608 38.8745 33.1169 38.8515 33.0633 38.8515C33.0096 38.8515 32.9141 38.8314 32.851 38.8068C32.7878 38.7822 32.6351 38.7331 32.5115 38.6978C32.0679 38.5711 30.7703 37.9468 30.6633 37.8085C30.6495 37.7907 30.5057 37.6866 30.3435 37.5771C30.0144 37.3547 29.2619 36.6359 29.037 36.329C28.9565 36.2191 28.8774 36.1179 28.8613 36.1042C28.7013 35.9677 28.1941 35.0728 27.8986 34.4059C27.6771 33.9055 27.4873 33.0954 27.4152 32.342C27.3894 32.0723 27.3553 31.8306 27.3394 31.805C27.3219 31.7767 25.3023 31.7585 22.1915 31.7585H17.0723L17.0876 34.2186Z" fill="#BC64FC"/>
<path fill-rule="evenodd" clip-rule="evenodd" d="M19.5471 16.5853L19.3497 16.7976L19.562 16.6002C19.7594 16.4165 19.7973 16.373 19.7594 16.373C19.7513 16.373 19.6558 16.4686 19.5471 16.5853ZM26.9422 16.5728C27.0495 16.6827 27.1485 16.7727 27.1623 16.7727C27.176 16.7727 27.0995 16.6827 26.9922 16.5728C26.8849 16.463 26.7859 16.373 26.7722 16.373C26.7584 16.373 26.835 16.463 26.9422 16.5728ZM32.6253 17.6718C32.6253 17.7954 32.635 17.846 32.6469 17.7842C32.6589 17.7223 32.6589 17.6212 32.6469 17.5594C32.635 17.4976 32.6253 17.5481 32.6253 17.6718ZM27.4284 17.6718C27.4284 17.7679 27.4386 17.8073 27.4512 17.7592C27.4637 17.7111 27.4637 17.6324 27.4512 17.5844C27.4386 17.5363 27.4284 17.5756 27.4284 17.6718ZM26.9645 18.7582L26.7924 18.9455L26.9797 18.7734C27.0827 18.6786 27.167 18.5944 27.167 18.5861C27.167 18.5479 27.1248 18.5839 26.9645 18.7582ZM32.1594 18.7582L31.9873 18.9455L32.1746 18.7734C32.3489 18.6131 32.3849 18.5709 32.3467 18.5709C32.3384 18.5709 32.2541 18.6552 32.1594 18.7582ZM21.7442 18.7832L21.5975 18.9455L21.7598 18.7988C21.8491 18.7181 21.9222 18.6451 21.9222 18.6364C21.9222 18.5979 21.881 18.6318 21.7442 18.7832ZM21.7139 23.4036C24.3053 23.4107 28.5312 23.4107 31.1047 23.4036C33.678 23.3965 31.5577 23.3906 26.3928 23.3906C21.2279 23.3906 19.1223 23.3965 21.7139 23.4036ZM34.6222 24.451C34.6977 24.4623 34.8214 24.4623 34.8969 24.451C34.9725 24.4395 34.9107 24.4301 34.7596 24.4301C34.6085 24.4301 34.5466 24.4395 34.6222 24.451ZM33.0862 24.6149C33.0233 24.642 33.014 24.6579 33.0612 24.6579C33.1024 24.6579 33.1811 24.6385 33.2361 24.6149C33.299 24.5878 33.3082 24.572 33.261 24.572C33.2198 24.572 33.1412 24.5913 33.0862 24.6149ZM33.9342 26.6088C33.0957 26.744 32.273 27.1 31.5816 27.6271C31.1037 27.9913 30.5603 28.5921 30.3189 29.0231C30.2612 29.1261 30.1733 29.2834 30.1236 29.3727C29.1146 31.1838 29.506 33.771 31.0216 35.3089C31.5661 35.8613 32.6263 36.5532 32.9285 36.5532C32.9708 36.5532 33.0176 36.573 33.0326 36.5974C33.0477 36.6217 33.122 36.6534 33.198 36.6678C33.2739 36.6823 33.4933 36.7306 33.6856 36.7751C34.1027 36.8717 35.34 36.8885 35.6674 36.802C35.7863 36.7707 35.9734 36.7217 36.0833 36.6933C36.4891 36.5881 37.1048 36.3239 37.3697 36.1413C37.5775 35.9981 37.5572 35.982 39.0416 37.4598C40.32 38.7324 40.4492 38.8469 40.6867 38.9168C41.4585 39.144 42.1844 38.3906 41.9068 37.6506C41.8155 37.4073 41.6535 37.2267 40.4299 36.0041C39.1285 34.7039 38.9918 34.5416 39.1007 34.4278C39.249 34.2725 39.5797 33.523 39.6947 33.0816C39.7233 32.9717 39.7724 32.7846 39.8037 32.6657C39.8901 32.3383 39.8734 31.101 39.7768 30.6839C39.7323 30.4916 39.684 30.2722 39.6695 30.1963C39.6551 30.1204 39.6234 30.0461 39.5991 30.031C39.5747 30.016 39.5548 29.9691 39.5548 29.9268C39.5548 29.7843 39.1571 29.0382 38.8934 28.6859C37.733 27.1359 35.7683 26.3131 33.9342 26.6088ZM29.1594 27.0001C29.0003 27.1759 28.8973 27.3123 28.9235 27.3123C28.9349 27.3123 29.0287 27.2111 29.132 27.0875C29.3383 26.8407 29.3567 26.7819 29.1594 27.0001ZM28.8058 27.4496C28.7177 27.5522 28.6518 27.6619 28.6782 27.6619C28.6884 27.6619 28.7466 27.5945 28.8075 27.5121C28.9279 27.3492 28.9268 27.3088 28.8058 27.4496ZM35.2691 28.6156C35.7831 28.7215 36.3063 28.95 36.6261 29.208C36.9545 29.473 37.0697 29.5965 37.2917 29.9214C39.567 33.2515 34.776 36.7884 32.2347 33.6548C30.4579 31.4639 32.515 28.0479 35.2691 28.6156ZM19.6869 29.6475C21.1635 29.6548 23.5799 29.6548 25.0566 29.6475C26.5333 29.6401 25.3251 29.6341 22.3717 29.6341C19.4184 29.6341 18.2102 29.6401 19.6869 29.6475ZM27.4128 31.8953C27.4366 32.0677 27.4401 32.0712 27.4566 31.9391C27.4665 31.8602 27.4549 31.776 27.4308 31.7519C27.4055 31.7267 27.3979 31.7879 27.4128 31.8953ZM27.5736 33.2065C27.5736 33.2477 27.593 33.3263 27.6166 33.3813C27.6437 33.4442 27.6595 33.4535 27.6595 33.4063C27.6595 33.3651 27.6402 33.2864 27.6166 33.2314C27.5895 33.1685 27.5736 33.1593 27.5736 33.2065ZM28.5093 35.5292C28.5363 35.5841 28.5949 35.674 28.6397 35.729L28.721 35.8289L28.6719 35.729C28.6449 35.674 28.5864 35.5841 28.5415 35.5292L28.4603 35.4293L28.5093 35.5292ZM28.8143 36.0022C28.8725 36.0837 28.9455 36.1663 28.9766 36.1855C29.0078 36.2049 28.9704 36.1381 28.8935 36.0372C28.7265 35.8183 28.6636 35.7904 28.8143 36.0022ZM33.2236 38.8354C33.2716 38.8479 33.311 38.8902 33.311 38.9294C33.311 38.9687 33.3335 39.0007 33.3609 39.0007C33.3884 39.0007 33.4109 38.9694 33.4109 38.9312C33.4109 38.8603 33.2997 38.7963 33.1945 38.8067C33.1624 38.8099 33.1755 38.8228 33.2236 38.8354Z" fill="#DCA4FC"/>
<path fill-rule="evenodd" clip-rule="evenodd" d="M19.4341 14.0681C19.3706 14.086 22.5021 14.1006 26.3927 14.1006C30.2834 14.1006 33.4148 14.086 33.3514 14.0681C33.288 14.0503 30.1565 14.0356 26.3927 14.0356C22.6289 14.0356 19.4975 14.0503 19.4341 14.0681ZM19.025 14.1778C18.9703 14.2148 18.9905 14.2195 19.0999 14.195C19.2836 14.1539 19.3234 14.1253 19.1957 14.1263C19.143 14.1267 19.0662 14.1499 19.025 14.1778ZM33.5149 14.1435C33.5264 14.1534 33.6031 14.1765 33.6856 14.195C33.795 14.2195 33.8152 14.2148 33.7605 14.1778C33.6931 14.1322 33.4648 14.1003 33.5149 14.1435ZM34.31 14.4436C34.31 14.4537 34.4055 14.5222 34.5222 14.5958L34.7345 14.7297L34.5616 14.5775C34.4077 14.442 34.31 14.39 34.31 14.4436ZM18.0978 14.6874L17.951 14.8495L18.1009 14.7256C18.1833 14.6574 18.2721 14.5844 18.2982 14.5634C18.3277 14.5396 18.3264 14.5252 18.2951 14.5252C18.2672 14.5252 18.1784 14.5981 18.0978 14.6874ZM17.6668 15.1121C17.5613 15.2252 17.3534 15.556 17.4393 15.4742C17.4906 15.4253 17.8252 14.9747 17.8102 14.9747C17.8018 14.9747 17.7372 15.0365 17.6668 15.1121ZM35.1614 15.1995C35.1614 15.227 35.2053 15.3056 35.259 15.3743C35.3127 15.443 35.3567 15.4767 35.3567 15.4493C35.3567 15.4218 35.3127 15.3431 35.259 15.2744C35.2053 15.2057 35.1614 15.172 35.1614 15.1995ZM17.1579 16.0505C17.1408 16.0952 17.1287 16.1693 17.1311 16.2151C17.1335 16.261 17.1552 16.2321 17.1794 16.1511C17.2265 15.9935 17.2099 15.9154 17.1579 16.0505ZM20.1576 16.1462C20.0526 16.1837 19.9514 16.2311 19.9328 16.2518C19.9143 16.2724 19.9441 16.2714 19.999 16.2497C20.054 16.2279 20.2113 16.1813 20.3487 16.1461C20.4949 16.1086 20.5466 16.0813 20.4735 16.0801C20.4049 16.079 20.2628 16.1087 20.1576 16.1462ZM20.998 16.1397C21.1354 16.1759 21.3208 16.2438 21.4101 16.2908C21.4994 16.3376 21.5725 16.3646 21.5725 16.3506C21.5725 16.2923 21.1654 16.1242 20.9652 16.1L20.7483 16.0738L20.998 16.1397ZM25.4437 16.126C25.374 16.1574 25.4043 16.1619 25.5436 16.1408C25.6535 16.1241 25.7527 16.1021 25.7642 16.092C25.8071 16.0542 25.5396 16.0825 25.4437 16.126ZM26.093 16.1236C26.3043 16.1774 26.4856 16.1774 26.3178 16.1236C26.2491 16.1016 26.1367 16.084 26.0681 16.0845C25.9559 16.0854 25.9584 16.0894 26.093 16.1236ZM30.6386 16.126C30.5689 16.1574 30.5992 16.1619 30.7385 16.1408C30.8484 16.1241 30.9476 16.1021 30.9591 16.092C31.002 16.0542 30.7345 16.0825 30.6386 16.126ZM31.2879 16.1236C31.4992 16.1774 31.6805 16.1774 31.5127 16.1236C31.444 16.1016 31.3316 16.084 31.2629 16.0845C31.1508 16.0854 31.1533 16.0894 31.2879 16.1236ZM25.1065 16.2521C24.9128 16.3571 24.9348 16.3935 25.1315 16.2933C25.3198 16.1976 25.3531 16.1728 25.2897 16.1755C25.2645 16.1767 25.182 16.2111 25.1065 16.2521ZM30.214 16.3177C30.0904 16.3958 29.9444 16.5133 29.8897 16.5789L29.7901 16.698L29.9146 16.5909C29.9831 16.5319 30.1503 16.4139 30.2862 16.3286C30.422 16.2433 30.5119 16.1739 30.486 16.1745C30.46 16.175 30.3376 16.2394 30.214 16.3177ZM31.8624 16.2832C32.1818 16.5803 32.3709 16.7271 32.212 16.5548C32.1159 16.4505 31.9922 16.3415 31.9373 16.3125C31.8823 16.2836 31.8486 16.2703 31.8624 16.2832ZM17.0528 16.5357C17.0362 16.6524 17.0292 17.7707 17.0373 19.0207L17.0519 21.2935H26.3927H35.7336L35.7465 18.9547C35.7537 17.6683 35.7424 16.5498 35.7216 16.4691C35.7007 16.3883 35.6902 17.4352 35.6983 18.7953L35.7129 21.2685H26.3927H17.0725L17.0871 18.796C17.0952 17.4361 17.0976 16.3234 17.0925 16.3234C17.0873 16.3234 17.0694 16.4189 17.0528 16.5357ZM19.5217 16.5607L19.3497 16.748L19.537 16.5759C19.64 16.4811 19.7243 16.3968 19.7243 16.3886C19.7243 16.3504 19.6821 16.3863 19.5217 16.5607ZM26.9672 16.5482C27.0603 16.6443 27.1479 16.723 27.1616 16.723C27.1753 16.723 27.1103 16.6443 27.0171 16.5482C26.924 16.452 26.8364 16.3733 26.8227 16.3733C26.8089 16.3733 26.874 16.452 26.9672 16.5482ZM21.6265 16.4358C21.638 16.4427 21.7148 16.5045 21.7972 16.5732L21.9471 16.698L21.826 16.5607C21.7594 16.4851 21.6826 16.4233 21.6554 16.4233C21.628 16.4233 21.6152 16.4289 21.6265 16.4358ZM24.7156 16.5607L24.5945 16.698L24.7444 16.5732C24.8268 16.5045 24.9036 16.4427 24.9151 16.4358C24.9264 16.4289 24.9136 16.4233 24.8862 16.4233C24.859 16.4233 24.7822 16.4851 24.7156 16.5607ZM29.6912 16.8523C29.6447 16.9233 29.6179 16.9929 29.6319 17.0067C29.6458 17.0206 29.6931 16.9625 29.7371 16.8775C29.8342 16.6897 29.8074 16.6749 29.6912 16.8523ZM27.2419 16.9228C27.2845 17.0052 27.3307 17.0727 27.3444 17.0727C27.3582 17.0727 27.3344 17.0052 27.2919 16.9228C27.2493 16.8404 27.2031 16.773 27.1893 16.773C27.1756 16.773 27.1993 16.8404 27.2419 16.9228ZM19.1832 17.0493C19.1515 17.1189 19.1141 17.2706 19.1003 17.3865C19.0752 17.5959 19.0754 17.5956 19.1431 17.3474C19.1807 17.21 19.228 17.0583 19.2484 17.0102C19.3067 16.8727 19.2475 16.9082 19.1832 17.0493ZM32.5674 17.1726C32.5698 17.2138 32.5896 17.3037 32.6116 17.3724L32.6516 17.4972L32.6558 17.3724C32.6582 17.3037 32.6382 17.2138 32.6116 17.1726C32.5685 17.106 32.5637 17.106 32.5674 17.1726ZM22.2354 17.6721C22.2354 17.7957 22.2452 17.8463 22.257 17.7845C22.269 17.7226 22.269 17.6215 22.257 17.5597C22.2452 17.4979 22.2354 17.5484 22.2354 17.6721ZM24.2834 17.6721C24.2834 17.7957 24.2932 17.8463 24.305 17.7845C24.317 17.7226 24.317 17.6215 24.305 17.5597C24.2932 17.4979 24.2834 17.5484 24.2834 17.6721ZM19.1013 17.9639C19.1255 18.1641 19.2936 18.5712 19.3519 18.5712C19.3659 18.5712 19.3389 18.4981 19.2921 18.4088C19.2451 18.3196 19.1772 18.1341 19.141 17.9968L19.075 17.747L19.1013 17.9639ZM32.6184 17.9302C32.6147 17.976 32.5971 18.0547 32.5793 18.105C32.5543 18.1757 32.561 18.1836 32.6085 18.1399C32.6423 18.1088 32.66 18.0301 32.6476 17.965C32.6353 17.9001 32.6221 17.8844 32.6184 17.9302ZM24.3233 18.1061C24.3214 18.1663 24.3422 18.2295 24.3697 18.2465C24.4288 18.283 24.4288 18.2341 24.3697 18.0967C24.3284 18.0004 24.3266 18.0006 24.3233 18.1061ZM27.2825 18.3266C27.2225 18.461 27.1827 18.5712 27.1941 18.5712C27.2305 18.5712 27.4232 18.1658 27.4071 18.123C27.3987 18.1004 27.3426 18.1919 27.2825 18.3266ZM29.6845 18.4463C29.7594 18.6039 29.9706 18.8475 30.1391 18.9709C30.194 19.0111 30.1266 18.9197 29.9892 18.7679C29.8518 18.616 29.711 18.4478 29.6763 18.3941C29.6415 18.3404 29.6453 18.3639 29.6845 18.4463ZM19.4246 18.6541C19.4246 18.6813 19.4864 18.7581 19.5619 18.8247L19.6993 18.9458L19.5744 18.796C19.5058 18.7135 19.4439 18.6367 19.4371 18.6253C19.4302 18.6139 19.4246 18.6268 19.4246 18.6541ZM26.989 18.7835L26.8423 18.9458L27.0046 18.7991C27.0939 18.7184 27.167 18.6454 27.167 18.6367C27.167 18.5982 27.1258 18.6321 26.989 18.7835ZM32.1121 18.8302C31.9885 18.9428 31.9323 19.0113 31.9872 18.9823C32.0811 18.9326 32.4058 18.6188 32.3587 18.6231C32.3468 18.6243 32.2357 18.7174 32.1121 18.8302ZM20.561 19.2558C20.6228 19.2678 20.7239 19.2678 20.7857 19.2558C20.8476 19.2439 20.797 19.2342 20.6734 19.2342C20.5497 19.2342 20.4992 19.2439 20.561 19.2558ZM25.7559 19.2558C25.8177 19.2678 25.9188 19.2678 25.9806 19.2558C26.0425 19.2439 25.9919 19.2342 25.8682 19.2342C25.7446 19.2342 25.694 19.2439 25.7559 19.2558ZM30.9508 19.2558C31.0126 19.2678 31.1137 19.2678 31.1755 19.2558C31.2373 19.2439 31.1868 19.2342 31.0631 19.2342C30.9395 19.2342 30.8889 19.2439 30.9508 19.2558ZM17.0504 26.5134C17.0504 28.2304 17.0567 28.9329 17.0644 28.0743C17.072 27.2158 17.072 25.8109 17.0644 24.9524C17.0567 24.0939 17.0504 24.7963 17.0504 26.5134ZM35.7273 23.9409C35.7274 24.2431 35.7356 24.3602 35.7455 24.2013C35.7555 24.0423 35.7554 23.7951 35.7453 23.6518C35.7353 23.5086 35.7272 23.6387 35.7273 23.9409ZM34.1601 24.4154L33.7855 24.4474L34.1102 24.4514C34.2887 24.4537 34.5585 24.4384 34.7096 24.4176C35.0722 24.3674 34.7383 24.3661 34.1601 24.4154ZM35.1466 24.4515C35.2359 24.4626 35.382 24.4626 35.4713 24.4515C35.5606 24.4405 35.4875 24.4314 35.309 24.4314C35.1304 24.4314 35.0573 24.4405 35.1466 24.4515ZM33.3359 24.5153C33.2023 24.5493 33.1995 24.5534 33.3109 24.5534C33.3796 24.5534 33.5032 24.5363 33.5857 24.5153C33.7193 24.4814 33.722 24.4773 33.6106 24.4773C33.542 24.4773 33.4183 24.4944 33.3359 24.5153ZM32.9113 24.6152C32.8109 24.6473 32.8061 24.6556 32.8864 24.6567C32.9413 24.6575 33.0312 24.6388 33.0862 24.6152C33.2134 24.5605 33.0822 24.5605 32.9113 24.6152ZM32.5617 24.7151C32.4588 24.7481 32.4544 24.7559 32.5367 24.7594C32.5916 24.7617 32.6703 24.7417 32.7115 24.7151C32.7991 24.6586 32.7382 24.6586 32.5617 24.7151ZM32.093 24.8695C31.6387 25.0538 31.4029 25.1716 31.4314 25.1999C31.4469 25.2154 31.511 25.1952 31.5736 25.1548C31.6362 25.1144 31.8505 25.018 32.0497 24.9403C32.3791 24.8121 32.4763 24.7605 32.3744 24.7678C32.3538 24.7693 32.2271 24.815 32.093 24.8695ZM31.163 25.3191C31.0801 25.3869 31.0718 25.4038 31.1381 25.3695C31.301 25.2853 31.3913 25.2162 31.3379 25.2165C31.3104 25.2168 31.2317 25.2629 31.163 25.3191ZM30.6894 25.592C30.5525 25.6867 30.4556 25.7641 30.4738 25.7641C30.5141 25.7641 31.0132 25.4568 31.0132 25.4319C31.0132 25.3869 30.9183 25.4338 30.6894 25.592ZM29.7369 26.3528C29.5983 26.4823 29.3746 26.7119 29.2399 26.863C29.1053 27.0141 29.2245 26.9134 29.5047 26.6393C29.7849 26.365 30.0142 26.1346 30.0142 26.1273C30.0142 26.0982 29.9802 26.1258 29.7369 26.3528ZM28.2789 28.196C28.1931 28.3807 28.2277 28.3897 28.3338 28.2102C28.382 28.1285 28.4033 28.062 28.3812 28.0622C28.3589 28.0625 28.313 28.1227 28.2789 28.196ZM28.0209 28.7237C27.9973 28.7855 27.9417 28.9231 27.8973 29.0295C27.8527 29.1359 27.8177 29.2483 27.8195 29.2793C27.8212 29.3103 27.8413 29.2907 27.8643 29.2357C28.0263 28.8463 28.1109 28.6113 28.0891 28.6113C28.0751 28.6113 28.0444 28.6619 28.0209 28.7237ZM17.0603 31.7416C17.0174 31.7843 17.0262 36.4406 17.0694 36.5943C17.0873 36.658 17.0952 35.596 17.0871 34.2342L17.0725 31.7582H22.1917C25.5946 31.7582 27.3214 31.7752 27.3422 31.8088C27.3594 31.8366 27.3933 32.0446 27.4174 32.2708L27.4613 32.6823L27.4415 32.2442C27.4305 32.0034 27.4079 31.7842 27.3911 31.7572C27.3569 31.7018 17.1156 31.6863 17.0603 31.7416ZM27.4775 32.8322C27.478 32.8871 27.4957 32.9995 27.5166 33.0819C27.5508 33.2165 27.5548 33.219 27.5557 33.1069C27.5562 33.0382 27.5386 32.9258 27.5166 32.8571C27.4853 32.7592 27.4768 32.7539 27.4775 32.8322ZM27.5751 33.3567C27.5776 33.4864 27.6562 33.6996 27.658 33.5814C27.6587 33.5265 27.6401 33.4366 27.6165 33.3816C27.5902 33.3204 27.5742 33.3107 27.5751 33.3567ZM27.6665 33.7295C27.6665 33.7845 27.8312 34.2483 27.9196 34.4426C27.9727 34.559 28.0161 34.6757 28.0161 34.7018C28.0161 34.7279 28.0391 34.7635 28.0671 34.7809C28.1148 34.8103 27.9912 34.4408 27.9165 34.3307C27.8979 34.3032 27.8432 34.1515 27.7949 33.9935C27.7204 33.7498 27.6665 33.6389 27.6665 33.7295ZM28.317 35.2922C28.3176 35.3129 28.3639 35.3859 28.4199 35.4546L28.5216 35.5795L28.4425 35.4171C28.3672 35.2629 28.3145 35.2105 28.317 35.2922ZM29.1152 36.4286C29.1839 36.5111 29.2456 36.5879 29.2524 36.5993C29.2593 36.6107 29.2759 36.6091 29.2894 36.5957C29.3029 36.5822 29.2411 36.5054 29.1521 36.425L28.9906 36.2788L29.1152 36.4286ZM17.1276 36.8324C17.128 36.8851 17.1512 36.9619 17.179 37.0031C17.2161 37.0578 17.2207 37.0375 17.1963 36.9281C17.1552 36.7444 17.1266 36.7046 17.1276 36.8324ZM29.5887 36.9522C29.6955 37.0616 29.7908 37.1433 29.8003 37.1337C29.8216 37.1125 29.4668 36.7533 29.4246 36.7533C29.408 36.7533 29.4818 36.8428 29.5887 36.9522ZM29.9392 37.2486C30.0364 37.3603 30.3139 37.5773 30.3139 37.5415C30.3139 37.5318 30.2071 37.436 30.0766 37.3288C29.9461 37.2215 29.8843 37.1854 29.9392 37.2486ZM17.4969 37.6935C17.5369 37.7711 17.6089 37.8666 17.6566 37.9058C17.7055 37.9461 17.6824 37.8848 17.6032 37.7648C17.443 37.5219 17.3896 37.4861 17.4969 37.6935ZM30.7415 37.8756C30.7948 37.9159 30.8608 37.949 30.8883 37.949C30.9158 37.949 30.8947 37.9159 30.8414 37.8756C30.7879 37.8353 30.7219 37.8023 30.6944 37.8023C30.6669 37.8023 30.688 37.8353 30.7415 37.8756ZM18.0759 38.3235C18.0759 38.3661 18.4279 38.6157 18.4529 38.5908C18.4665 38.5773 18.3872 38.5063 18.2767 38.4333C18.1663 38.3602 18.0759 38.3108 18.0759 38.3235ZM31.9623 38.4784C31.9623 38.5132 32.3252 38.6553 32.3732 38.6393C32.3971 38.6313 32.3144 38.587 32.1894 38.5407C32.0645 38.4944 31.9623 38.4663 31.9623 38.4784ZM32.8614 38.7973C32.9026 38.8262 32.9869 38.8501 33.0487 38.8505C33.1105 38.8509 33.1611 38.8741 33.1611 38.9021C33.1611 38.9363 30.9073 38.9485 26.2399 38.9395C22.4331 38.9322 19.3705 38.9408 19.4341 38.9586C19.6983 39.0331 33.3109 39.0051 33.3109 38.9302C33.3109 38.8901 33.2403 38.845 33.1486 38.8265C33.0593 38.8085 32.9413 38.7828 32.8864 38.7693C32.8049 38.7494 32.8003 38.7545 32.8614 38.7973Z" fill="#D48EFC"/>
<path fill-rule="evenodd" clip-rule="evenodd" d="M22.9835 14.0132C24.8723 14.0205 27.963 14.0205 29.8517 14.0132C31.7405 14.006 30.1951 14 26.4176 14C22.6401 14 21.0947 14.006 22.9835 14.0132ZM19.1248 14.0757C19.0244 14.1078 19.0195 14.116 19.0998 14.1171C19.1548 14.1179 19.2447 14.0993 19.2996 14.0757C19.4269 14.021 19.2956 14.021 19.1248 14.0757ZM33.4857 14.0757C33.5406 14.0993 33.6305 14.1179 33.6855 14.1171C33.7658 14.116 33.7609 14.1078 33.6605 14.0757C33.4897 14.021 33.3584 14.021 33.4857 14.0757ZM33.8103 14.1424C33.8103 14.1552 33.8829 14.1911 33.9716 14.222C34.0602 14.2529 34.1108 14.2576 34.084 14.2325C34.027 14.1792 33.8103 14.1079 33.8103 14.1424ZM18.3046 14.4509C17.8835 14.7423 17.2766 15.4245 17.2766 15.6065C17.2766 15.6286 17.357 15.5238 17.4554 15.3733C17.7002 14.9986 17.9423 14.7541 18.3251 14.495C18.5033 14.3743 18.6269 14.2767 18.5998 14.2782C18.5726 14.2797 18.4398 14.3575 18.3046 14.4509ZM34.1641 14.2937C34.2333 14.3544 34.6096 14.5721 34.6096 14.5515C34.6096 14.5209 34.2254 14.2755 34.1776 14.2755C34.1588 14.2755 34.1528 14.2837 34.1641 14.2937ZM34.9093 14.8499C35.0585 15.001 35.1919 15.1246 35.2056 15.1246C35.2193 15.1246 35.1084 15.001 34.9592 14.8499C34.81 14.6988 34.6766 14.5752 34.6629 14.5752C34.6491 14.5752 34.76 14.6988 34.9093 14.8499ZM35.601 15.9222C35.6463 16.0587 35.6899 16.142 35.6977 16.1073C35.7118 16.0445 35.5751 15.6741 35.5378 15.6741C35.527 15.6741 35.5555 15.7857 35.601 15.9222ZM17.0581 16.1799C17.0165 16.388 17.0568 16.4284 17.1018 16.2236C17.1208 16.1373 17.1259 16.0561 17.1131 16.0435C17.1004 16.0308 17.0757 16.0921 17.0581 16.1799ZM20.5609 16.1589C20.6227 16.1709 20.7238 16.1709 20.7857 16.1589C20.8475 16.147 20.7969 16.1373 20.6733 16.1373C20.5496 16.1373 20.4991 16.147 20.5609 16.1589ZM25.7814 16.1595C25.8574 16.171 25.9698 16.1707 26.0311 16.1589C26.0926 16.147 26.0305 16.1375 25.8931 16.1379C25.7558 16.1383 25.7054 16.148 25.7814 16.1595ZM30.9763 16.1595C31.0523 16.171 31.1647 16.1707 31.226 16.1589C31.2874 16.147 31.2254 16.1375 31.088 16.1379C30.9507 16.1383 30.9003 16.148 30.9763 16.1595ZM19.9989 16.2811C19.5918 16.4913 19.1666 17.0375 19.1799 17.3334C19.184 17.4258 19.1918 17.4189 19.2214 17.2975C19.3456 16.7879 19.7881 16.3453 20.2986 16.2204C20.4341 16.1874 20.4366 16.1836 20.3236 16.181C20.2549 16.1794 20.1088 16.2244 19.9989 16.2811ZM21.0479 16.2204C21.4124 16.3096 21.6989 16.5244 21.986 16.924C22.0705 17.0418 22.0721 17.0421 22.0193 16.931C21.859 16.5937 21.2869 16.1664 21.0121 16.1787C20.9196 16.1829 20.9264 16.1907 21.0479 16.2204ZM25.1938 16.2813C24.9705 16.3966 24.6882 16.6462 24.6091 16.798C24.5805 16.8529 24.641 16.8016 24.7435 16.6839C24.9332 16.466 25.2238 16.2865 25.4935 16.2204C25.629 16.1874 25.6315 16.1836 25.5185 16.181C25.4498 16.1794 25.3037 16.2244 25.1938 16.2813ZM26.2681 16.2203C26.507 16.293 26.7435 16.4354 26.9671 16.641L27.1917 16.848L26.992 16.6313C26.7855 16.4075 26.3881 16.1704 26.2319 16.1779C26.1725 16.1807 26.1845 16.1948 26.2681 16.2203ZM30.5442 16.2146C30.5302 16.2371 30.5851 16.2457 30.6661 16.2338C30.7471 16.2219 30.8133 16.2036 30.8133 16.193C30.8133 16.1549 30.5689 16.1745 30.5442 16.2146ZM31.4127 16.2066C31.4539 16.2203 31.5719 16.2634 31.6749 16.3021C31.778 16.341 31.8623 16.3618 31.8623 16.3487C31.8623 16.3101 31.5079 16.1732 31.4191 16.1776C31.3518 16.1809 31.3506 16.1859 31.4127 16.2066ZM29.9549 16.623C29.8226 16.7603 29.7144 16.8984 29.7144 16.9299C29.7144 16.9615 29.7909 16.887 29.8845 16.7645C29.9779 16.642 30.1071 16.5052 30.1717 16.4602C30.2361 16.4154 30.2678 16.3775 30.2421 16.376C30.2165 16.3745 30.0873 16.4857 29.9549 16.623ZM32.1344 16.6232C32.2694 16.7743 32.3901 16.9091 32.4026 16.9229C32.4151 16.9366 32.4001 16.9029 32.3694 16.848C32.2947 16.7145 32.2134 16.623 32.0365 16.4733C31.9552 16.4046 31.9992 16.4721 32.1344 16.6232ZM35.7704 18.8584L35.7584 21.3183L26.3801 21.331L17.0019 21.3438L26.3818 21.3561C33.8487 21.366 35.7664 21.3558 35.7855 21.3061C35.7986 21.2717 35.8034 20.1535 35.7959 18.821L35.7824 16.3984L35.7704 18.8584ZM17 18.9209C17 20.2259 17.0064 20.7597 17.0144 20.1073C17.0222 19.4548 17.0222 18.3871 17.0144 17.7346C17.0064 17.0821 17 17.6159 17 18.9209ZM29.6483 17.0602C29.6137 17.1189 29.5498 17.4504 29.5784 17.4224C29.6112 17.3904 29.7122 17.0228 29.6883 17.0228C29.6784 17.0228 29.6604 17.0396 29.6483 17.0602ZM32.5159 17.2476C32.5144 17.3025 32.535 17.3812 32.5616 17.4224C32.6258 17.5217 32.6258 17.3969 32.5616 17.2476L32.5186 17.1477L32.5159 17.2476ZM27.3817 17.6721C27.3817 17.8232 27.391 17.8851 27.4025 17.8095C27.4139 17.734 27.4139 17.6103 27.4025 17.5348C27.391 17.4592 27.3817 17.521 27.3817 17.6721ZM19.1384 17.6721C19.1384 17.7958 19.1481 17.8463 19.16 17.7845C19.172 17.7227 19.172 17.6216 19.16 17.5598C19.1481 17.4979 19.1384 17.5485 19.1384 17.6721ZM22.1854 17.6721C22.1854 17.7958 22.1951 17.8463 22.207 17.7845C22.219 17.7227 22.219 17.6216 22.207 17.5598C22.1951 17.4979 22.1854 17.5485 22.1854 17.6721ZM29.5282 17.6721C29.5282 17.7958 29.5379 17.8463 29.5498 17.7845C29.5618 17.7227 29.5618 17.6216 29.5498 17.5598C29.5379 17.4979 29.5282 17.5485 29.5282 17.6721ZM24.3313 17.6721C24.3313 17.7683 24.3415 17.8076 24.3541 17.7596C24.3666 17.7115 24.3666 17.6328 24.3541 17.5847C24.3415 17.5367 24.3313 17.576 24.3313 17.6721ZM32.5457 17.941C32.527 17.99 32.513 18.0675 32.5147 18.1133C32.5169 18.1685 32.5342 18.1559 32.5662 18.076C32.5927 18.0097 32.6067 17.9321 32.5972 17.9037C32.5877 17.8753 32.5646 17.8921 32.5457 17.941ZM19.1799 18.0109C19.1675 18.2858 19.5948 18.8579 19.9321 19.0182C20.0433 19.071 20.0429 19.0694 19.9251 18.9849C19.5255 18.6978 19.3107 18.4113 19.2216 18.0468C19.1918 17.9253 19.184 17.9185 19.1799 18.0109ZM29.5715 17.9718C29.5715 18.0131 29.5909 18.0917 29.6145 18.1467C29.6416 18.2096 29.6574 18.2189 29.6574 18.1717C29.6574 18.1304 29.6381 18.0518 29.6145 17.9968C29.5874 17.9339 29.5715 17.9246 29.5715 17.9718ZM27.2233 18.2999C27.1134 18.5509 26.9212 18.7679 26.6169 18.9845L26.4925 19.073L26.6424 19.0011C26.9221 18.8668 27.4136 18.2276 27.3571 18.0717C27.3487 18.0484 27.2884 18.151 27.2233 18.2999ZM32.1495 18.6849C32.019 18.8251 31.9122 18.9515 31.9122 18.9655C31.9122 19.0081 32.3161 18.6029 32.3675 18.5088C32.4363 18.3827 32.4136 18.4012 32.1495 18.6849ZM21.7472 18.6899C21.6373 18.8058 21.4912 18.9406 21.4225 18.9895C21.3005 19.0764 21.301 19.0764 21.4475 18.9932C21.6289 18.8901 21.8633 18.6782 21.928 18.5588C21.9948 18.4358 21.9734 18.4513 21.7472 18.6899ZM24.7692 18.7461C24.8338 18.8148 24.8949 18.871 24.9051 18.871C24.9467 18.871 24.7408 18.6242 24.6981 18.6228C24.6727 18.622 24.7047 18.6774 24.7692 18.7461ZM20.5365 19.2065C20.6126 19.218 20.725 19.2177 20.7863 19.2059C20.8477 19.194 20.7857 19.1845 20.6483 19.1849C20.5109 19.1853 20.4606 19.195 20.5365 19.2065ZM25.7814 19.2065C25.8574 19.218 25.9698 19.2177 26.0311 19.2059C26.0926 19.194 26.0305 19.1845 25.8931 19.1849C25.7558 19.1853 25.7054 19.195 25.7814 19.2065ZM30.9763 19.2065C31.0523 19.218 31.1647 19.2177 31.226 19.2059C31.2874 19.194 31.2254 19.1845 31.088 19.1849C30.9507 19.1853 30.9003 19.195 30.9763 19.2065ZM17.0004 26.5135C17.0004 28.2305 17.0066 28.933 17.0144 28.0744C17.022 27.2159 17.022 25.811 17.0144 24.9525C17.0066 24.094 17.0004 24.7964 17.0004 26.5135ZM35.7679 23.9419L35.7584 24.4923L34.8968 24.4752C34.4229 24.4658 33.95 24.4767 33.8459 24.4993C33.7284 24.5248 34.0591 24.538 34.7201 24.5343L35.7834 24.528L35.7984 24.2471C35.8066 24.0925 35.8053 23.8367 35.7954 23.6787C35.7852 23.5158 35.7733 23.6297 35.7679 23.9419ZM33.3733 24.5998C33.4214 24.6123 33.5 24.6123 33.5481 24.5998C33.5962 24.5872 33.5568 24.577 33.4607 24.577C33.3645 24.577 33.3252 24.5872 33.3733 24.5998ZM32.8113 24.716C32.7586 24.7504 32.7882 24.7556 32.9112 24.733C33.1266 24.6934 33.1673 24.665 33.007 24.666C32.9406 24.6664 32.8525 24.6889 32.8113 24.716ZM30.0976 26.1186C29.9375 26.2533 29.8211 26.3636 29.8389 26.3636C29.8567 26.3636 29.9877 26.2683 30.13 26.1519C30.2723 26.0356 30.3981 25.9344 30.4096 25.9272C30.4209 25.9199 30.4209 25.9049 30.4096 25.8938C30.3981 25.8827 30.2577 25.9839 30.0976 26.1186ZM29.5147 26.6381C29.4504 26.7068 29.407 26.7712 29.4187 26.7814C29.4302 26.7917 29.492 26.7355 29.5558 26.6567C29.6989 26.4804 29.6737 26.469 29.5147 26.6381ZM33.6908 26.5905C29.3682 27.5317 27.9952 33.2055 31.4627 35.798C31.5588 35.8698 31.6487 35.9431 31.6625 35.9607C31.7019 36.0114 32.2099 36.3072 32.5149 36.4572C33.9839 37.1796 36.1509 37.0608 37.4234 36.1883L37.5649 36.0913L38.9469 37.4652C40.3276 38.8376 40.5256 39.0026 40.7885 38.9996C40.8979 38.9983 40.8703 38.9778 40.662 38.9059C40.422 38.8231 40.2594 38.678 39.0256 37.4465C37.5612 35.9848 37.578 35.9981 37.3696 36.1417C37.1046 36.3243 36.489 36.5886 36.0831 36.6937C35.9732 36.7222 35.7861 36.7711 35.6673 36.8025C35.3398 36.8889 34.1026 36.8722 33.6855 36.7755C33.4932 36.731 33.2737 36.6827 33.1978 36.6682C33.1219 36.6539 33.0476 36.6222 33.0325 36.5978C33.0175 36.5735 32.9707 36.5536 32.9283 36.5536C32.6261 36.5536 31.5659 35.8618 31.0215 35.3093C29.5058 33.7715 29.1145 31.1842 30.1235 29.3731C30.1732 29.2839 30.2611 29.1265 30.3188 29.0235C30.473 28.7481 30.6471 28.5251 30.9857 28.169C31.5089 27.6189 32.142 27.187 32.8113 26.9239C35.3104 25.9414 38.1779 27.0454 39.3548 29.4432C39.4648 29.6671 39.5547 29.885 39.5547 29.9272C39.5547 29.9696 39.5745 30.0164 39.5989 30.0314C39.6233 30.0465 39.655 30.1208 39.6693 30.1967C39.6838 30.2726 39.7321 30.492 39.7766 30.6844C39.8733 31.1014 39.89 32.3387 39.8036 32.6662C39.7722 32.785 39.7232 32.9721 39.6946 33.082C39.5795 33.5234 39.2489 34.273 39.1005 34.4282C38.9921 34.5416 39.1272 34.7019 40.4292 36.0045C41.5823 37.1581 41.8188 37.4191 41.9004 37.6282C41.9656 37.7952 41.9984 37.8395 41.9999 37.7624C42.0048 37.5271 41.8091 37.2954 40.4665 35.9463L39.0918 34.5648L39.1897 34.4228C40.0668 33.1512 40.1849 30.9916 39.4583 29.5138C39.3083 29.2088 39.0125 28.7008 38.9618 28.6613C38.9442 28.6476 38.8632 28.5472 38.7818 28.4382C37.7189 27.014 35.4793 26.2011 33.6908 26.5905ZM29.1935 27.0082L29.0473 27.1878L29.216 27.0271C29.3086 26.9387 29.3745 26.8579 29.3621 26.8475C29.3499 26.8371 29.2739 26.9094 29.1935 27.0082ZM34.0601 28.6333C31.329 29.2458 30.6718 32.784 32.9991 34.3453C35.8426 36.2528 39.2311 32.7607 37.2915 29.9219C37.0695 29.5969 36.9544 29.4734 36.6259 29.2084C35.9771 28.6848 34.9034 28.4442 34.0601 28.6333ZM35.6336 28.7759C36.221 28.9527 37.3069 29.7579 37.3069 30.0164C37.3069 30.0456 37.3481 30.1292 37.3986 30.2021C38.4157 31.674 37.5086 34.0306 35.6835 34.6577C34.9069 34.9246 33.7975 34.8081 33.2032 34.3975C33.1303 34.347 33.046 34.3058 33.0159 34.3058C32.9021 34.3058 32.1829 33.5226 32.0292 33.2312C31.6852 32.5793 31.5117 31.384 31.7078 31.0177C31.7378 30.9616 31.7624 30.8812 31.7624 30.839C31.7624 30.7183 31.9876 30.2567 32.1899 29.9624C32.9511 28.8559 34.3262 28.3821 35.6336 28.7759ZM18.875 31.6952C23.7993 31.7295 27.4666 31.7298 27.4666 31.6959C27.4666 31.6753 25.112 31.6638 22.2342 31.6703C19.3564 31.6768 17.8448 31.688 18.875 31.6952ZM17 34.131C17 35.4497 17.0065 35.982 17.0144 35.3138C17.0222 34.6457 17.0222 33.5668 17.0144 32.9162C17.0064 32.2657 17 32.8123 17 34.131ZM27.4725 32.162C27.4757 32.3658 27.4948 32.6 27.5149 32.6824C27.5349 32.7648 27.5405 32.6075 27.5271 32.3327C27.4986 31.7418 27.4641 31.6342 27.4725 32.162ZM27.57 32.9862C27.572 33.0664 27.5935 33.1769 27.6177 33.2319C27.6473 33.2985 27.6521 33.2571 27.6323 33.107C27.5972 32.8422 27.565 32.7798 27.57 32.9862ZM27.6671 33.4608C27.6675 33.5272 27.69 33.6152 27.7171 33.6564C27.7516 33.7091 27.7567 33.6795 27.7341 33.5565C27.6945 33.3411 27.6661 33.3004 27.6671 33.4608ZM29.0151 36.187C29.0151 36.2142 29.0769 36.291 29.1524 36.3575L29.2898 36.4787L29.1649 36.3288C29.0962 36.2464 29.0344 36.1696 29.0275 36.1581C29.0207 36.1467 29.0151 36.1596 29.0151 36.187ZM29.6819 36.9227C30.0806 37.3086 30.6135 37.7404 30.6135 37.6777C30.6135 37.6643 30.518 37.5843 30.4012 37.5003C30.2844 37.4162 29.9754 37.1556 29.7144 36.9212L29.2398 36.4949L29.6819 36.9227ZM17.0353 36.7034C17.0378 36.8332 17.1165 37.0464 17.1183 36.9282C17.119 36.8733 17.1004 36.7834 17.0768 36.7284C17.0505 36.6672 17.0345 36.6575 17.0353 36.7034ZM17.154 37.1655C17.1727 37.2273 17.2085 37.2999 17.2336 37.3267C17.2587 37.3536 17.254 37.303 17.2232 37.2143C17.1598 37.0329 17.1014 36.9917 17.154 37.1655ZM17.2766 37.4204C17.2766 37.4682 17.522 37.8523 17.5526 37.8523C17.5663 37.8523 17.5181 37.7568 17.4453 37.64C17.2923 37.3945 17.2766 37.3739 17.2766 37.4204ZM17.8261 38.177C17.9753 38.3281 18.1087 38.4517 18.1224 38.4517C18.1361 38.4517 18.0252 38.3281 17.876 38.177C17.7268 38.0259 17.5934 37.9023 17.5797 37.9023C17.5659 37.9023 17.6768 38.0259 17.8261 38.177ZM41.9315 38.1996C41.8423 38.5704 41.5916 38.8147 41.1781 38.9339C41.0019 38.9846 40.9948 38.9919 41.1182 38.9963C41.4982 39.0096 42.045 38.4702 41.9905 38.1357C41.9766 38.0499 41.9642 38.0634 41.9315 38.1996ZM32.9362 38.7514C32.9911 38.775 33.0811 38.7936 33.136 38.7929C33.2163 38.7918 33.2114 38.7835 33.111 38.7514C32.9402 38.6967 32.809 38.6967 32.9362 38.7514ZM18.6752 38.7805C18.6752 38.8179 19.0456 38.9546 19.1084 38.9405C19.1431 38.9326 19.0598 38.8891 18.9234 38.8437C18.7869 38.7983 18.6752 38.7698 18.6752 38.7805ZM33.3483 38.8345C33.3826 38.8483 33.4107 38.8916 33.4107 38.9304C33.4107 38.9693 33.4445 39.0012 33.4857 39.0012C33.5269 39.0012 33.5606 38.9832 33.5606 38.9612C33.5606 38.8929 33.4445 38.8011 33.3633 38.8054C33.3118 38.808 33.3068 38.8177 33.3483 38.8345ZM22.9124 39.0387C24.8445 39.0459 27.9914 39.0459 29.9056 39.0387C31.8197 39.0314 30.2389 39.0254 26.3926 39.0254C22.5464 39.0255 20.9803 39.0314 22.9124 39.0387Z" fill="#E4C4FC"/>
</svg>
