<svg width="53" height="53" viewBox="0 0 53 53" fill="none" xmlns="http://www.w3.org/2000/svg">
<rect width="53" height="53" rx="12" fill="#E7F6FF"/>
<rect width="53" height="53" rx="12" fill="#FFF8DD"/>
<path fill-rule="evenodd" clip-rule="evenodd" d="M24.6326 14.1424C24.4424 14.1973 24.2291 14.3929 22.3519 16.2349C21.5813 16.9908 20.6275 17.9233 20.2323 18.307C19.4822 19.0352 19.2146 19.2969 17.2482 21.2265C16.5904 21.8719 15.6773 22.7655 15.2189 23.2123C14.2138 24.1922 14.1127 24.3504 14.1113 24.9464C14.1086 26.0599 14.7681 26.5138 16.394 26.5175L17.1796 26.5192L17.1968 29.5526C17.2133 32.4449 17.2268 32.7883 17.3343 33.0478C17.7128 33.9616 18.1852 34.4109 19.0754 34.703C19.3835 34.8042 19.4861 34.8079 22.0202 34.8065L24.6459 34.805L24.8706 34.6913C25.6157 34.3142 25.6008 33.2521 24.8456 32.9047C24.6604 32.8195 24.4656 32.8127 22.1493 32.811C19.4263 32.809 19.4948 32.8161 19.2922 32.5154L19.1784 32.3465V28.7851V25.2237L19.0595 25.0102C18.8254 24.5894 18.5907 24.4998 17.6721 24.4802C17.2373 24.4709 16.8815 24.4442 16.8815 24.4209C16.8815 24.3975 17.291 23.9782 17.7915 23.489C18.292 22.9998 19.1826 22.1278 19.7707 21.5511C23.4644 17.9292 24.8819 16.5578 24.9482 16.5423C24.9852 16.5337 25.2262 16.7359 25.484 16.9917C25.7419 17.2475 26.2879 17.7814 26.6974 18.1781C27.107 18.5749 28.0728 19.5186 28.8437 20.2752C29.6148 21.0319 30.9581 22.345 31.8291 23.1932C33.5776 24.8961 33.5338 24.8454 33.4311 25.0435C33.312 25.273 33.3378 25.7504 33.4825 25.9975C34.084 27.0238 35.8555 26.2514 35.8555 24.9628C35.8555 24.3872 35.6905 24.1689 34.0412 22.5618C33.2169 21.7588 32.3442 20.906 32.1019 20.6667L31.6612 20.2318V18.0573C31.6612 15.8173 31.6254 15.4345 31.4155 15.4345C31.3962 15.4345 31.3369 15.395 31.2836 15.3467C30.9119 15.0097 30.3297 15.0645 29.9597 15.4713C29.687 15.7711 29.664 15.8978 29.664 17.0982C29.664 18.1833 29.6494 18.2698 29.4923 18.1183C29.4566 18.084 28.5807 17.2245 27.5456 16.2084C25.3274 14.0307 25.2384 13.9676 24.6326 14.1424Z" fill="#FFBC00"/>
<path fill-rule="evenodd" clip-rule="evenodd" d="M23.8199 14.7228L23.3966 15.1597L23.8335 14.7364C24.0738 14.5036 24.2704 14.307 24.2704 14.2995C24.2704 14.2632 24.2131 14.317 23.8199 14.7228ZM26.2177 14.8507C26.2177 14.8593 26.2908 14.9324 26.38 15.013L26.5423 15.1597L26.3956 14.9974C26.2589 14.8461 26.2177 14.8122 26.2177 14.8507ZM26.9417 15.5841C27.1048 15.7489 27.2494 15.8837 27.2632 15.8837C27.2769 15.8837 27.1547 15.7489 26.9917 15.5841C26.8286 15.4193 26.684 15.2845 26.6702 15.2845C26.6565 15.2845 26.7787 15.4193 26.9417 15.5841ZM29.6343 17.0071C29.6344 17.6113 29.6417 17.8516 29.6504 17.5412C29.6591 17.2307 29.6591 16.7364 29.6503 16.4427C29.6415 16.1489 29.6343 16.403 29.6343 17.0071ZM21.6232 16.8698L21.0998 17.4066L21.6365 16.8832C22.1351 16.3971 22.196 16.3331 22.1599 16.3331C22.1526 16.3331 21.911 16.5746 21.6232 16.8698ZM24.7416 16.745L24.595 16.9073L24.7572 16.7606C24.9085 16.6239 24.9425 16.5827 24.9039 16.5827C24.8953 16.5827 24.8223 16.6558 24.7416 16.745ZM28.8142 17.4066C29.1566 17.7499 29.448 18.0307 29.4618 18.0307C29.4755 18.0307 29.2065 17.7499 28.8641 17.4066C28.5217 17.0633 28.2302 16.7825 28.2165 16.7825C28.2028 16.7825 28.4718 17.0633 28.8142 17.4066ZM25.8174 17.3941C26.1053 17.6893 26.3468 17.9309 26.3542 17.9309C26.3902 17.9309 26.3293 17.8668 25.8308 17.3808L25.294 16.8573L25.8174 17.3941ZM22.472 18.967L21.9486 19.5037L22.4854 18.9803C22.7806 18.6925 23.0221 18.4509 23.0221 18.4436C23.0221 18.4075 22.9581 18.4684 22.472 18.967ZM19.2263 19.2166L18.753 19.7034L19.2398 19.2301C19.6919 18.7904 19.7494 18.7298 19.7132 18.7298C19.7058 18.7298 19.4867 18.9489 19.2263 19.2166ZM27.9404 19.4788C28.2415 19.7808 28.4991 20.028 28.5128 20.028C28.5266 20.028 28.2914 19.7808 27.9903 19.4788C27.6892 19.1767 27.4316 18.9295 27.4178 18.9295C27.4041 18.9295 27.6393 19.1767 27.9404 19.4788ZM20.3499 21.0391L19.8015 21.6008L20.3633 21.0525C20.6722 20.7509 20.925 20.4981 20.925 20.4907C20.925 20.4547 20.8593 20.5173 20.3499 21.0391ZM17.1295 21.2638L16.5061 21.9004L17.1427 21.277C17.734 20.698 17.8019 20.6272 17.7661 20.6272C17.7588 20.6272 17.4724 20.9137 17.1295 21.2638ZM30.3121 21.8006C30.6545 22.1438 30.946 22.4247 30.9597 22.4247C30.9735 22.4247 30.7044 22.1438 30.362 21.8006C30.0196 21.4573 29.7282 21.1764 29.7144 21.1764C29.7007 21.1764 29.9697 21.4573 30.3121 21.8006ZM33.3579 21.8505C33.6729 22.1663 33.9418 22.4247 33.9555 22.4247C33.9692 22.4247 33.7228 22.1663 33.4079 21.8505C33.0929 21.5347 32.824 21.2763 32.8103 21.2763C32.7966 21.2763 33.043 21.5347 33.3579 21.8505ZM18.003 23.336L17.5047 23.8478L18.0165 23.3494C18.298 23.0753 18.5283 22.845 18.5283 22.8376C18.5283 22.8014 18.466 22.8606 18.003 23.336ZM14.7575 23.5856L14.3091 24.0475L14.7709 23.5991C15.1999 23.1827 15.2555 23.1238 15.2193 23.1238C15.2118 23.1238 15.004 23.3316 14.7575 23.5856ZM32.4584 23.8852C33.0841 24.523 33.1582 24.5944 33.1582 24.5585C33.1582 24.5513 32.8493 24.2423 32.4716 23.872L31.7851 23.1987L32.4584 23.8852ZM17.2902 24.4589C17.4745 24.4685 17.7891 24.4685 17.9893 24.459C18.1896 24.4496 18.039 24.4417 17.6545 24.4417C17.27 24.4416 17.1061 24.4493 17.2902 24.4589ZM35.8695 24.9712C35.8695 25.1223 35.8788 25.1841 35.8903 25.1085C35.9017 25.033 35.9017 24.9094 35.8903 24.8339C35.8788 24.7584 35.8695 24.8202 35.8695 24.9712ZM27.466 25.0212C27.4248 25.0477 27.3478 25.07 27.2949 25.0703C26.9068 25.0735 25.4688 26.151 25.4688 26.4387C25.4688 26.4783 25.451 26.5182 25.4294 26.5275C25.0744 26.6779 24.8083 28.3986 25.0292 29.1155C25.1407 29.477 25.3665 29.9772 25.4313 30.0059C25.4519 30.0152 25.4688 30.0584 25.4688 30.1021C25.4688 30.2108 29.4205 34.1713 29.7629 34.4059C31.011 35.2606 32.8002 35.1855 33.7759 34.2373C34.4811 33.5518 33.6734 32.5827 32.8383 33.1122C32.157 33.5443 31.4823 33.6242 30.8863 33.3434C30.5519 33.1858 27.0123 29.7216 26.7152 29.2611C25.8075 27.8544 27.1792 25.958 28.7016 26.5145C29.1217 26.668 29.7222 27.0808 30.0874 27.4673C30.6496 28.0621 31.4875 27.6854 31.3966 26.8786C31.3642 26.5915 30.9424 26.1597 30.2303 25.6849C29.6409 25.2918 29.495 25.2251 28.8242 25.043C28.5248 24.9617 27.5815 24.9465 27.466 25.0212ZM17.1537 29.5649C17.1537 31.2264 17.1599 31.9061 17.1677 31.0753C17.1753 30.2446 17.1753 28.8852 17.1677 28.0545C17.1599 27.2238 17.1537 27.9034 17.1537 29.5649ZM31.6103 28.9642C31.1361 29.053 30.4685 29.3119 30.4203 29.4257C30.4111 29.4473 30.3785 29.4651 30.3478 29.4651C30.1609 29.4651 29.8627 29.9199 29.8627 30.2052C29.8627 30.9147 30.4861 31.1535 31.1754 30.7078C31.3407 30.601 31.5161 30.5136 31.5651 30.5136C31.6142 30.5136 31.6682 30.4911 31.6852 30.4637C31.7297 30.3918 32.6018 30.4035 32.8087 30.4789C33.2317 30.6331 33.4713 30.8443 35.2654 32.6448C37.0001 34.3856 37.1601 34.5604 37.3001 34.8695C37.9897 36.3901 36.4001 38.0445 34.9564 37.309C34.6402 37.1479 34.3474 36.9294 33.9212 36.5364C33.5724 36.2149 33.5057 36.1826 33.1913 36.1826C32.7629 36.1825 32.5091 36.4513 32.5091 36.9053V37.2093L32.8461 37.5482C34.0415 38.7504 35.4698 39.2395 36.6284 38.8432C38.4154 38.232 39.3743 36.3409 38.7887 34.583C38.5483 33.8611 38.505 33.8087 36.3815 31.6684C34.1205 29.3894 34.0652 29.3447 33.1083 29.0217C32.8858 28.9466 31.9053 28.9091 31.6103 28.9642ZM19.4895 34.8422C19.5375 34.8547 19.6162 34.8547 19.6642 34.8422C19.7123 34.8296 19.673 34.8193 19.5768 34.8193C19.4807 34.8193 19.4414 34.8296 19.4895 34.8422Z" fill="#FFD7A3"/>
<path fill-rule="evenodd" clip-rule="evenodd" d="M24.7071 14.0781C24.6585 14.0973 24.763 14.1126 24.9392 14.1121C25.1155 14.1116 25.2338 14.0946 25.2023 14.0744C25.131 14.0288 24.8258 14.0312 24.7071 14.0781ZM24.1309 14.4731C23.9138 14.6888 23.8914 14.7183 24.0688 14.5552C24.2212 14.415 24.4015 14.2633 24.4694 14.2182C24.5373 14.173 24.5653 14.136 24.5314 14.136C24.4977 14.136 24.3175 14.2877 24.1309 14.4731ZM25.4694 14.2404C25.5655 14.2975 26.0703 14.7637 26.5911 15.2762C27.112 15.7888 27.4866 16.1488 27.4238 16.0762C26.8889 15.4587 25.472 14.1369 25.3446 14.1365C25.3171 14.1365 25.3733 14.1832 25.4694 14.2404ZM30.5499 15.1199C30.6117 15.1319 30.7128 15.1319 30.7746 15.1199C30.8364 15.1081 30.7858 15.0983 30.6623 15.0983C30.5387 15.0983 30.4881 15.1081 30.5499 15.1199ZM29.9404 15.4173C29.8428 15.5177 29.7742 15.6114 29.7881 15.6254C29.8021 15.6392 29.819 15.641 29.8259 15.6292C29.8328 15.6175 29.9158 15.5239 30.0104 15.4213C30.2324 15.1805 30.1736 15.1772 29.9404 15.4173ZM21.2211 17.2966C20.2715 18.2358 19.5002 19.0043 19.5073 19.0043C19.5222 19.0043 20.5122 18.0409 21.9809 16.597C22.5477 16.0399 22.997 15.585 22.9796 15.5864C22.9621 15.5877 22.1708 16.3572 21.2211 17.2966ZM31.6839 18.0806C31.6839 19.3027 31.6903 19.8026 31.6983 19.1916C31.7062 18.5805 31.7062 17.5807 31.6983 16.9696C31.6903 16.3586 31.6839 16.8585 31.6839 18.0806ZM27.7662 16.3917C27.7662 16.4384 29.4084 18.0518 29.4795 18.075C29.5121 18.0856 29.5268 18.0856 29.5121 18.075C29.4974 18.0644 29.0985 17.6739 28.6258 17.2073C28.1531 16.7408 27.7662 16.3737 27.7662 16.3917ZM24.143 17.2822C23.7292 17.6939 23.4036 18.0307 23.4196 18.0307C23.4354 18.0307 23.7727 17.7059 24.1689 17.3089C24.5653 16.9118 24.9357 16.5779 24.9922 16.5667C25.0915 16.547 25.0917 16.5461 24.995 16.54C24.9285 16.5357 24.644 16.7835 24.143 17.2822ZM26.5671 18.0948C26.9375 18.4714 27.2553 18.7796 27.2734 18.7796C27.3018 18.7796 26.0196 17.4973 25.9273 17.4332C25.9089 17.4204 26.1968 17.7181 26.5671 18.0948ZM23.2422 18.1449C23.2119 18.1782 22.7441 18.6402 22.2028 19.1716C21.6614 19.7029 21.2256 20.1448 21.2343 20.1535C21.2431 20.1621 21.7268 19.6993 22.3091 19.1249C22.8916 18.5506 23.3522 18.0815 23.3327 18.0825C23.3134 18.0836 23.2725 18.1117 23.2422 18.1449ZM27.3216 18.8421C27.3333 18.8489 27.7921 19.2924 28.3411 19.8276L29.3391 20.8006L28.3659 19.8151C27.8306 19.2731 27.3719 18.8296 27.3464 18.8296C27.321 18.8296 27.3099 18.8352 27.3216 18.8421ZM17.3665 21.0594C16.8233 21.598 16.3861 22.0462 16.3951 22.0551C16.4041 22.0641 16.8596 21.6229 17.4073 21.0746C17.9551 20.5264 18.3921 20.0784 18.3786 20.0789C18.3651 20.0795 17.9096 20.5206 17.3665 21.0594ZM19.7761 21.5392C19.185 22.1223 18.2919 22.9996 17.7913 23.4888C16.9377 24.323 16.8074 24.4718 16.9311 24.4718C16.9586 24.4718 16.9807 24.4437 16.9802 24.4094C16.9798 24.3751 17.8617 23.4774 18.94 22.4148C20.0184 21.352 20.8894 20.4817 20.8757 20.4808C20.862 20.4798 20.3671 20.9562 19.7761 21.5392ZM32.1602 20.7C32.1602 20.7214 33.7216 22.2672 33.8329 22.3562C33.8604 22.3781 33.5011 22.0093 33.0345 21.5366C32.2038 20.6948 32.1602 20.6531 32.1602 20.7ZM30.2129 21.6327C30.2129 21.6495 30.9487 22.3774 31.8481 23.2505C32.7475 24.1234 33.0452 24.4024 32.5097 23.8704C30.8535 22.225 30.2129 21.6009 30.2129 21.6327ZM15.7303 22.6634C15.2203 23.1851 15.2094 23.1997 15.6283 22.799C15.8867 22.552 16.1531 22.2978 16.2203 22.2344C16.2875 22.1709 16.3334 22.1098 16.3223 22.0987C16.3111 22.0876 16.0447 22.3416 15.7303 22.6634ZM34.1184 22.6493C34.1924 22.718 34.2706 22.7742 34.292 22.7742C34.3136 22.7742 34.2707 22.718 34.1965 22.6493C34.1225 22.5807 34.0444 22.5245 34.0229 22.5245C34.0013 22.5245 34.0442 22.5807 34.1184 22.6493ZM34.5221 23.0201C34.6391 23.1279 34.9419 23.4301 35.195 23.6919C35.4483 23.9537 35.6554 24.1539 35.6554 24.1368C35.6554 24.0912 34.3938 22.8241 34.3483 22.8241C34.327 22.8241 34.4051 22.9123 34.5221 23.0201ZM14.2075 24.2767C14.1635 24.3617 14.1365 24.44 14.1473 24.4509C14.1582 24.4617 14.2044 24.3922 14.25 24.2964C14.3527 24.0811 14.3171 24.0646 14.2075 24.2767ZM35.7623 24.4718C35.7623 24.513 35.7816 24.5917 35.8052 24.6466C35.8323 24.7095 35.8481 24.7187 35.8481 24.6715C35.8481 24.6304 35.8288 24.5517 35.8052 24.4968C35.7781 24.4339 35.7623 24.4246 35.7623 24.4718ZM18.4847 24.5407C18.7572 24.6381 18.9565 24.7992 19.0513 24.9992C19.0983 25.0981 19.1486 25.1671 19.163 25.1526C19.276 25.0395 18.6401 24.4691 18.4068 24.4741C18.3404 24.4754 18.368 24.499 18.4847 24.5407ZM14.0665 24.6341C14.0271 24.7811 14.0328 25.1726 14.076 25.2813C14.0948 25.3284 14.11 25.1767 14.11 24.9443C14.11 24.4776 14.1095 24.4739 14.0665 24.6341ZM19.1901 28.7659C19.1844 30.7295 19.196 32.362 19.2162 32.3937C19.2493 32.4457 19.2482 28.718 19.2142 26.1945C19.2069 25.6452 19.196 26.8024 19.1901 28.7659ZM33.2998 25.3587C33.2885 25.4346 33.295 25.5526 33.314 25.6209C33.3391 25.7106 33.3499 25.6724 33.3536 25.4829C33.3589 25.1992 33.3322 25.1374 33.2998 25.3587ZM35.7864 25.2976C35.7692 25.3423 35.7571 25.4163 35.7595 25.4621C35.7619 25.5079 35.7836 25.4791 35.8078 25.3981C35.8549 25.2405 35.8383 25.1625 35.7864 25.2976ZM35.5987 25.7576C35.4429 26.008 35.4202 26.0722 35.5413 25.9198C35.6532 25.7792 35.77 25.5703 35.737 25.5703C35.7251 25.5703 35.6628 25.6546 35.5987 25.7576ZM14.3046 25.795C14.3724 25.9377 14.5418 26.1152 14.7591 26.2711C14.814 26.3104 14.7466 26.2307 14.6093 26.0938C14.472 25.9569 14.3312 25.8 14.2965 25.7451C14.2618 25.6901 14.2654 25.7126 14.3046 25.795ZM33.5583 26.1927C33.5583 26.2318 33.8641 26.4295 33.8878 26.4058C33.9012 26.3924 33.8324 26.3346 33.7352 26.2772C33.6379 26.2198 33.5583 26.1818 33.5583 26.1927ZM15.2085 26.4691C15.2634 26.4927 15.3645 26.5113 15.4332 26.5105L15.558 26.509L15.4332 26.4691C15.3645 26.4471 15.2634 26.4284 15.2085 26.4276L15.1086 26.4261L15.2085 26.4691ZM34.0077 26.4691C34.0489 26.4957 34.1387 26.5156 34.2074 26.5133L34.3322 26.509L34.2074 26.4691C34.0149 26.4074 33.9123 26.4074 34.0077 26.4691ZM34.507 26.4691L34.3822 26.509L34.507 26.5133C34.5756 26.5156 34.6655 26.4957 34.7067 26.4691C34.8021 26.4074 34.6995 26.4074 34.507 26.4691ZM19.3887 32.6372C19.4634 32.7159 19.5334 32.7701 19.5444 32.7578C19.5554 32.7455 19.4942 32.6812 19.4086 32.6149L19.2529 32.4944L19.3887 32.6372ZM17.1865 32.6106C17.1889 32.6518 17.2087 32.7417 17.2307 32.8104L17.2706 32.9352L17.2749 32.8104C17.2773 32.7417 17.2573 32.6518 17.2307 32.6106C17.1876 32.5441 17.1828 32.5441 17.1865 32.6106ZM20.3015 32.7961C22.0412 32.8303 24.7555 32.8318 24.7033 32.7986C24.6715 32.7784 23.5108 32.7666 22.124 32.7722C20.7371 32.7778 19.917 32.7886 20.3015 32.7961ZM25.1241 33.0909C25.1904 33.1765 25.2547 33.2377 25.267 33.2267C25.2793 33.2157 25.2251 33.1457 25.1465 33.071L25.0037 32.9352L25.1241 33.0909ZM17.4146 33.3445C17.5058 33.5932 18.1794 34.4259 18.1794 34.29C18.1794 34.269 18.1107 34.1942 18.0269 34.1236C17.8682 33.9901 17.4804 33.452 17.4804 33.3654C17.4804 33.3379 17.4581 33.3018 17.4311 33.2851C17.4015 33.2669 17.3949 33.2907 17.4146 33.3445ZM25.4344 33.809C25.4344 33.96 25.4438 34.0218 25.4553 33.9463C25.4666 33.8708 25.4666 33.7472 25.4553 33.6717C25.4438 33.5962 25.4344 33.658 25.4344 33.809ZM25.2315 34.3722C25.1418 34.5092 25.1023 34.5933 25.1436 34.5591C25.2308 34.4867 25.4394 34.1604 25.4127 34.1382C25.4027 34.1299 25.3211 34.2353 25.2315 34.3722ZM18.3791 34.4326C18.3791 34.4668 18.6848 34.6184 18.7077 34.5955C18.7185 34.5847 18.649 34.5385 18.5533 34.4928C18.4575 34.4471 18.3791 34.42 18.3791 34.4326ZM20.8882 34.8451C21.5404 34.8529 22.6077 34.8529 23.2599 34.8451C23.9122 34.8371 23.3785 34.8307 22.0741 34.8307C20.7696 34.8307 20.236 34.8371 20.8882 34.8451Z" fill="#FFC700"/>
<path fill-rule="evenodd" clip-rule="evenodd" d="M24.8571 14.0216C24.9189 14.0336 25.02 14.0336 25.0818 14.0216C25.1436 14.0097 25.093 14 24.9694 14C24.8459 14 24.7953 14.0097 24.8571 14.0216ZM24.4933 14.0839C24.4374 14.1065 24.3588 14.1669 24.3186 14.218C24.25 14.3051 24.2514 14.3062 24.34 14.2361C24.3921 14.1949 24.4932 14.1349 24.5647 14.1027C24.7118 14.0368 24.6499 14.0203 24.4933 14.0839ZM25.4715 14.1785C25.5936 14.2568 25.7363 14.3691 25.7886 14.4282C25.8409 14.4873 25.9036 14.5356 25.9281 14.5356C25.9919 14.5356 25.7554 14.3081 25.539 14.1613C25.4378 14.0925 25.3312 14.0363 25.3022 14.0363C25.2731 14.0363 25.3494 14.1004 25.4715 14.1785ZM23.9191 14.5731L23.6462 14.8602L23.9334 14.5873C24.2001 14.3337 24.2433 14.286 24.2062 14.286C24.1985 14.286 24.0693 14.4152 23.9191 14.5731ZM26.0679 14.7104C26.1325 14.7791 26.2047 14.8352 26.2287 14.8352C26.2527 14.8352 26.216 14.7791 26.1473 14.7104C26.0787 14.6417 26.0064 14.5856 25.9865 14.5856C25.9668 14.5856 26.0034 14.6417 26.0679 14.7104ZM23.0471 15.4213C22.113 16.3249 20.5374 17.8817 20.4704 17.9671C20.432 18.0159 21.1029 17.3725 21.9611 16.5375C22.8193 15.7024 23.5214 15.0115 23.5214 15.0021C23.5214 14.9656 23.4823 15.0001 23.0471 15.4213ZM30.5998 15.0703C30.6619 15.0823 30.7517 15.0818 30.7995 15.0693C30.8472 15.0568 30.7964 15.0469 30.6866 15.0476C30.5767 15.0481 30.5377 15.0583 30.5998 15.0703ZM26.6172 15.1894C26.6172 15.2241 28.0104 16.5951 28.5146 17.0564C28.7205 17.2449 28.6082 17.1228 28.2649 16.7852C27.9216 16.4475 27.4105 15.9441 27.129 15.6665C26.8475 15.3887 26.6172 15.174 26.6172 15.1894ZM30.0125 15.2488C29.9713 15.2822 29.9045 15.3545 29.8642 15.4094C29.8088 15.4848 29.8273 15.4788 29.9391 15.3852C30.0206 15.3169 30.1087 15.2439 30.1348 15.2229C30.1648 15.1989 30.1648 15.1854 30.1348 15.1864C30.1087 15.1872 30.0537 15.2153 30.0125 15.2488ZM29.6464 15.7174C29.628 15.7356 29.6144 15.7974 29.6162 15.8547C29.6192 15.9503 29.6233 15.9491 29.6672 15.8391C29.7162 15.7169 29.7059 15.6577 29.6464 15.7174ZM31.7137 18.0491L31.7102 20.1894L32.0971 20.588C32.31 20.8072 32.5515 21.0322 32.6339 21.0882C32.7163 21.1441 32.5646 20.982 32.2969 20.728L31.81 20.2662L31.8065 18.1873C31.8045 17.0439 31.7837 16.0635 31.7601 16.0086C31.7353 15.9507 31.7157 16.808 31.7137 18.0491ZM24.7073 16.806C24.5768 16.9272 24.4701 17.0437 24.4701 17.0649C24.4701 17.086 24.5826 16.9926 24.7199 16.8573L24.9698 16.6113L25.2816 16.9091L25.5936 17.207L25.2956 16.8949C24.9426 16.5253 25.0001 16.534 24.7073 16.806ZM22.094 19.372C20.9931 20.4606 20.0983 21.3513 20.1052 21.3513C20.1122 21.3513 20.4961 20.9815 20.9583 20.5297C23.1486 18.3882 24.1258 17.4204 24.1115 17.4071C24.1027 17.3991 23.1949 18.2832 22.094 19.372ZM29.2386 17.7812C29.4293 17.9734 29.5967 18.1307 29.6104 18.1307C29.6242 18.1307 29.4792 17.9734 29.2885 17.7812C29.0978 17.589 28.9304 17.4317 28.9166 17.4317C28.9029 17.4317 29.0478 17.589 29.2386 17.7812ZM26.5925 18.2308C26.6424 18.286 26.6934 18.3207 26.706 18.3081C26.733 18.2811 26.5907 18.1307 26.5382 18.1307C26.5182 18.1307 26.5426 18.1758 26.5925 18.2308ZM26.7764 18.384C26.7967 18.4445 27.0166 18.615 27.0166 18.5702C27.0166 18.5581 26.9578 18.4971 26.886 18.4347C26.8143 18.3723 26.765 18.3494 26.7764 18.384ZM27.0665 18.664C27.0665 18.6957 27.0875 18.729 27.1131 18.7383C27.1388 18.7474 27.6163 19.2025 28.1742 19.7496C28.7321 20.2967 29.3358 20.8809 29.5158 21.0478C29.6957 21.2147 29.5384 21.0506 29.1663 20.683C28.7941 20.3155 28.1694 19.6978 27.7781 19.3106C27.3867 18.9232 27.0665 18.6323 27.0665 18.664ZM18.3785 19.9832C17.6812 20.6501 15.8892 22.4313 15.9331 22.4137C15.9825 22.394 18.9579 19.48 18.9277 19.4809C18.914 19.4814 18.6668 19.7073 18.3785 19.9832ZM34.1544 22.5855C34.5787 23.0169 34.9349 23.3612 34.9457 23.3503C34.9658 23.3301 34.9263 23.2903 33.952 22.35C33.5576 21.9696 33.6198 22.0418 34.1544 22.5855ZM30.7338 22.2613C30.9245 22.4595 31.09 22.6122 31.1018 22.6006C31.1134 22.5888 31.0905 22.5503 31.051 22.5146C31.0114 22.479 30.8459 22.3263 30.6831 22.1753C30.4052 21.9178 30.4083 21.923 30.7338 22.2613ZM18.1663 23.1975C17.5141 23.8399 16.9804 24.3758 16.9804 24.3884C16.9804 24.4011 17.3231 24.4202 17.7419 24.4308C18.57 24.452 18.6268 24.4676 18.9503 24.765C19.0589 24.8647 19.1151 24.9017 19.0752 24.8471C18.8033 24.4754 18.6085 24.4047 17.7918 24.3814C17.075 24.3609 16.9949 24.3378 17.1831 24.2059C17.3202 24.1099 19.4283 22.0247 19.3855 22.0275C19.3671 22.0286 18.8185 22.5551 18.1663 23.1975ZM31.3607 22.8389C31.3607 22.8561 31.8211 23.324 32.3839 23.8786C33.1768 24.66 33.395 24.9017 33.3529 24.9525C33.323 24.9884 33.3071 25.0437 33.3176 25.0752C33.3281 25.1066 33.3625 25.0758 33.3941 25.0066C33.448 24.8882 32.7756 24.1602 31.3824 22.8284C31.3704 22.817 31.3607 22.8216 31.3607 22.8389ZM14.4176 23.8698C14.2283 24.0794 14.1171 24.2693 14.0649 24.472C14.0473 24.5407 14.0869 24.4817 14.1528 24.3411C14.2188 24.2004 14.3566 23.9925 14.459 23.8792C14.5615 23.7659 14.634 23.6731 14.6203 23.6731C14.6065 23.6731 14.5153 23.7616 14.4176 23.8698ZM35.3052 23.694C35.3052 23.7465 35.4557 23.8888 35.4826 23.8618C35.4952 23.8492 35.4605 23.7982 35.4053 23.7483C35.3503 23.6984 35.3052 23.674 35.3052 23.694ZM35.6265 24.0975C35.8004 24.3537 35.836 24.384 35.7393 24.1938C35.6964 24.1094 35.6234 24.0089 35.5771 23.9704C35.5308 23.932 35.553 23.9892 35.6265 24.0975ZM35.835 24.5469C35.8761 24.7305 35.9047 24.7703 35.9037 24.6426C35.9033 24.59 35.8801 24.5132 35.8522 24.472C35.8152 24.4173 35.8105 24.4376 35.835 24.5469ZM14 24.9464C14.0003 25.1111 14.0096 25.1725 14.0207 25.0828C14.0318 24.993 14.0316 24.8582 14.0202 24.7832C14.0089 24.7082 13.9998 24.7816 14 24.9464ZM27.6644 24.9243C25.2032 25.2869 24.035 28.2866 25.5654 30.314C25.9611 30.838 29.5871 34.4038 29.9271 34.603C31.1866 35.3412 32.9094 35.1866 33.8628 34.2497C34.2605 33.8589 34.1569 33.2151 33.6552 32.9592C33.3513 32.8042 33.183 32.831 32.7087 33.1103C32.0473 33.4995 31.4902 33.5487 30.9073 33.2693C30.4269 33.0393 26.9294 29.5438 26.6715 29.0362C26.3291 28.3625 26.4822 27.4896 27.0313 26.9833C27.8125 26.2633 28.5857 26.309 29.5928 27.1349C30.4462 27.8345 30.4182 27.8169 30.6752 27.8172C31.0939 27.8177 31.5104 27.4145 31.5104 27.0089C31.5104 26.286 29.8015 25.107 28.4892 24.9245C28.0692 24.8661 28.0596 24.8661 27.6644 24.9243ZM28.8241 25.0431C29.495 25.2252 29.6409 25.2919 30.2303 25.685C30.9424 26.1598 31.3641 26.5916 31.3966 26.8787C31.4875 27.6855 30.6496 28.0622 30.0874 27.4674C29.7222 27.0809 29.1217 26.6681 28.7016 26.5146C27.1791 25.9581 25.8075 27.8545 26.7152 29.2612C27.0123 29.7217 30.5519 33.1859 30.8863 33.3435C31.4822 33.6243 32.1569 33.5444 32.8382 33.1123C33.6733 32.5828 34.4811 33.5519 33.7758 34.2374C32.8002 35.1856 31.011 35.2607 29.7628 34.406C29.4204 34.1715 25.4687 30.2109 25.4687 30.1022C25.4687 30.0585 25.4519 30.0153 25.4313 30.006C25.3665 29.9773 25.1407 29.4771 25.0292 29.1156C24.8083 28.3987 25.0744 26.678 25.4294 26.5276C25.451 26.5183 25.4687 26.4784 25.4687 26.4388C25.4687 26.1511 26.9068 25.0736 27.2949 25.0704C27.3478 25.0701 27.4248 25.0478 27.466 25.0213C27.5815 24.9466 28.5248 24.9618 28.8241 25.0431ZM33.2384 25.2501C33.1969 25.3584 33.2016 25.6328 33.2463 25.7031C33.2665 25.7348 33.283 25.628 33.283 25.4659C33.283 25.1412 33.282 25.1365 33.2384 25.2501ZM14.0609 25.4373C14.1109 25.695 14.6365 26.3694 14.7873 26.3694C14.8103 26.3694 14.7158 26.2634 14.5772 26.1339C14.3317 25.9042 14.2252 25.7518 14.0965 25.4457L14.0336 25.2959L14.0609 25.4373ZM19.2331 28.7661C19.2354 30.6747 19.2553 32.2925 19.2773 32.3612C19.2992 32.4298 19.3191 30.9019 19.3214 28.9658C19.3241 26.7705 19.3075 25.4175 19.2773 25.3708C19.2458 25.3221 19.2303 26.5091 19.2331 28.7661ZM33.3082 25.8584C33.3074 26.0399 33.6762 26.416 33.9321 26.4945C33.987 26.5113 33.9533 26.481 33.8572 26.4271C33.6499 26.3107 33.4933 26.1505 33.3865 25.945C33.3437 25.8626 33.3085 25.8237 33.3082 25.8584ZM35.4023 26.1073L35.2303 26.2945L35.4176 26.1225C35.5918 25.9622 35.6278 25.92 35.5896 25.92C35.5814 25.92 35.4971 26.0043 35.4023 26.1073ZM35.0064 26.3723C34.9108 26.4256 34.8658 26.4688 34.9065 26.4681C34.9473 26.4675 35.0368 26.4231 35.1055 26.3694C35.2623 26.2467 35.2298 26.2477 35.0064 26.3723ZM14.8833 26.3982C14.8833 26.4319 15.1427 26.5262 15.1674 26.5013C15.1788 26.4901 15.1195 26.4569 15.0356 26.4277C14.9518 26.3985 14.8833 26.3853 14.8833 26.3982ZM34.3815 26.5192L34.032 26.5515L34.3565 26.5595C34.535 26.564 34.7148 26.5458 34.756 26.5192C34.7972 26.4926 34.8084 26.4744 34.781 26.4789C34.7535 26.4832 34.5737 26.5015 34.3815 26.5192ZM15.6947 26.5564C15.9624 26.5654 16.4006 26.5654 16.6683 26.5564C16.9361 26.5474 16.717 26.54 16.1815 26.54C15.646 26.54 15.4269 26.5474 15.6947 26.5564ZM31.5354 28.8972C30.9991 29.0318 30.5098 29.2502 30.173 29.5052C29.3165 30.154 30.0777 31.4486 30.9862 30.8882C31.7551 30.4139 32.3851 30.3407 33.018 30.6523C33.504 30.8915 36.9331 34.3211 37.2026 34.8374C37.7635 35.9119 37.025 37.2773 35.7866 37.4557L35.48 37.4998L35.8145 37.4792C37.0184 37.4046 37.815 36.0053 37.3001 34.8696C37.1601 34.5605 37 34.3857 35.2654 32.6449C33.4712 30.8444 33.2317 30.6332 32.8087 30.479C32.6018 30.4036 31.7296 30.3919 31.6852 30.4638C31.6682 30.4913 31.6142 30.5137 31.5651 30.5137C31.5161 30.5137 31.3407 30.6011 31.1754 30.708C30.4861 31.1536 29.8627 30.9148 29.8627 30.2053C29.8627 29.92 30.1609 29.4652 30.3478 29.4652C30.3785 29.4652 30.4111 29.4474 30.4203 29.4258C30.5388 29.1461 31.8801 28.8576 32.6214 28.9525C33.8132 29.105 33.8043 29.0987 36.2821 31.5805C38.6808 33.9831 38.7384 34.061 38.9429 35.1823L38.9883 35.432L38.9943 35.225C39.0019 34.9581 38.8382 34.4267 38.6121 33.984C38.3809 33.5316 34.4231 29.5356 33.9703 29.2975C33.314 28.9525 32.1064 28.754 31.5354 28.8972ZM19.3272 32.5367C19.3272 32.7433 19.5601 32.7606 22.1733 32.7489L24.6948 32.7374L22.1483 32.7116C19.7615 32.6874 19.427 32.6681 19.427 32.5555C19.427 32.5311 19.4046 32.511 19.3771 32.511C19.3497 32.511 19.3272 32.5226 19.3272 32.5367ZM17.1302 32.6995C17.1302 32.7847 17.1523 32.8682 17.1794 32.885C17.2101 32.9039 17.2168 32.8536 17.1972 32.7507C17.1552 32.5298 17.1302 32.5109 17.1302 32.6995ZM24.8902 32.8584C24.9976 32.9141 25.1268 32.9969 25.1773 33.0426C25.2277 33.0883 25.269 33.112 25.269 33.0954C25.269 33.0416 24.948 32.8231 24.8196 32.7896C24.7454 32.7702 24.7738 32.7981 24.8902 32.8584ZM25.4751 33.8092C25.4751 33.9927 25.4833 34.0133 25.5202 33.9215C25.5471 33.8545 25.5471 33.7639 25.5202 33.6969C25.4833 33.6051 25.4751 33.6257 25.4751 33.8092ZM17.7551 33.9728C17.831 34.0766 17.9036 34.151 17.9164 34.1381C17.9292 34.1253 17.8672 34.0404 17.7784 33.9495L17.617 33.7842L17.7551 33.9728ZM17.9805 34.1868C17.9827 34.2498 18.4239 34.5794 18.4591 34.5442C18.4744 34.5288 18.4344 34.4893 18.3702 34.4563C18.3061 34.4232 18.1919 34.3386 18.1163 34.2681C18.0408 34.1977 17.9798 34.1611 17.9805 34.1868ZM25.0443 34.658C24.9345 34.7382 24.7997 34.8072 24.7447 34.8116C24.662 34.8181 24.6596 34.8233 24.7309 34.842C24.8052 34.8615 25.269 34.5932 25.269 34.5308C25.269 34.496 25.2577 34.5024 25.0443 34.658ZM18.5283 34.5824C18.5283 34.6022 18.6758 34.6716 18.9925 34.8008C19.0693 34.8322 19.2041 34.8546 19.2921 34.851C19.4219 34.8454 19.4285 34.8405 19.3272 34.8252C19.162 34.8001 18.8158 34.6985 18.753 34.6568C18.6797 34.6081 18.5283 34.5579 18.5283 34.5824ZM20.7662 34.8952C21.489 34.9029 22.6574 34.9029 23.3626 34.8952C24.0679 34.8873 23.4765 34.881 22.0484 34.881C20.6204 34.881 20.0435 34.8873 20.7662 34.8952ZM38.9331 36.0811C38.7512 37.4639 37.6543 38.6403 36.2789 38.9276C36.0326 38.9791 36.0104 38.9911 36.1541 38.9956C37.3766 39.0334 39.14 37.1289 38.9912 35.9313C38.9776 35.8218 38.962 35.8621 38.9331 36.0811ZM32.9937 36.1404C32.5917 36.2576 32.3723 36.6388 32.4459 37.0922C32.5474 37.7178 34.5709 39.023 35.3979 38.9962C35.567 38.9907 35.5623 38.987 35.3302 38.9442C34.4417 38.7799 33.6008 38.3075 32.8461 37.5483L32.5091 37.2094V36.9055C32.5091 36.4515 32.7628 36.1826 33.1913 36.1827C33.5057 36.1827 33.5724 36.215 33.9211 36.5365C34.5164 37.0855 35.0983 37.4557 35.3613 37.4531C35.4397 37.4522 35.3805 37.4109 35.187 37.3314C34.8067 37.175 34.4709 36.946 34.0014 36.5229C33.5511 36.1169 33.3439 36.0383 32.9937 36.1404Z" fill="#FFD7A3"/>
</svg>
