<svg width="49" height="49" viewBox="0 0 49 49" fill="none" xmlns="http://www.w3.org/2000/svg">
<rect width="49" height="49" rx="12" fill="#E4FFF4"/>
<path fill-rule="evenodd" clip-rule="evenodd" d="M16.0701 12.1126C15.7012 12.2093 15.2776 12.4099 15.1053 12.5698C15.0514 12.6198 14.9575 12.694 14.8969 12.7348C14.5879 12.9421 14.199 13.608 14.0754 14.141C13.9527 14.67 13.9899 34.1892 14.1142 34.5044C14.3295 35.0501 14.652 35.5256 14.9661 35.7603C15.0696 35.8376 15.1616 35.9174 15.1706 35.9377C15.1796 35.9579 15.2093 35.9744 15.2366 35.9744C15.2638 35.9744 15.3456 36.0167 15.4182 36.0685C15.4909 36.1202 15.7037 36.2139 15.8912 36.2767L16.2323 36.3909H24.1458H32.0593L32.4003 36.2767C32.5878 36.2139 32.8006 36.1202 32.8733 36.0685C32.9459 36.0167 33.0183 35.9744 33.034 35.9744C33.0636 35.9744 33.1542 35.9046 33.4412 35.6606C33.7496 35.3982 34.0387 34.9166 34.1873 34.418C34.3473 33.8805 34.3473 14.5483 34.1873 14.0108C34.0255 13.4676 33.7365 13.0094 33.3698 12.7147C33.2419 12.6119 33.1262 12.5143 33.1128 12.4975C33.0451 12.4138 32.5216 12.192 32.1938 12.1082C31.6189 11.9612 16.6325 11.9652 16.0701 12.1126ZM18.109 26.2925C18.2535 26.3681 18.448 26.5722 18.5531 26.7585C18.6875 26.9969 18.8441 27.2811 18.9353 27.4528C19.0392 27.648 19.0599 27.6389 19.2286 27.3257C19.3515 27.0973 19.503 26.8237 19.5964 26.6613C20.0217 25.9223 21.1078 26.1746 21.1078 27.0125C21.1078 27.2642 21.0465 27.4072 20.6064 28.1834C20.5375 28.3047 20.3683 28.6117 20.2304 28.8656L19.9795 29.3273L20.3065 29.9191C20.4864 30.2446 20.6775 30.5881 20.7312 30.6824C21.2311 31.56 21.2439 31.9314 20.7862 32.2805C20.3779 32.5919 19.8238 32.4139 19.545 31.8818C19.4747 31.7477 19.406 31.6269 19.3921 31.6134C19.3783 31.5999 19.314 31.4838 19.2493 31.3554C19.0707 31.001 19.0336 30.9909 18.8987 31.2584C18.8343 31.3863 18.7701 31.5019 18.7561 31.5154C18.7422 31.5289 18.6647 31.6691 18.584 31.827C18.3497 32.2854 18.0301 32.4803 17.6202 32.4148C17.4059 32.3806 17.0408 32.091 17.0408 31.9554C17.0408 31.9053 17.0187 31.8506 16.9918 31.8339C16.9648 31.8172 16.9428 31.718 16.9428 31.6134C16.9428 31.5088 16.9648 31.4096 16.9918 31.3929C17.0187 31.3762 17.0408 31.3198 17.0408 31.2675C17.0408 31.2152 17.0577 31.1724 17.0782 31.1724C17.0988 31.1724 17.1537 31.0897 17.2001 30.9887C17.2466 30.8876 17.3362 30.7167 17.3994 30.6089C17.4625 30.5011 17.61 30.2365 17.727 30.0209C17.8441 29.8053 17.9795 29.5635 18.0279 29.4835L18.1159 29.3381L17.9128 28.969C17.8011 28.766 17.6508 28.4897 17.5788 28.3549C17.5069 28.2202 17.3965 28.0217 17.3335 27.9139C16.8679 27.1159 16.8428 26.8064 17.2136 26.4356C17.4227 26.2265 17.8515 26.158 18.109 26.2925ZM23.3026 26.3566C23.7021 26.6156 23.7048 26.6326 23.7048 28.8444V30.7804H24.6118C25.9327 30.7804 26.3389 31.0329 26.2194 31.7798C26.1239 32.3773 25.831 32.4612 23.9213 32.4381L22.5944 32.4219L22.4146 32.2846C22.0513 32.0074 22.0649 32.1147 22.0493 29.4202C22.0404 27.8903 22.0536 26.9386 22.0852 26.8211C22.2273 26.2932 22.8427 26.0584 23.3026 26.3566ZM30.9818 26.3531C31.3154 26.5911 31.4328 27.0506 31.2452 27.3847C31.0178 27.7898 30.8584 27.8398 29.793 27.8402C29.0623 27.8404 28.9887 27.8485 28.8988 27.9384C28.6833 28.1539 28.8337 28.4774 29.1494 28.4774C31.1177 28.4774 32.0786 30.5448 30.7354 31.8898C30.2813 32.3445 30.0652 32.4105 28.9478 32.4356C27.5382 32.4674 27.1838 32.3021 27.1838 31.613C27.1838 30.9781 27.4879 30.8103 28.6772 30.7895C29.6601 30.7722 29.6828 30.7647 29.6828 30.4576C29.6828 30.1862 29.6406 30.165 29.0244 30.1264C28.7567 30.1096 28.5152 30.0735 28.4879 30.0461C28.4606 30.0188 28.4083 29.9964 28.3718 29.9964C28.2745 29.9964 27.7334 29.618 27.6752 29.5092C27.6478 29.458 27.5934 29.384 27.5542 29.3448C27.4421 29.2327 27.2818 28.9249 27.2818 28.8217C27.2818 28.7703 27.2597 28.7146 27.2328 28.6979C27.1656 28.6564 27.1707 27.7796 27.239 27.61C27.525 26.8996 27.8944 26.5047 28.4617 26.3025C28.8292 26.1717 30.7823 26.2108 30.9818 26.3531Z" fill="#20D489"/>
</svg>
