<svg width="48" height="48" viewBox="0 0 48 48" fill="none" xmlns="http://www.w3.org/2000/svg">
<path d="M18 3.4641C21.7128 1.32051 26.2872 1.32051 30 3.4641L38.7846 8.5359C42.4974 10.6795 44.7846 14.641 44.7846 18.9282V29.0718C44.7846 33.359 42.4974 37.3205 38.7846 39.4641L30 44.5359C26.2872 46.6795 21.7128 46.6795 18 44.5359L9.21539 39.4641C5.50258 37.3205 3.21539 33.359 3.21539 29.0718V18.9282C3.21539 14.641 5.50258 10.6795 9.21539 8.5359L18 3.4641Z" fill="#20D489"/>
<path d="M27.5522 28.4224C27.5522 27.6411 27.2756 27.0389 26.7222 26.6157C26.1769 26.1925 25.1882 25.7653 23.7559 25.334C22.3236 24.9027 21.1842 24.4225 20.3379 23.8936C18.7184 22.8763 17.9087 21.5498 17.9087 19.9141C17.9087 18.4818 18.4906 17.3018 19.6543 16.374C20.8262 15.4463 22.3439 14.9824 24.2075 14.9824C25.4445 14.9824 26.5472 15.2103 27.5156 15.666C28.484 16.1217 29.245 16.7728 29.7983 17.6191C30.3517 18.4574 30.6284 19.3892 30.6284 20.4146H27.5522C27.5522 19.4868 27.2593 18.7625 26.6733 18.2417C26.0955 17.7127 25.2655 17.4482 24.1831 17.4482C23.174 17.4482 22.3887 17.6639 21.8271 18.0952C21.2738 18.5265 20.9971 19.1287 20.9971 19.9019C20.9971 20.5529 21.2982 21.0981 21.9004 21.5376C22.5026 21.9689 23.4954 22.3921 24.8789 22.8071C26.2624 23.214 27.3732 23.682 28.2114 24.2109C29.0496 24.7318 29.6641 25.334 30.0547 26.0176C30.4453 26.693 30.6406 27.4865 30.6406 28.3979C30.6406 29.8791 30.071 31.0591 28.9316 31.938C27.8005 32.8088 26.2624 33.2441 24.3174 33.2441C23.0316 33.2441 21.8475 33.0081 20.7651 32.5361C19.6909 32.056 18.8527 31.3968 18.2505 30.5586C17.6564 29.7204 17.3594 28.7438 17.3594 27.6289H20.4478C20.4478 28.638 20.7814 29.4193 21.4487 29.9727C22.116 30.526 23.0723 30.8027 24.3174 30.8027C25.3916 30.8027 26.1973 30.5871 26.7344 30.1558C27.2796 29.7163 27.5522 29.1385 27.5522 28.4224Z" fill="white"/>
</svg>
