<svg width="1042" height="123" viewBox="0 0 1042 123" fill="none" xmlns="http://www.w3.org/2000/svg">
<path d="M72.85 102.4H33.55L27.25 121H0.4L38.5 15.7H68.2L106.3 121H79.15L72.85 102.4ZM66.25 82.6L53.2 44.05L40.3 82.6H66.25ZM143.546 10V121H117.896V10H143.546ZM241.034 77.8C241.034 80.2 240.884 82.7 240.584 85.3H182.534C182.934 90.5 184.584 94.5 187.484 97.3C190.484 100 194.134 101.35 198.434 101.35C204.834 101.35 209.284 98.65 211.784 93.25H239.084C237.684 98.75 235.134 103.7 231.434 108.1C227.834 112.5 223.284 115.95 217.784 118.45C212.284 120.95 206.134 122.2 199.334 122.2C191.134 122.2 183.834 120.45 177.434 116.95C171.034 113.45 166.034 108.45 162.434 101.95C158.834 95.45 157.034 87.85 157.034 79.15C157.034 70.45 158.784 62.85 162.284 56.35C165.884 49.85 170.884 44.85 177.284 41.35C183.684 37.85 191.034 36.1 199.334 36.1C207.434 36.1 214.634 37.8 220.934 41.2C227.234 44.6 232.134 49.45 235.634 55.75C239.234 62.05 241.034 69.4 241.034 77.8ZM214.784 71.05C214.784 66.65 213.284 63.15 210.284 60.55C207.284 57.95 203.534 56.65 199.034 56.65C194.734 56.65 191.084 57.9 188.084 60.4C185.184 62.9 183.384 66.45 182.684 71.05H214.784ZM301.216 99.25V121H288.166C278.866 121 271.616 118.75 266.416 114.25C261.216 109.65 258.616 102.2 258.616 91.9V58.6H248.416V37.3H258.616V16.9H284.266V37.3H301.066V58.6H284.266V92.2C284.266 94.7 284.866 96.5 286.066 97.6C287.266 98.7 289.266 99.25 292.066 99.25H301.216ZM366.953 36.4C376.553 36.4 384.253 39.6 390.053 46C395.853 52.3 398.753 61 398.753 72.1V121H373.253V75.55C373.253 69.95 371.803 65.6 368.903 62.5C366.003 59.4 362.103 57.85 357.203 57.85C352.303 57.85 348.403 59.4 345.503 62.5C342.603 65.6 341.153 69.95 341.153 75.55V121H315.503V10H341.153V48.55C343.753 44.85 347.303 41.9 351.803 39.7C356.303 37.5 361.353 36.4 366.953 36.4ZM495.477 77.8C495.477 80.2 495.327 82.7 495.027 85.3H436.977C437.377 90.5 439.027 94.5 441.927 97.3C444.927 100 448.577 101.35 452.877 101.35C459.277 101.35 463.727 98.65 466.227 93.25H493.527C492.127 98.75 489.577 103.7 485.877 108.1C482.277 112.5 477.727 115.95 472.227 118.45C466.727 120.95 460.577 122.2 453.777 122.2C445.577 122.2 438.277 120.45 431.877 116.95C425.477 113.45 420.477 108.45 416.877 101.95C413.277 95.45 411.477 87.85 411.477 79.15C411.477 70.45 413.227 62.85 416.727 56.35C420.327 49.85 425.327 44.85 431.727 41.35C438.127 37.85 445.477 36.1 453.777 36.1C461.877 36.1 469.077 37.8 475.377 41.2C481.677 44.6 486.577 49.45 490.077 55.75C493.677 62.05 495.477 69.4 495.477 77.8ZM469.227 71.05C469.227 66.65 467.727 63.15 464.727 60.55C461.727 57.95 457.977 56.65 453.477 56.65C449.177 56.65 445.527 57.9 442.527 60.4C439.627 62.9 437.827 66.45 437.127 71.05H469.227ZM521.909 28.6C517.409 28.6 513.709 27.3 510.809 24.7C508.009 22 506.609 18.7 506.609 14.8C506.609 10.8 508.009 7.49999 510.809 4.89999C513.709 2.19999 517.409 0.849991 521.909 0.849991C526.309 0.849991 529.909 2.19999 532.709 4.89999C535.609 7.49999 537.059 10.8 537.059 14.8C537.059 18.7 535.609 22 532.709 24.7C529.909 27.3 526.309 28.6 521.909 28.6ZM534.659 37.3V121H509.009V37.3H534.659ZM548.147 79C548.147 70.4 549.747 62.85 552.947 56.35C556.247 49.85 560.697 44.85 566.297 41.35C571.897 37.85 578.147 36.1 585.047 36.1C590.947 36.1 596.097 37.3 600.497 39.7C604.997 42.1 608.447 45.25 610.847 49.15V37.3H636.497V121H610.847V109.15C608.347 113.05 604.847 116.2 600.347 118.6C595.947 121 590.797 122.2 584.897 122.2C578.097 122.2 571.897 120.45 566.297 116.95C560.697 113.35 556.247 108.3 552.947 101.8C549.747 95.2 548.147 87.6 548.147 79ZM610.847 79.15C610.847 72.75 609.047 67.7 605.447 64C601.947 60.3 597.647 58.45 592.547 58.45C587.447 58.45 583.097 60.3 579.497 64C575.997 67.6 574.247 72.6 574.247 79C574.247 85.4 575.997 90.5 579.497 94.3C583.097 98 587.447 99.85 592.547 99.85C597.647 99.85 601.947 98 605.447 94.3C609.047 90.6 610.847 85.55 610.847 79.15ZM726.291 15.7C737.391 15.7 747.091 17.9 755.391 22.3C763.691 26.7 770.091 32.9 774.591 40.9C779.191 48.8 781.491 57.95 781.491 68.35C781.491 78.65 779.191 87.8 774.591 95.8C770.091 103.8 763.641 110 755.241 114.4C746.941 118.8 737.291 121 726.291 121H686.841V15.7H726.291ZM724.641 98.8C734.341 98.8 741.891 96.15 747.291 90.85C752.691 85.55 755.391 78.05 755.391 68.35C755.391 58.65 752.691 51.1 747.291 45.7C741.891 40.3 734.341 37.6 724.641 37.6H712.491V98.8H724.641ZM790.725 79C790.725 70.4 792.325 62.85 795.525 56.35C798.825 49.85 803.275 44.85 808.875 41.35C814.475 37.85 820.725 36.1 827.625 36.1C833.525 36.1 838.675 37.3 843.075 39.7C847.575 42.1 851.025 45.25 853.425 49.15V37.3H879.075V121H853.425V109.15C850.925 113.05 847.425 116.2 842.925 118.6C838.525 121 833.375 122.2 827.475 122.2C820.675 122.2 814.475 120.45 808.875 116.95C803.275 113.35 798.825 108.3 795.525 101.8C792.325 95.2 790.725 87.6 790.725 79ZM853.425 79.15C853.425 72.75 851.625 67.7 848.025 64C844.525 60.3 840.225 58.45 835.125 58.45C830.025 58.45 825.675 60.3 822.075 64C818.575 67.6 816.825 72.6 816.825 79C816.825 85.4 818.575 90.5 822.075 94.3C825.675 98 830.025 99.85 835.125 99.85C840.225 99.85 844.525 98 848.025 94.3C851.625 90.6 853.425 85.55 853.425 79.15ZM944.282 99.25V121H931.232C921.932 121 914.682 118.75 909.482 114.25C904.282 109.65 901.682 102.2 901.682 91.9V58.6H891.482V37.3H901.682V16.9H927.332V37.3H944.132V58.6H927.332V92.2C927.332 94.7 927.932 96.5 929.132 97.6C930.332 98.7 932.332 99.25 935.132 99.25H944.282ZM953.47 79C953.47 70.4 955.07 62.85 958.27 56.35C961.57 49.85 966.02 44.85 971.62 41.35C977.22 37.85 983.47 36.1 990.37 36.1C996.27 36.1 1001.42 37.3 1005.82 39.7C1010.32 42.1 1013.77 45.25 1016.17 49.15V37.3H1041.82V121H1016.17V109.15C1013.67 113.05 1010.17 116.2 1005.67 118.6C1001.27 121 996.12 122.2 990.22 122.2C983.42 122.2 977.22 120.45 971.62 116.95C966.02 113.35 961.57 108.3 958.27 101.8C955.07 95.2 953.47 87.6 953.47 79ZM1016.17 79.15C1016.17 72.75 1014.37 67.7 1010.77 64C1007.27 60.3 1002.97 58.45 997.87 58.45C992.77 58.45 988.42 60.3 984.82 64C981.32 67.6 979.57 72.6 979.57 79C979.57 85.4 981.32 90.5 984.82 94.3C988.42 98 992.77 99.85 997.87 99.85C1002.97 99.85 1007.27 98 1010.77 94.3C1014.37 90.6 1016.17 85.55 1016.17 79.15Z" fill="#181C32"/>
</svg>
