<svg width="35" height="43" viewBox="0 0 35 43" fill="none" xmlns="http://www.w3.org/2000/svg">
<path fill-rule="evenodd" clip-rule="evenodd" d="M16.5627 1.08999C16.0378 1.68997 14.6876 3.09291 13.5627 4.20794C11.2737 6.47554 11.4498 6.08032 11.9416 7.84361C13.6924 14.1314 14.2191 22.8003 13.2006 28.5587C13.1568 28.8046 13.054 29.4082 12.9717 29.9C12.665 31.7294 12.4736 32.5753 11.8138 35.0235L11.5178 36.1233L13.4858 38.0789C14.5687 39.1537 15.9206 40.5575 16.492 41.1977L17.5292 42.361L18.4905 41.2272C19.0198 40.604 20.3548 39.2127 21.4573 38.1352L23.462 36.177L23.1294 34.901C22.6287 32.9839 22.3103 31.556 22.0135 29.9C21.4868 26.9591 21.4054 25.8065 21.4054 21.2561C21.4046 18.3384 21.4734 16.1423 21.5923 15.2947C21.9196 12.96 22.0913 11.8825 22.2218 11.3461C22.2916 11.059 22.4972 10.1532 22.6796 9.33418C22.8629 8.51423 23.1026 7.55658 23.2143 7.20517C23.3252 6.85377 23.4164 6.48269 23.4164 6.38075C23.4164 6.27793 22.3211 5.08958 20.9825 3.74029C19.6448 2.39099 18.317 0.996993 18.0327 0.642904L17.5158 0L16.5627 1.08999ZM27.8264 9.6838C27.6646 9.94579 27.1835 12.3261 26.9779 13.8792C26.1132 20.4281 26.3117 25.6786 27.6744 32.3214C27.7728 32.7971 27.9123 32.7559 29.3224 31.8367C30.0136 31.3861 30.6037 31.0177 30.6341 31.0177C30.6636 31.0177 31.117 30.7566 31.6401 30.4391C32.164 30.1208 33.1494 29.5798 33.8308 29.2383C34.9485 28.6758 35.0593 28.5811 34.9798 28.2636C33.6627 23.0149 33.6627 19.3479 34.9798 14.0992C35.0602 13.7791 34.9422 13.6843 33.685 13.053C32.4341 12.4244 29.1131 10.5082 28.9298 10.3088C28.6652 10.0209 27.8899 9.58186 27.8264 9.6838ZM6.27798 10.1622C5.24343 10.8623 3.30756 12.0006 1.69986 12.8536C-0.26641 13.8971 -0.134968 13.7192 0.190508 14.886C1.02745 17.894 1.15173 23.2554 0.456969 26.3233C-0.108143 28.8136 -0.229751 28.6267 2.99908 30.2245C3.2861 30.3667 4.27416 30.9721 5.19515 31.5694C7.40194 33.0027 7.20791 33.0617 7.61475 30.8344C7.88121 29.3805 8.0207 28.3861 8.36406 25.5168C8.75034 22.2763 8.46957 16.5385 7.70775 12.1106C7.23563 9.37174 7.30537 9.46652 6.27798 10.1622Z" fill="#6B53FA"/>
</svg>
