<svg width="200" height="200" viewBox="0 0 200 200" fill="none" xmlns="http://www.w3.org/2000/svg">
<path d="M97.2301 104.53C84.5708 91.5968 69.4548 81.3236 52.77 74.3138C36.0851 67.304 18.1677 63.6988 0.0700684 63.71V136.43C13.6834 136.447 26.9331 140.826 37.8754 148.924C48.8178 157.023 56.8767 168.415 60.8701 181.43C64.7107 152.643 77.4188 125.766 97.2301 104.53V104.53Z" fill="#7111EE"/>
<path d="M199.93 63.71V136.43C183.077 136.451 166.92 143.155 155.003 155.073C143.086 166.99 136.381 183.147 136.36 200H63.6401C63.6401 124.85 124.78 63.71 199.93 63.71Z" fill="#7111EE"/>
<path d="M100 72C119.882 72 136 55.8823 136 36C136 16.1177 119.882 0 100 0C80.1177 0 64 16.1177 64 36C64 55.8823 80.1177 72 100 72Z" fill="#7111EE"/>
</svg>
