<svg width="200" height="200" viewBox="0 0 200 200" fill="none" xmlns="http://www.w3.org/2000/svg">
<path d="M99.9098 58.76C96.6048 58.7073 93.3238 59.3303 90.2682 60.5907C87.2125 61.8512 84.4465 63.7225 82.1398 66.09C79.7633 68.342 77.8748 71.0583 76.5916 74.0704C75.3083 77.0824 74.6576 80.326 74.6798 83.6C74.6427 86.9452 75.2707 90.2645 76.5274 93.365C77.7841 96.4655 79.6444 99.2853 82.0002 101.661C84.356 104.036 87.1604 105.92 90.2503 107.202C93.3403 108.484 96.6543 109.139 99.9998 109.13C106.688 109.149 113.11 106.513 117.857 101.802C122.604 97.0903 125.288 90.688 125.32 84C125.319 80.6714 124.659 77.376 123.38 74.3032C122.1 71.2304 120.226 68.4409 117.864 66.0952C115.503 63.7495 112.701 61.8938 109.619 60.635C106.538 59.3761 103.238 58.7389 99.9098 58.76V58.76Z" fill="#7111EE"/>
<path d="M100 0C73.4784 0 48.043 10.5357 29.2893 29.2893C10.5357 48.043 0 73.4784 0 100L0 176C0 182.365 2.52856 188.47 7.02944 192.971C11.5303 197.471 17.6348 200 24 200H100C126.522 200 151.957 189.464 170.711 170.711C189.464 151.957 200 126.522 200 100C200 73.4784 189.464 48.043 170.711 29.2893C151.957 10.5357 126.522 0 100 0V0ZM131.82 117.41L85.09 180.56L70.26 169.56L102.26 126.17C100.53 126.4 99.06 126.58 97.84 126.69C96.62 126.8 95.65 126.86 94.84 126.86C84.0267 126.86 74.6633 122.75 66.75 114.53C62.9332 110.646 59.9284 106.04 57.9109 100.982C55.8935 95.9241 54.904 90.5147 55 85.07C54.9119 79.2182 56.0285 73.4109 58.2804 68.0091C60.5324 62.6072 63.8714 57.7264 68.09 53.67C72.1817 49.4523 77.0911 46.1141 82.5178 43.8599C87.9445 41.6056 93.7742 40.4828 99.65 40.56C105.546 40.5013 111.394 41.614 116.857 43.8336C122.319 46.0532 127.286 49.3355 131.47 53.49C140.49 62.07 145 72.1933 145 83.86C145 94.2133 140.607 105.397 131.82 117.41Z" fill="#7111EE"/>
</svg>
