<svg width="200" height="200" viewBox="0 0 200 200" fill="none" xmlns="http://www.w3.org/2000/svg">
<path d="M105.1 175.33H104.34H103.61C102.44 175.33 101.22 175.41 100 175.41C76.5101 175.416 53.7366 167.322 35.5201 152.491C17.3035 137.661 4.75827 117.003 0 94C1 152.72 45.4 200 100 200C154.56 200 198.91 152.77 200 94.08C195.468 116.247 183.677 136.271 166.49 150.986C149.302 165.701 127.701 174.267 105.1 175.33Z" fill="#B5B5C3"/>
<path d="M4.38 62.67C3.12 62.67 1.87 62.67 0.63 62.77C0.212689 66.4419 0.00235673 70.1344 0 73.83C0 128.83 44.77 173.45 100 173.45C101.26 173.45 102.5 173.45 103.75 173.36C104.162 169.688 104.373 165.995 104.38 162.3C104.38 107.28 59.61 62.67 4.38 62.67Z" fill="url(#paint0_linear)"/>
<path d="M199.38 62.8C146.47 65.4 104.38 108.95 104.38 162.3C104.38 163.23 104.38 164.16 104.38 165.09C104.38 164.16 104.38 163.23 104.38 162.3C104.38 164.17 104.32 166.03 104.21 167.87C104.32 166.03 104.38 164.17 104.38 162.3C104.38 107.3 59.61 62.67 4.38 62.67C3.12 62.67 1.87 62.67 0.63 62.77C0.212689 66.4419 0.00235673 70.1344 0 73.83C0 128.83 44.77 173.45 100 173.45C101.26 173.45 102.5 173.45 103.75 173.36C104.17 173.36 104.59 173.36 105 173.36C157.91 170.76 200 127.21 200 73.86C199.997 70.1647 199.79 66.4724 199.38 62.8V62.8Z" fill="black"/>
<path d="M199.38 62.8C146.47 65.4 104.38 108.95 104.38 162.3C104.38 163.23 104.38 164.16 104.38 165.09C104.38 164.16 104.38 163.23 104.38 162.3C104.38 164.17 104.32 166.03 104.21 167.87C104.32 166.03 104.38 164.17 104.38 162.3C104.38 107.3 59.61 62.67 4.38 62.67C3.12 62.67 1.87 62.67 0.63 62.77C0.212689 66.4419 0.00235673 70.1344 0 73.83C0 128.83 44.77 173.45 100 173.45C101.26 173.45 102.5 173.45 103.75 173.36C104.17 173.36 104.59 173.36 105 173.36C157.91 170.76 200 127.21 200 73.86C199.997 70.1647 199.79 66.4724 199.38 62.8V62.8Z" fill="#B5B5C3"/>
<path d="M100 72C119.882 72 136 55.8823 136 36C136 16.1177 119.882 0 100 0C80.1177 0 64 16.1177 64 36C64 55.8823 80.1177 72 100 72Z" fill="#B5B5C3"/>
<defs>
<linearGradient id="paint0_linear" x1="114.71" y1="191.29" x2="32.85" y2="95.42" gradientUnits="userSpaceOnUse">
<stop stop-color="#B03B83"/>
<stop offset="1" stop-color="#6F4A9E"/>
</linearGradient>
</defs>
</svg>
